G04 #@! TF.FileFunction,Legend,Bot*
%FSLAX46Y46*%
G04 Gerber Fmt 4.6, Leading zero omitted, Abs format (unit mm)*
G04 Created by KiCad (PCBNEW 4.0.7) date Wednesday, October 25, 2017 'PMt' 05:20:39 PM*
%MOMM*%
%LPD*%
G01*
G04 APERTURE LIST*
%ADD10C,0.100000*%
%ADD11C,0.300000*%
%ADD12C,0.150000*%
G04 APERTURE END LIST*
D10*
D11*
X153387643Y-113465980D02*
X154059281Y-112124749D01*
X153548337Y-111868887D01*
X153388617Y-111868789D01*
X153292766Y-111900675D01*
X153164932Y-111996428D01*
X153068984Y-112188032D01*
X153068886Y-112347752D01*
X153100772Y-112443602D01*
X153196526Y-112571437D01*
X153707470Y-112827299D01*
X151471598Y-112506496D02*
X151823409Y-111803947D01*
X151951243Y-111708194D01*
X152110962Y-111708291D01*
X152366434Y-111836222D01*
X152462188Y-111964056D01*
X151503581Y-112442629D02*
X151599334Y-112570462D01*
X151918675Y-112730376D01*
X152078394Y-112730474D01*
X152206228Y-112634720D01*
X152270194Y-112506984D01*
X152270291Y-112347264D01*
X152174537Y-112219431D01*
X151855196Y-112059517D01*
X151759443Y-111931683D01*
X151472280Y-111388462D02*
X150961334Y-111132600D01*
X151504555Y-110845437D02*
X150928864Y-111995064D01*
X150801031Y-112090818D01*
X150641312Y-112090720D01*
X150513575Y-112026754D01*
X150066498Y-111802875D02*
X150514257Y-110908720D01*
X150386326Y-111164194D02*
X150386424Y-111004475D01*
X150354538Y-110908623D01*
X150258785Y-110780789D01*
X150131049Y-110716824D01*
X149236213Y-111387099D02*
X149683972Y-110492944D01*
X149907851Y-110045867D02*
X149939737Y-110141719D01*
X149843885Y-110173604D01*
X149812001Y-110077753D01*
X149907851Y-110045867D01*
X149843885Y-110173604D01*
X148054700Y-110715558D02*
X148150454Y-110843391D01*
X148405926Y-110971322D01*
X148565646Y-110971420D01*
X148661496Y-110939534D01*
X148789330Y-110843781D01*
X148981227Y-110460573D01*
X148981324Y-110300853D01*
X148949439Y-110205002D01*
X148853685Y-110077168D01*
X148598213Y-109949237D01*
X148438493Y-109949140D01*
X147447904Y-110491580D02*
X148119543Y-109150349D01*
X147576030Y-109916670D02*
X146936959Y-110235718D01*
X147384718Y-109341564D02*
X147639801Y-110108372D01*
X145340255Y-109436148D02*
X146011893Y-108094917D01*
X145500949Y-107839055D01*
X145341228Y-107838957D01*
X145245378Y-107870843D01*
X145117544Y-107966597D01*
X145021596Y-108158200D01*
X145021498Y-108317920D01*
X145053383Y-108413771D01*
X145149137Y-108541605D01*
X145660082Y-108797467D01*
X143520061Y-108444780D02*
X143615815Y-108572613D01*
X143871287Y-108700544D01*
X144031006Y-108700642D01*
X144158840Y-108604889D01*
X144414702Y-108093943D01*
X144414799Y-107934224D01*
X144319046Y-107806390D01*
X144063574Y-107678459D01*
X143903855Y-107678362D01*
X143776021Y-107774115D01*
X143712055Y-107901851D01*
X144286771Y-108349415D01*
X142657792Y-108092871D02*
X142817512Y-108092969D01*
X142945345Y-107997216D01*
X143521035Y-106847588D01*
X141955242Y-107741060D02*
X142114962Y-107741159D01*
X142242795Y-107645405D01*
X142818486Y-106495777D01*
X140965335Y-107165468D02*
X141061089Y-107293302D01*
X141316561Y-107421233D01*
X141476280Y-107421331D01*
X141604114Y-107325577D01*
X141859977Y-106814632D01*
X141860074Y-106654913D01*
X141764321Y-106527078D01*
X141508848Y-106399147D01*
X141349129Y-106399050D01*
X141221295Y-106494804D01*
X141157329Y-106622540D01*
X141732046Y-107070104D01*
X140934035Y-106111302D02*
X140423089Y-105855440D01*
X140966310Y-105568277D02*
X140390619Y-106717904D01*
X140262786Y-106813658D01*
X140103066Y-106813560D01*
X139975330Y-106749594D01*
X139528253Y-106525715D02*
X139976012Y-105631560D01*
X140199892Y-105184483D02*
X140231777Y-105280335D01*
X140135926Y-105312220D01*
X140104041Y-105216369D01*
X140199892Y-105184483D01*
X140135926Y-105312220D01*
X138410609Y-105886157D02*
X138506363Y-106013990D01*
X138761835Y-106141921D01*
X138921554Y-106142019D01*
X139049388Y-106046266D01*
X139305250Y-105535320D01*
X139305347Y-105375601D01*
X139209594Y-105247767D01*
X138954122Y-105119836D01*
X138794402Y-105119739D01*
X138666568Y-105215492D01*
X138602603Y-105343228D01*
X139177319Y-105790792D01*
X137739945Y-105630196D02*
X138187704Y-104736042D01*
X138059772Y-104991515D02*
X138059870Y-104831797D01*
X138027984Y-104735945D01*
X137932231Y-104608111D01*
X137804495Y-104544146D01*
X135633368Y-102817855D02*
X135919459Y-105117985D01*
X132758326Y-102975820D02*
X132790211Y-103071671D01*
X132949833Y-103231487D01*
X133077570Y-103295453D01*
X133301156Y-103327533D01*
X133492858Y-103263763D01*
X133620692Y-103168009D01*
X133812492Y-102944519D01*
X133908440Y-102752915D01*
X133972503Y-102465459D01*
X133972601Y-102305740D01*
X133908829Y-102114038D01*
X133749208Y-101954221D01*
X133621472Y-101890256D01*
X133397884Y-101858176D01*
X133302033Y-101890062D01*
X132119547Y-102815711D02*
X132791185Y-101474479D01*
X131544733Y-102527866D02*
X131896544Y-101825316D01*
X132024378Y-101729563D01*
X132184097Y-101729660D01*
X132375701Y-101825608D01*
X132471455Y-101953443D01*
X132503340Y-102049294D01*
X130906052Y-102208038D02*
X131353811Y-101313883D01*
X131225879Y-101569357D02*
X131225977Y-101409638D01*
X131194091Y-101313786D01*
X131098338Y-101185952D01*
X130970602Y-101121987D01*
X130075766Y-101792262D02*
X130523525Y-100898107D01*
X130747404Y-100451030D02*
X130779290Y-100546882D01*
X130683439Y-100578767D01*
X130651554Y-100482916D01*
X130747404Y-100451030D01*
X130683439Y-100578767D01*
X129532935Y-101440549D02*
X129373216Y-101440451D01*
X129117743Y-101312519D01*
X129021989Y-101184686D01*
X129022087Y-101024968D01*
X129054070Y-100961099D01*
X129181903Y-100865345D01*
X129341623Y-100865442D01*
X129533227Y-100961391D01*
X129692946Y-100961489D01*
X129820780Y-100865736D01*
X129852763Y-100801867D01*
X129852860Y-100642148D01*
X129757107Y-100514314D01*
X129565502Y-100418365D01*
X129405783Y-100418268D01*
X128990689Y-100130520D02*
X128479743Y-99874658D01*
X129022964Y-99587495D02*
X128447273Y-100737122D01*
X128319440Y-100832876D01*
X128159720Y-100832777D01*
X128031984Y-100768812D01*
X127584907Y-100544932D02*
X128032666Y-99650778D01*
X127968700Y-99778515D02*
X127936815Y-99682664D01*
X127841061Y-99554830D01*
X127649458Y-99458882D01*
X127489738Y-99458785D01*
X127361904Y-99554538D01*
X127010094Y-100257087D01*
X127361904Y-99554538D02*
X127362001Y-99394819D01*
X127266248Y-99266985D01*
X127074644Y-99171036D01*
X126914924Y-99170939D01*
X126787091Y-99266693D01*
X126435280Y-99969242D01*
X125221785Y-99361569D02*
X125573596Y-98659020D01*
X125701430Y-98563266D01*
X125861149Y-98563363D01*
X126116621Y-98691294D01*
X126212375Y-98819128D01*
X125253768Y-99297701D02*
X125349521Y-99425535D01*
X125668862Y-99585449D01*
X125828581Y-99585547D01*
X125956415Y-99489793D01*
X126020381Y-99362057D01*
X126020478Y-99202337D01*
X125924724Y-99074504D01*
X125605383Y-98914590D01*
X125509630Y-98786756D01*
X124678954Y-99009856D02*
X124519236Y-99009759D01*
X124263762Y-98881827D01*
X124168009Y-98753994D01*
X124168107Y-98594275D01*
X124200090Y-98530407D01*
X124327923Y-98434653D01*
X124487642Y-98434750D01*
X124679247Y-98530698D01*
X124838965Y-98530796D01*
X124966799Y-98435043D01*
X124998782Y-98371175D01*
X124998879Y-98211455D01*
X124903126Y-98083621D01*
X124711522Y-97987673D01*
X124551802Y-97987576D01*
X123146995Y-96804798D02*
X123115110Y-96708946D01*
X123019356Y-96581112D01*
X122700015Y-96421198D01*
X122540296Y-96421101D01*
X122444445Y-96452987D01*
X122316612Y-96548740D01*
X122252646Y-96676476D01*
X122220565Y-96900064D01*
X122603190Y-98050274D01*
X121772904Y-97634498D01*
X121614257Y-95877491D02*
X121486521Y-95813525D01*
X121326802Y-95813428D01*
X121230950Y-95845314D01*
X121103116Y-95941067D01*
X120911318Y-96164557D01*
X120751404Y-96483898D01*
X120687340Y-96771353D01*
X120687243Y-96931072D01*
X120719129Y-97026923D01*
X120814883Y-97154757D01*
X120942619Y-97218722D01*
X121102337Y-97218820D01*
X121198189Y-97186934D01*
X121326022Y-97091181D01*
X121517822Y-96867691D01*
X121677736Y-96548351D01*
X121741798Y-96260895D01*
X121741896Y-96101176D01*
X121710011Y-96005325D01*
X121614257Y-95877491D01*
X119218179Y-96355187D02*
X119984597Y-96738981D01*
X119601387Y-96547084D02*
X120273026Y-95205852D01*
X120304814Y-95461422D01*
X120368585Y-95653125D01*
X120464338Y-95780959D01*
X119442740Y-94790076D02*
X118548586Y-94342317D01*
X118451761Y-95971393D01*
X140107142Y-84260714D02*
X140178571Y-84332143D01*
X140392857Y-84403571D01*
X140535714Y-84403571D01*
X140749999Y-84332143D01*
X140892857Y-84189286D01*
X140964285Y-84046429D01*
X141035714Y-83760714D01*
X141035714Y-83546429D01*
X140964285Y-83260714D01*
X140892857Y-83117857D01*
X140749999Y-82975000D01*
X140535714Y-82903571D01*
X140392857Y-82903571D01*
X140178571Y-82975000D01*
X140107142Y-83046429D01*
X139249999Y-84403571D02*
X139392857Y-84332143D01*
X139464285Y-84260714D01*
X139535714Y-84117857D01*
X139535714Y-83689286D01*
X139464285Y-83546429D01*
X139392857Y-83475000D01*
X139249999Y-83403571D01*
X139035714Y-83403571D01*
X138892857Y-83475000D01*
X138821428Y-83546429D01*
X138749999Y-83689286D01*
X138749999Y-84117857D01*
X138821428Y-84260714D01*
X138892857Y-84332143D01*
X139035714Y-84403571D01*
X139249999Y-84403571D01*
X138107142Y-83403571D02*
X138107142Y-84403571D01*
X138107142Y-83546429D02*
X138035714Y-83475000D01*
X137892856Y-83403571D01*
X137678571Y-83403571D01*
X137535714Y-83475000D01*
X137464285Y-83617857D01*
X137464285Y-84403571D01*
X136749999Y-83403571D02*
X136749999Y-84403571D01*
X136749999Y-83546429D02*
X136678571Y-83475000D01*
X136535713Y-83403571D01*
X136321428Y-83403571D01*
X136178571Y-83475000D01*
X136107142Y-83617857D01*
X136107142Y-84403571D01*
X134821428Y-84332143D02*
X134964285Y-84403571D01*
X135249999Y-84403571D01*
X135392856Y-84332143D01*
X135464285Y-84189286D01*
X135464285Y-83617857D01*
X135392856Y-83475000D01*
X135249999Y-83403571D01*
X134964285Y-83403571D01*
X134821428Y-83475000D01*
X134749999Y-83617857D01*
X134749999Y-83760714D01*
X135464285Y-83903571D01*
X133464285Y-84332143D02*
X133607142Y-84403571D01*
X133892856Y-84403571D01*
X134035714Y-84332143D01*
X134107142Y-84260714D01*
X134178571Y-84117857D01*
X134178571Y-83689286D01*
X134107142Y-83546429D01*
X134035714Y-83475000D01*
X133892856Y-83403571D01*
X133607142Y-83403571D01*
X133464285Y-83475000D01*
X133035714Y-83403571D02*
X132464285Y-83403571D01*
X132821428Y-82903571D02*
X132821428Y-84189286D01*
X132750000Y-84332143D01*
X132607142Y-84403571D01*
X132464285Y-84403571D01*
X130821428Y-82903571D02*
X130821428Y-84117857D01*
X130750000Y-84260714D01*
X130678571Y-84332143D01*
X130535714Y-84403571D01*
X130250000Y-84403571D01*
X130107142Y-84332143D01*
X130035714Y-84260714D01*
X129964285Y-84117857D01*
X129964285Y-82903571D01*
X129321428Y-84332143D02*
X129107142Y-84403571D01*
X128749999Y-84403571D01*
X128607142Y-84332143D01*
X128535713Y-84260714D01*
X128464285Y-84117857D01*
X128464285Y-83975000D01*
X128535713Y-83832143D01*
X128607142Y-83760714D01*
X128749999Y-83689286D01*
X129035713Y-83617857D01*
X129178571Y-83546429D01*
X129249999Y-83475000D01*
X129321428Y-83332143D01*
X129321428Y-83189286D01*
X129249999Y-83046429D01*
X129178571Y-82975000D01*
X129035713Y-82903571D01*
X128678571Y-82903571D01*
X128464285Y-82975000D01*
X127321428Y-83617857D02*
X127107142Y-83689286D01*
X127035714Y-83760714D01*
X126964285Y-83903571D01*
X126964285Y-84117857D01*
X127035714Y-84260714D01*
X127107142Y-84332143D01*
X127250000Y-84403571D01*
X127821428Y-84403571D01*
X127821428Y-82903571D01*
X127321428Y-82903571D01*
X127178571Y-82975000D01*
X127107142Y-83046429D01*
X127035714Y-83189286D01*
X127035714Y-83332143D01*
X127107142Y-83475000D01*
X127178571Y-83546429D01*
X127321428Y-83617857D01*
X127821428Y-83617857D01*
X140249999Y-86882143D02*
X140392856Y-86953571D01*
X140678570Y-86953571D01*
X140821428Y-86882143D01*
X140892856Y-86810714D01*
X140964285Y-86667857D01*
X140964285Y-86239286D01*
X140892856Y-86096429D01*
X140821428Y-86025000D01*
X140678570Y-85953571D01*
X140392856Y-85953571D01*
X140249999Y-86025000D01*
X139607142Y-86953571D02*
X139607142Y-85453571D01*
X138964285Y-86953571D02*
X138964285Y-86167857D01*
X139035714Y-86025000D01*
X139178571Y-85953571D01*
X139392856Y-85953571D01*
X139535714Y-86025000D01*
X139607142Y-86096429D01*
X137607142Y-86953571D02*
X137607142Y-86167857D01*
X137678571Y-86025000D01*
X137821428Y-85953571D01*
X138107142Y-85953571D01*
X138249999Y-86025000D01*
X137607142Y-86882143D02*
X137749999Y-86953571D01*
X138107142Y-86953571D01*
X138249999Y-86882143D01*
X138321428Y-86739286D01*
X138321428Y-86596429D01*
X138249999Y-86453571D01*
X138107142Y-86382143D01*
X137749999Y-86382143D01*
X137607142Y-86310714D01*
X136892856Y-86953571D02*
X136892856Y-85953571D01*
X136892856Y-86239286D02*
X136821428Y-86096429D01*
X136749999Y-86025000D01*
X136607142Y-85953571D01*
X136464285Y-85953571D01*
X135321428Y-85953571D02*
X135321428Y-87167857D01*
X135392857Y-87310714D01*
X135464285Y-87382143D01*
X135607142Y-87453571D01*
X135821428Y-87453571D01*
X135964285Y-87382143D01*
X135321428Y-86882143D02*
X135464285Y-86953571D01*
X135749999Y-86953571D01*
X135892857Y-86882143D01*
X135964285Y-86810714D01*
X136035714Y-86667857D01*
X136035714Y-86239286D01*
X135964285Y-86096429D01*
X135892857Y-86025000D01*
X135749999Y-85953571D01*
X135464285Y-85953571D01*
X135321428Y-86025000D01*
X134035714Y-86882143D02*
X134178571Y-86953571D01*
X134464285Y-86953571D01*
X134607142Y-86882143D01*
X134678571Y-86739286D01*
X134678571Y-86167857D01*
X134607142Y-86025000D01*
X134464285Y-85953571D01*
X134178571Y-85953571D01*
X134035714Y-86025000D01*
X133964285Y-86167857D01*
X133964285Y-86310714D01*
X134678571Y-86453571D01*
X133321428Y-86953571D02*
X133321428Y-85953571D01*
X133321428Y-86239286D02*
X133250000Y-86096429D01*
X133178571Y-86025000D01*
X133035714Y-85953571D01*
X132892857Y-85953571D01*
X131250000Y-86953571D02*
X131250000Y-85453571D01*
X130607143Y-86953571D02*
X130607143Y-86167857D01*
X130678572Y-86025000D01*
X130821429Y-85953571D01*
X131035714Y-85953571D01*
X131178572Y-86025000D01*
X131250000Y-86096429D01*
X129321429Y-86882143D02*
X129464286Y-86953571D01*
X129750000Y-86953571D01*
X129892857Y-86882143D01*
X129964286Y-86739286D01*
X129964286Y-86167857D01*
X129892857Y-86025000D01*
X129750000Y-85953571D01*
X129464286Y-85953571D01*
X129321429Y-86025000D01*
X129250000Y-86167857D01*
X129250000Y-86310714D01*
X129964286Y-86453571D01*
X128607143Y-86953571D02*
X128607143Y-85953571D01*
X128607143Y-86239286D02*
X128535715Y-86096429D01*
X128464286Y-86025000D01*
X128321429Y-85953571D01*
X128178572Y-85953571D01*
X127107144Y-86882143D02*
X127250001Y-86953571D01*
X127535715Y-86953571D01*
X127678572Y-86882143D01*
X127750001Y-86739286D01*
X127750001Y-86167857D01*
X127678572Y-86025000D01*
X127535715Y-85953571D01*
X127250001Y-85953571D01*
X127107144Y-86025000D01*
X127035715Y-86167857D01*
X127035715Y-86310714D01*
X127750001Y-86453571D01*
D12*
X132150000Y-91155000D02*
X132150000Y-91380000D01*
X132150000Y-91380000D02*
X140450000Y-91380000D01*
X140450000Y-91380000D02*
X140450000Y-91155000D01*
X132150000Y-88405000D02*
X132150000Y-88180000D01*
X132150000Y-88180000D02*
X140450000Y-88180000D01*
X140450000Y-88180000D02*
X140450000Y-88405000D01*
X134000000Y-91680000D02*
X136000000Y-91680000D01*
M02*
