G04 #@! TF.FileFunction,Soldermask,Top*
%FSLAX46Y46*%
G04 Gerber Fmt 4.6, Leading zero omitted, Abs format (unit mm)*
G04 Created by KiCad (PCBNEW 4.0.7) date Wednesday, October 25, 2017 'PMt' 05:20:39 PM*
%MOMM*%
%LPD*%
G01*
G04 APERTURE LIST*
%ADD10C,0.100000*%
%ADD11R,0.840000X0.840000*%
%ADD12C,0.840000*%
%ADD13C,1.850000*%
%ADD14C,4.000000*%
%ADD15R,1.000000X1.000000*%
%ADD16C,0.500000*%
%ADD17C,1.600000*%
%ADD18C,1.600000*%
%ADD19R,1.800000X1.800000*%
%ADD20C,1.800000*%
%ADD21R,10.000000X9.000000*%
G04 APERTURE END LIST*
D10*
D11*
X135000000Y-90000000D03*
D12*
X135650000Y-89000000D03*
X136300000Y-90000000D03*
X136950000Y-89000000D03*
X137600000Y-90000000D03*
D13*
X132725000Y-89780000D03*
X139875000Y-89780000D03*
D14*
X133000000Y-116000000D03*
D15*
X133000000Y-114000000D03*
D16*
X133000000Y-113500000D03*
D14*
X106000000Y-115000000D03*
D15*
X106000000Y-113000000D03*
D16*
X106000000Y-112500000D03*
D14*
X118000000Y-86000000D03*
D15*
X118000000Y-84000000D03*
D16*
X118000000Y-83500000D03*
D14*
X147000000Y-104000000D03*
D15*
X147000000Y-102000000D03*
D16*
X147000000Y-101500000D03*
D14*
X137000000Y-80000000D03*
D15*
X137000000Y-78000000D03*
D16*
X137000000Y-77500000D03*
D14*
X136000000Y-59000000D03*
D15*
X136000000Y-57000000D03*
D16*
X136000000Y-56500000D03*
D14*
X138000000Y-43000000D03*
D15*
X138000000Y-41000000D03*
D16*
X138000000Y-40500000D03*
D14*
X124000000Y-52000000D03*
D15*
X124000000Y-50000000D03*
D16*
X124000000Y-49500000D03*
D17*
X112000000Y-98000000D03*
D18*
X118813455Y-101411924D02*
X118813455Y-101411924D01*
D17*
X122000000Y-103000000D03*
D18*
X128813455Y-106411924D02*
X128813455Y-106411924D01*
D17*
X132000000Y-108000000D03*
D18*
X138813455Y-111411924D02*
X138813455Y-111411924D01*
D17*
X142000000Y-113000000D03*
D18*
X148813455Y-116411924D02*
X148813455Y-116411924D01*
D17*
X126000000Y-64000000D03*
D18*
X132813455Y-67411924D02*
X132813455Y-67411924D01*
D17*
X136000000Y-69000000D03*
D18*
X142813455Y-72411924D02*
X142813455Y-72411924D01*
D17*
X146000000Y-74000000D03*
D18*
X152813455Y-77411924D02*
X152813455Y-77411924D01*
D14*
X135000000Y-36000000D03*
D19*
X129000000Y-44000000D03*
D20*
X131540000Y-44000000D03*
D19*
X140000000Y-64000000D03*
D20*
X142540000Y-64000000D03*
D19*
X143000000Y-84000000D03*
D20*
X145540000Y-84000000D03*
D19*
X118000000Y-78000000D03*
D20*
X120540000Y-78000000D03*
D19*
X137000000Y-50000000D03*
D20*
X139540000Y-50000000D03*
D19*
X128000000Y-57000000D03*
D20*
X130540000Y-57000000D03*
D19*
X163000000Y-114000000D03*
D20*
X165540000Y-114000000D03*
D19*
X155000000Y-106000000D03*
D20*
X157540000Y-106000000D03*
D19*
X130000000Y-78000000D03*
D20*
X132540000Y-78000000D03*
D19*
X137000000Y-97000000D03*
D20*
X139540000Y-97000000D03*
D19*
X148000000Y-97000000D03*
D20*
X150540000Y-97000000D03*
D19*
X125000000Y-89000000D03*
D20*
X127540000Y-89000000D03*
D19*
X123000000Y-113000000D03*
D20*
X125540000Y-113000000D03*
D19*
X111000000Y-106000000D03*
D20*
X113540000Y-106000000D03*
D21*
X135000000Y-124500000D03*
M02*
