M48
;DRILL file {KiCad 4.0.7} date Thursday, November 02, 2017 'PMt' 06:37:57 PM
;FORMAT={3:3/ absolute / metric / suppress leading zeros}
FMAT,2
METRIC,TZ
T1C0.440
T2C0.700
T3C0.900
T4C1.350
%
G90
G05
M71
T1
X133900Y-80500
X134550Y-79500
X135200Y-80500
X135850Y-79500
X136500Y-80500
T2
X112958Y-77775
X112958Y-108775
X117500Y-75500
X117500Y-106500
X120958Y-73775
X120958Y-104775
X122958Y-44775
X125500Y-71500
X125500Y-102500
X127500Y-42500
X128958Y-69775
X128958Y-100775
X130958Y-40775
X133500Y-67500
X133500Y-98500
X135500Y-38500
X136958Y-65775
X136958Y-96775
X138958Y-36775
X141500Y-63500
X141500Y-94500
X143500Y-34500
X144958Y-61775
X144958Y-92775
X149500Y-59500
X149500Y-90500
X152958Y-88775
X157500Y-86500
T3
X105960Y-104500
X108500Y-104500
X113960Y-96500
X116500Y-96500
X120960Y-64500
X120960Y-87500
X123500Y-64500
X123500Y-87500
X128960Y-54500
X131500Y-54500
X131960Y-87500
X133960Y-43500
X134500Y-87500
X136500Y-43500
X137960Y-31500
X137960Y-56500
X140500Y-31500
X140500Y-56500
X140960Y-47500
X143500Y-47500
X143960Y-79500
X145960Y-103500
X146500Y-79500
X148500Y-103500
X150960Y-68500
X153500Y-68500
X157960Y-96500
X160500Y-96500
T4
X131625Y-80280
X138775Y-80280
T0
M30
