G04 #@! TF.FileFunction,Copper,L2,Bot,Signal*
%FSLAX46Y46*%
G04 Gerber Fmt 4.6, Leading zero omitted, Abs format (unit mm)*
G04 Created by KiCad (PCBNEW 4.0.7) date Wednesday, October 25, 2017 'PMt' 05:20:39 PM*
%MOMM*%
%LPD*%
G01*
G04 APERTURE LIST*
%ADD10C,0.100000*%
%ADD11R,0.840000X0.840000*%
%ADD12C,0.840000*%
%ADD13C,1.850000*%
%ADD14C,1.600000*%
%ADD15C,1.600000*%
%ADD16R,1.800000X1.800000*%
%ADD17C,1.800000*%
%ADD18C,0.250000*%
%ADD19C,0.254000*%
G04 APERTURE END LIST*
D10*
D11*
X135000000Y-90000000D03*
D12*
X135650000Y-89000000D03*
X136300000Y-90000000D03*
X136950000Y-89000000D03*
X137600000Y-90000000D03*
D13*
X132725000Y-89780000D03*
X139875000Y-89780000D03*
D14*
X112000000Y-98000000D03*
D15*
X118813455Y-101411924D02*
X118813455Y-101411924D01*
D14*
X122000000Y-103000000D03*
D15*
X128813455Y-106411924D02*
X128813455Y-106411924D01*
D14*
X132000000Y-108000000D03*
D15*
X138813455Y-111411924D02*
X138813455Y-111411924D01*
D14*
X142000000Y-113000000D03*
D15*
X148813455Y-116411924D02*
X148813455Y-116411924D01*
D14*
X126000000Y-64000000D03*
D15*
X132813455Y-67411924D02*
X132813455Y-67411924D01*
D14*
X136000000Y-69000000D03*
D15*
X142813455Y-72411924D02*
X142813455Y-72411924D01*
D14*
X146000000Y-74000000D03*
D15*
X152813455Y-77411924D02*
X152813455Y-77411924D01*
D16*
X129000000Y-44000000D03*
D17*
X131540000Y-44000000D03*
D16*
X140000000Y-64000000D03*
D17*
X142540000Y-64000000D03*
D16*
X143000000Y-84000000D03*
D17*
X145540000Y-84000000D03*
D16*
X118000000Y-78000000D03*
D17*
X120540000Y-78000000D03*
D16*
X137000000Y-50000000D03*
D17*
X139540000Y-50000000D03*
D16*
X128000000Y-57000000D03*
D17*
X130540000Y-57000000D03*
D16*
X163000000Y-114000000D03*
D17*
X165540000Y-114000000D03*
D16*
X155000000Y-106000000D03*
D17*
X157540000Y-106000000D03*
D16*
X130000000Y-78000000D03*
D17*
X132540000Y-78000000D03*
D16*
X137000000Y-97000000D03*
D17*
X139540000Y-97000000D03*
D16*
X148000000Y-97000000D03*
D17*
X150540000Y-97000000D03*
D16*
X125000000Y-89000000D03*
D17*
X127540000Y-89000000D03*
D16*
X123000000Y-113000000D03*
D17*
X125540000Y-113000000D03*
D16*
X111000000Y-106000000D03*
D17*
X113540000Y-106000000D03*
D18*
X123000000Y-113000000D02*
X120540000Y-113000000D01*
X120540000Y-113000000D02*
X113540000Y-106000000D01*
X118813455Y-101411924D02*
X118813455Y-106273455D01*
X118813455Y-106273455D02*
X125540000Y-113000000D01*
X148000000Y-97000000D02*
X146850000Y-97000000D01*
X146850000Y-97000000D02*
X140880001Y-91030001D01*
X140880001Y-91030001D02*
X129570001Y-91030001D01*
X129570001Y-91030001D02*
X128439999Y-89899999D01*
X128439999Y-89899999D02*
X127540000Y-89000000D01*
X128813455Y-106411924D02*
X141128076Y-106411924D01*
X141128076Y-106411924D02*
X150540000Y-97000000D01*
X125813600Y-94450011D02*
X136990011Y-94450011D01*
X122549991Y-91186401D02*
X125813600Y-94450011D01*
X122549991Y-86600009D02*
X122549991Y-91186401D01*
X136990011Y-94450011D02*
X138640001Y-96100001D01*
X130000000Y-79150000D02*
X122549991Y-86600009D01*
X130000000Y-78000000D02*
X130000000Y-79150000D01*
X138640001Y-96100001D02*
X139540000Y-97000000D01*
X138813455Y-111411924D02*
X139944825Y-111411924D01*
X139944825Y-111411924D02*
X151765001Y-99591748D01*
X151765001Y-99591748D02*
X151765001Y-96411999D01*
X151765001Y-96411999D02*
X134253001Y-78899999D01*
X134253001Y-78899999D02*
X133439999Y-78899999D01*
X133439999Y-78899999D02*
X132540000Y-78000000D01*
X163000000Y-114000000D02*
X163000000Y-111460000D01*
X163000000Y-111460000D02*
X157540000Y-106000000D01*
X148813455Y-116411924D02*
X163128076Y-116411924D01*
X163128076Y-116411924D02*
X165540000Y-114000000D01*
X126000000Y-94000000D02*
X123774999Y-91774999D01*
X123774999Y-91774999D02*
X123774999Y-87839999D01*
X123774999Y-87839999D02*
X123839999Y-87774999D01*
X123839999Y-87774999D02*
X132774999Y-87774999D01*
X132774999Y-87774999D02*
X135000000Y-90000000D01*
X138353002Y-94000000D02*
X126000000Y-94000000D01*
X122000000Y-103000000D02*
X135353002Y-103000000D01*
X135353002Y-103000000D02*
X140765001Y-97588001D01*
X140765001Y-97588001D02*
X140765001Y-96411999D01*
X140765001Y-96411999D02*
X138353002Y-94000000D01*
X122000000Y-103000000D02*
X120868630Y-103000000D01*
X120868630Y-103000000D02*
X119938456Y-102069826D01*
X119938456Y-102069826D02*
X119938456Y-100871923D01*
X119938456Y-100871923D02*
X117066533Y-98000000D01*
X117066533Y-98000000D02*
X113131370Y-98000000D01*
X113131370Y-98000000D02*
X112000000Y-98000000D01*
X132000000Y-108000000D02*
X127000000Y-108000000D01*
X127000000Y-108000000D02*
X122000000Y-103000000D01*
X142000000Y-113000000D02*
X137000000Y-113000000D01*
X137000000Y-113000000D02*
X132000000Y-108000000D01*
X150000000Y-91000000D02*
X152215012Y-93215012D01*
X152215012Y-93215012D02*
X152215012Y-102784988D01*
X152215012Y-102784988D02*
X142799999Y-112200001D01*
X142799999Y-112200001D02*
X142000000Y-113000000D01*
X150000000Y-78000000D02*
X150000000Y-91000000D01*
X146000000Y-74000000D02*
X150000000Y-78000000D01*
X145200001Y-73200001D02*
X146000000Y-74000000D01*
X126000000Y-64000000D02*
X130986936Y-68986936D01*
X130986936Y-68986936D02*
X140986936Y-68986936D01*
X140986936Y-68986936D02*
X145200001Y-73200001D01*
X137000000Y-50000000D02*
X137000000Y-51150000D01*
X137000000Y-51150000D02*
X131150000Y-57000000D01*
X131150000Y-57000000D02*
X130540000Y-57000000D01*
X132813455Y-67411924D02*
X132813455Y-56726545D01*
X132813455Y-56726545D02*
X139540000Y-50000000D01*
X143000000Y-84000000D02*
X141850000Y-84000000D01*
X141850000Y-84000000D02*
X134624999Y-76774999D01*
X134624999Y-76774999D02*
X121765001Y-76774999D01*
X121765001Y-76774999D02*
X121439999Y-77100001D01*
X121439999Y-77100001D02*
X120540000Y-78000000D01*
X142813455Y-72411924D02*
X142813455Y-81273455D01*
X142813455Y-81273455D02*
X145540000Y-84000000D01*
X141267208Y-65272792D02*
X141640001Y-64899999D01*
X138062206Y-65272792D02*
X141267208Y-65272792D01*
X141640001Y-64899999D02*
X142540000Y-64000000D01*
X134798073Y-68536925D02*
X138062206Y-65272792D01*
X132201927Y-68536925D02*
X134798073Y-68536925D01*
X126774999Y-63109997D02*
X132201927Y-68536925D01*
X126774999Y-47375001D02*
X126774999Y-63109997D01*
X129000000Y-45150000D02*
X126774999Y-47375001D01*
X129000000Y-44000000D02*
X129000000Y-45150000D01*
X142000000Y-60000000D02*
X142000000Y-50646998D01*
X142000000Y-50646998D02*
X135353002Y-44000000D01*
X135353002Y-44000000D02*
X132812792Y-44000000D01*
X132812792Y-44000000D02*
X131540000Y-44000000D01*
X146000000Y-64000000D02*
X142000000Y-60000000D01*
X146000000Y-68000000D02*
X146000000Y-64000000D01*
X152813455Y-74813455D02*
X146000000Y-68000000D01*
X152813455Y-77411924D02*
X152813455Y-74813455D01*
D19*
G36*
X132365458Y-35473567D02*
X132364543Y-36521834D01*
X132764853Y-37490658D01*
X133505443Y-38232542D01*
X134473567Y-38634542D01*
X135521834Y-38635457D01*
X136490658Y-38235147D01*
X137232542Y-37494557D01*
X137634542Y-36526433D01*
X137635457Y-35478166D01*
X137369196Y-34833765D01*
X153673353Y-59290000D01*
X145000000Y-59290000D01*
X144931777Y-59303571D01*
X144862214Y-59303498D01*
X144797238Y-59330332D01*
X144728295Y-59344046D01*
X144670459Y-59382690D01*
X144606163Y-59409244D01*
X144556404Y-59458899D01*
X144497954Y-59497954D01*
X144459307Y-59555794D01*
X144410070Y-59604928D01*
X144383100Y-59669846D01*
X144344046Y-59728295D01*
X144330476Y-59796515D01*
X144303787Y-59860757D01*
X144303714Y-59931057D01*
X144290000Y-60000000D01*
X144303571Y-60068223D01*
X144303498Y-60137786D01*
X144330332Y-60202762D01*
X144344046Y-60271705D01*
X144382690Y-60329541D01*
X144409244Y-60393837D01*
X146290454Y-63215652D01*
X142760000Y-59685198D01*
X142760000Y-50646998D01*
X142702148Y-50356159D01*
X142537401Y-50109597D01*
X135890403Y-43462599D01*
X135643841Y-43297852D01*
X135353002Y-43240000D01*
X132886846Y-43240000D01*
X132842068Y-43131629D01*
X132410643Y-42699449D01*
X131846670Y-42465267D01*
X131236009Y-42464735D01*
X130671629Y-42697932D01*
X130503387Y-42865880D01*
X130503162Y-42864683D01*
X130364090Y-42648559D01*
X130151890Y-42503569D01*
X129900000Y-42452560D01*
X128100000Y-42452560D01*
X127864683Y-42496838D01*
X127648559Y-42635910D01*
X127503569Y-42848110D01*
X127452560Y-43100000D01*
X127452560Y-44900000D01*
X127496838Y-45135317D01*
X127635910Y-45351441D01*
X127688098Y-45387100D01*
X126237598Y-46837600D01*
X126072851Y-47084162D01*
X126014999Y-47375001D01*
X126014999Y-62550398D01*
X125887232Y-62541239D01*
X125710742Y-62728114D01*
X126055600Y-63764792D01*
X126014141Y-63806251D01*
X126193749Y-63985859D01*
X126384904Y-63794704D01*
X126543308Y-63953108D01*
X126160595Y-64080420D01*
X126530272Y-65191711D01*
X126783536Y-65235626D01*
X127196746Y-64841724D01*
X127268891Y-64678691D01*
X131664526Y-69074326D01*
X131911087Y-69239073D01*
X132201927Y-69296925D01*
X134798073Y-69296925D01*
X135088912Y-69239073D01*
X135297057Y-69099996D01*
X135355904Y-69080420D01*
X136160595Y-69080420D01*
X136530272Y-70191711D01*
X136783536Y-70235626D01*
X137196746Y-69841724D01*
X137427762Y-69319676D01*
X137458761Y-68887232D01*
X137271886Y-68710742D01*
X136160595Y-69080420D01*
X135355904Y-69080420D01*
X135764792Y-68944400D01*
X135806251Y-68985859D01*
X135985859Y-68806251D01*
X135794704Y-68615096D01*
X135953108Y-68456692D01*
X136080420Y-68839405D01*
X137191711Y-68469728D01*
X137235626Y-68216464D01*
X136841724Y-67803254D01*
X136678691Y-67731109D01*
X138377008Y-66032792D01*
X141267208Y-66032792D01*
X141558047Y-65974940D01*
X141804609Y-65810193D01*
X142125036Y-65489766D01*
X142233330Y-65534733D01*
X142843991Y-65535265D01*
X143408371Y-65302068D01*
X143840551Y-64870643D01*
X144074733Y-64306670D01*
X144075265Y-63696009D01*
X143842068Y-63131629D01*
X143410643Y-62699449D01*
X142846670Y-62465267D01*
X142236009Y-62464735D01*
X141671629Y-62697932D01*
X141503387Y-62865880D01*
X141503162Y-62864683D01*
X141364090Y-62648559D01*
X141151890Y-62503569D01*
X140900000Y-62452560D01*
X139100000Y-62452560D01*
X138864683Y-62496838D01*
X138648559Y-62635910D01*
X138503569Y-62848110D01*
X138452560Y-63100000D01*
X138452560Y-64512792D01*
X138062206Y-64512792D01*
X137771367Y-64570644D01*
X137524805Y-64735391D01*
X134483271Y-67776925D01*
X134201343Y-67776925D01*
X134269918Y-67527125D01*
X134200233Y-66971570D01*
X133923251Y-66484970D01*
X133573455Y-66213145D01*
X133573455Y-57041347D01*
X139125036Y-51489766D01*
X139233330Y-51534733D01*
X139843991Y-51535265D01*
X140408371Y-51302068D01*
X140840551Y-50870643D01*
X140931005Y-50652805D01*
X141240000Y-50961800D01*
X141240000Y-60000000D01*
X141297852Y-60290839D01*
X141462599Y-60537401D01*
X145240000Y-64314802D01*
X145240000Y-68000000D01*
X145297852Y-68290839D01*
X145462599Y-68537401D01*
X152053455Y-75128257D01*
X152053455Y-76198169D01*
X151848776Y-76314676D01*
X151505213Y-76756788D01*
X151356992Y-77296723D01*
X151426677Y-77852278D01*
X151703658Y-78338878D01*
X152145770Y-78682441D01*
X152196044Y-78707616D01*
X152735978Y-78855838D01*
X153291534Y-78786153D01*
X153778133Y-78509171D01*
X154121696Y-78067059D01*
X154269918Y-77527125D01*
X154200233Y-76971570D01*
X153923251Y-76484970D01*
X153573455Y-76213145D01*
X153573455Y-74813455D01*
X153515603Y-74522616D01*
X153515603Y-74522615D01*
X153350856Y-74276054D01*
X146760000Y-67685198D01*
X146760000Y-64000000D01*
X146737312Y-63885938D01*
X163673353Y-89290000D01*
X155000000Y-89290000D01*
X154931777Y-89303571D01*
X154862214Y-89303498D01*
X154797238Y-89330332D01*
X154728295Y-89344046D01*
X154670459Y-89382690D01*
X154606163Y-89409244D01*
X154556404Y-89458899D01*
X154497954Y-89497954D01*
X154459307Y-89555794D01*
X154410070Y-89604928D01*
X154383100Y-89669846D01*
X154344046Y-89728295D01*
X154330476Y-89796515D01*
X154303787Y-89860757D01*
X154303714Y-89931057D01*
X154290000Y-90000000D01*
X154303571Y-90068223D01*
X154303498Y-90137786D01*
X154330332Y-90202762D01*
X154344046Y-90271705D01*
X154382690Y-90329541D01*
X154409244Y-90393837D01*
X173673353Y-119290000D01*
X140000000Y-119290000D01*
X139728295Y-119344046D01*
X139497954Y-119497954D01*
X139344046Y-119728295D01*
X139315262Y-119873000D01*
X130684738Y-119873000D01*
X130655954Y-119728295D01*
X130502046Y-119497954D01*
X130271705Y-119344046D01*
X130000000Y-119290000D01*
X96326647Y-119290000D01*
X98322165Y-116296723D01*
X147356992Y-116296723D01*
X147426677Y-116852278D01*
X147703658Y-117338878D01*
X148145770Y-117682441D01*
X148196044Y-117707616D01*
X148735978Y-117855838D01*
X149291534Y-117786153D01*
X149778133Y-117509171D01*
X150040206Y-117171924D01*
X163128076Y-117171924D01*
X163418915Y-117114072D01*
X163665477Y-116949325D01*
X165125036Y-115489766D01*
X165233330Y-115534733D01*
X165843991Y-115535265D01*
X166408371Y-115302068D01*
X166840551Y-114870643D01*
X167074733Y-114306670D01*
X167075265Y-113696009D01*
X166842068Y-113131629D01*
X166410643Y-112699449D01*
X165846670Y-112465267D01*
X165236009Y-112464735D01*
X164671629Y-112697932D01*
X164503387Y-112865880D01*
X164503162Y-112864683D01*
X164364090Y-112648559D01*
X164151890Y-112503569D01*
X163900000Y-112452560D01*
X163760000Y-112452560D01*
X163760000Y-111460000D01*
X163702148Y-111169161D01*
X163537401Y-110922599D01*
X159029766Y-106414964D01*
X159074733Y-106306670D01*
X159075265Y-105696009D01*
X158842068Y-105131629D01*
X158410643Y-104699449D01*
X157846670Y-104465267D01*
X157236009Y-104464735D01*
X156671629Y-104697932D01*
X156503387Y-104865880D01*
X156503162Y-104864683D01*
X156364090Y-104648559D01*
X156151890Y-104503569D01*
X155900000Y-104452560D01*
X154100000Y-104452560D01*
X153864683Y-104496838D01*
X153648559Y-104635910D01*
X153503569Y-104848110D01*
X153452560Y-105100000D01*
X153452560Y-106900000D01*
X153496838Y-107135317D01*
X153635910Y-107351441D01*
X153848110Y-107496431D01*
X154100000Y-107547440D01*
X155900000Y-107547440D01*
X156135317Y-107503162D01*
X156351441Y-107364090D01*
X156496431Y-107151890D01*
X156500567Y-107131466D01*
X156669357Y-107300551D01*
X157233330Y-107534733D01*
X157843991Y-107535265D01*
X157954713Y-107489515D01*
X162240000Y-111774802D01*
X162240000Y-112452560D01*
X162100000Y-112452560D01*
X161864683Y-112496838D01*
X161648559Y-112635910D01*
X161503569Y-112848110D01*
X161452560Y-113100000D01*
X161452560Y-114900000D01*
X161496838Y-115135317D01*
X161635910Y-115351441D01*
X161848110Y-115496431D01*
X162100000Y-115547440D01*
X162917758Y-115547440D01*
X162813274Y-115651924D01*
X150018284Y-115651924D01*
X149923251Y-115484970D01*
X149481139Y-115141407D01*
X149430866Y-115116231D01*
X148890931Y-114968010D01*
X148335376Y-115037695D01*
X147848776Y-115314676D01*
X147505213Y-115756788D01*
X147356992Y-116296723D01*
X98322165Y-116296723D01*
X105786647Y-105100000D01*
X109452560Y-105100000D01*
X109452560Y-106900000D01*
X109496838Y-107135317D01*
X109635910Y-107351441D01*
X109848110Y-107496431D01*
X110100000Y-107547440D01*
X111900000Y-107547440D01*
X112135317Y-107503162D01*
X112351441Y-107364090D01*
X112496431Y-107151890D01*
X112500567Y-107131466D01*
X112669357Y-107300551D01*
X113233330Y-107534733D01*
X113843991Y-107535265D01*
X113954713Y-107489515D01*
X120002599Y-113537401D01*
X120249161Y-113702148D01*
X120540000Y-113760000D01*
X121452560Y-113760000D01*
X121452560Y-113900000D01*
X121496838Y-114135317D01*
X121635910Y-114351441D01*
X121848110Y-114496431D01*
X122100000Y-114547440D01*
X123900000Y-114547440D01*
X124135317Y-114503162D01*
X124351441Y-114364090D01*
X124496431Y-114151890D01*
X124500567Y-114131466D01*
X124669357Y-114300551D01*
X125233330Y-114534733D01*
X125843991Y-114535265D01*
X126408371Y-114302068D01*
X126840551Y-113870643D01*
X126876720Y-113783536D01*
X140764374Y-113783536D01*
X141158276Y-114196746D01*
X141680324Y-114427762D01*
X142112768Y-114458761D01*
X142289258Y-114271886D01*
X141919580Y-113160595D01*
X140808289Y-113530272D01*
X140764374Y-113783536D01*
X126876720Y-113783536D01*
X127074733Y-113306670D01*
X127074901Y-113112768D01*
X140541239Y-113112768D01*
X140728114Y-113289258D01*
X141355903Y-113080420D01*
X142160595Y-113080420D01*
X142530272Y-114191711D01*
X142783536Y-114235626D01*
X143196746Y-113841724D01*
X143427762Y-113319676D01*
X143458761Y-112887232D01*
X143271886Y-112710742D01*
X142160595Y-113080420D01*
X141355903Y-113080420D01*
X141839405Y-112919580D01*
X141469728Y-111808289D01*
X141216464Y-111764374D01*
X140803254Y-112158276D01*
X140572238Y-112680324D01*
X140541239Y-113112768D01*
X127074901Y-113112768D01*
X127075265Y-112696009D01*
X126842068Y-112131629D01*
X126410643Y-111699449D01*
X125846670Y-111465267D01*
X125236009Y-111464735D01*
X125125287Y-111510485D01*
X122398338Y-108783536D01*
X130764374Y-108783536D01*
X131158276Y-109196746D01*
X131680324Y-109427762D01*
X132112768Y-109458761D01*
X132289258Y-109271886D01*
X131919580Y-108160595D01*
X130808289Y-108530272D01*
X130764374Y-108783536D01*
X122398338Y-108783536D01*
X119573455Y-105958653D01*
X119573455Y-103783536D01*
X120764374Y-103783536D01*
X121158276Y-104196746D01*
X121680324Y-104427762D01*
X122112768Y-104458761D01*
X122289258Y-104271886D01*
X121919580Y-103160595D01*
X120808289Y-103530272D01*
X120764374Y-103783536D01*
X119573455Y-103783536D01*
X119573455Y-103112768D01*
X120541239Y-103112768D01*
X120728114Y-103289258D01*
X121355903Y-103080420D01*
X122160595Y-103080420D01*
X122530272Y-104191711D01*
X122783536Y-104235626D01*
X123196746Y-103841724D01*
X123427762Y-103319676D01*
X123458761Y-102887232D01*
X123271886Y-102710742D01*
X122160595Y-103080420D01*
X121355903Y-103080420D01*
X121839405Y-102919580D01*
X121469728Y-101808289D01*
X121216464Y-101764374D01*
X120803254Y-102158276D01*
X120572238Y-102680324D01*
X120541239Y-103112768D01*
X119573455Y-103112768D01*
X119573455Y-102625678D01*
X119778133Y-102509171D01*
X120121696Y-102067059D01*
X120214742Y-101728114D01*
X121710742Y-101728114D01*
X122080420Y-102839405D01*
X123191711Y-102469728D01*
X123235626Y-102216464D01*
X122841724Y-101803254D01*
X122319676Y-101572238D01*
X121887232Y-101541239D01*
X121710742Y-101728114D01*
X120214742Y-101728114D01*
X120269918Y-101527125D01*
X120200233Y-100971570D01*
X119923251Y-100484970D01*
X119481139Y-100141407D01*
X119430866Y-100116231D01*
X118890931Y-99968010D01*
X118335376Y-100037695D01*
X117848776Y-100314676D01*
X117505213Y-100756788D01*
X117356992Y-101296723D01*
X117426677Y-101852278D01*
X117703658Y-102338878D01*
X118053455Y-102610703D01*
X118053455Y-106273455D01*
X118111307Y-106564294D01*
X118276054Y-106810856D01*
X122917758Y-111452560D01*
X122100000Y-111452560D01*
X121864683Y-111496838D01*
X121648559Y-111635910D01*
X121503569Y-111848110D01*
X121452560Y-112100000D01*
X121452560Y-112240000D01*
X120854802Y-112240000D01*
X115029766Y-106414964D01*
X115074733Y-106306670D01*
X115075265Y-105696009D01*
X114842068Y-105131629D01*
X114410643Y-104699449D01*
X113846670Y-104465267D01*
X113236009Y-104464735D01*
X112671629Y-104697932D01*
X112503387Y-104865880D01*
X112503162Y-104864683D01*
X112364090Y-104648559D01*
X112151890Y-104503569D01*
X111900000Y-104452560D01*
X110100000Y-104452560D01*
X109864683Y-104496838D01*
X109648559Y-104635910D01*
X109503569Y-104848110D01*
X109452560Y-105100000D01*
X105786647Y-105100000D01*
X109997623Y-98783536D01*
X110764374Y-98783536D01*
X111158276Y-99196746D01*
X111680324Y-99427762D01*
X112112768Y-99458761D01*
X112289258Y-99271886D01*
X111919580Y-98160595D01*
X110808289Y-98530272D01*
X110764374Y-98783536D01*
X109997623Y-98783536D01*
X110552858Y-97950684D01*
X110541239Y-98112768D01*
X110728114Y-98289258D01*
X111355902Y-98080420D01*
X112160595Y-98080420D01*
X112530272Y-99191711D01*
X112783536Y-99235626D01*
X113196746Y-98841724D01*
X113427762Y-98319676D01*
X113458761Y-97887232D01*
X113271886Y-97710742D01*
X112160595Y-98080420D01*
X111355902Y-98080420D01*
X111764792Y-97944400D01*
X111806251Y-97985859D01*
X111985859Y-97806251D01*
X111709909Y-97530301D01*
X111469728Y-96808289D01*
X111330544Y-96784155D01*
X111367904Y-96728114D01*
X111710742Y-96728114D01*
X112080420Y-97839405D01*
X113191711Y-97469728D01*
X113235626Y-97216464D01*
X112841724Y-96803254D01*
X112319676Y-96572238D01*
X111887232Y-96541239D01*
X111710742Y-96728114D01*
X111367904Y-96728114D01*
X115590756Y-90393837D01*
X115617309Y-90329541D01*
X115655954Y-90271705D01*
X115669668Y-90202760D01*
X115696502Y-90137785D01*
X115696429Y-90068223D01*
X115710000Y-90000000D01*
X115696286Y-89931057D01*
X115696213Y-89860757D01*
X115669524Y-89796515D01*
X115655954Y-89728295D01*
X115616900Y-89669846D01*
X115589930Y-89604928D01*
X115540693Y-89555794D01*
X115502046Y-89497954D01*
X115443596Y-89458899D01*
X115393837Y-89409244D01*
X115329541Y-89382690D01*
X115271705Y-89344046D01*
X115202762Y-89330332D01*
X115137786Y-89303498D01*
X115068223Y-89303571D01*
X115000000Y-89290000D01*
X106326647Y-89290000D01*
X114453313Y-77100000D01*
X116452560Y-77100000D01*
X116452560Y-78900000D01*
X116496838Y-79135317D01*
X116635910Y-79351441D01*
X116848110Y-79496431D01*
X117100000Y-79547440D01*
X118900000Y-79547440D01*
X119135317Y-79503162D01*
X119351441Y-79364090D01*
X119496431Y-79151890D01*
X119500567Y-79131466D01*
X119669357Y-79300551D01*
X120233330Y-79534733D01*
X120843991Y-79535265D01*
X121408371Y-79302068D01*
X121840551Y-78870643D01*
X122074733Y-78306670D01*
X122075265Y-77696009D01*
X122029515Y-77585287D01*
X122079803Y-77534999D01*
X128452560Y-77534999D01*
X128452560Y-78900000D01*
X128496838Y-79135317D01*
X128635910Y-79351441D01*
X128688098Y-79387100D01*
X122012590Y-86062608D01*
X121847843Y-86309170D01*
X121789991Y-86600009D01*
X121789991Y-91186401D01*
X121847843Y-91477240D01*
X122012590Y-91723802D01*
X125276199Y-94987412D01*
X125522761Y-95152159D01*
X125813600Y-95210011D01*
X136675209Y-95210011D01*
X136917758Y-95452560D01*
X136100000Y-95452560D01*
X135864683Y-95496838D01*
X135648559Y-95635910D01*
X135503569Y-95848110D01*
X135452560Y-96100000D01*
X135452560Y-97900000D01*
X135496838Y-98135317D01*
X135635910Y-98351441D01*
X135848110Y-98496431D01*
X136100000Y-98547440D01*
X137900000Y-98547440D01*
X138135317Y-98503162D01*
X138351441Y-98364090D01*
X138496431Y-98151890D01*
X138500567Y-98131466D01*
X138669357Y-98300551D01*
X139233330Y-98534733D01*
X139843991Y-98535265D01*
X140408371Y-98302068D01*
X140840551Y-97870643D01*
X141074733Y-97306670D01*
X141075265Y-96696009D01*
X140842068Y-96131629D01*
X140410643Y-95699449D01*
X139846670Y-95465267D01*
X139236009Y-95464735D01*
X139125287Y-95510485D01*
X137527412Y-93912610D01*
X137280850Y-93747863D01*
X136990011Y-93690011D01*
X126128402Y-93690011D01*
X123309991Y-90871599D01*
X123309991Y-86914811D01*
X130537401Y-79687401D01*
X130630920Y-79547440D01*
X130900000Y-79547440D01*
X131135317Y-79503162D01*
X131351441Y-79364090D01*
X131496431Y-79151890D01*
X131500567Y-79131466D01*
X131669357Y-79300551D01*
X132233330Y-79534733D01*
X132843991Y-79535265D01*
X132970705Y-79482908D01*
X133149160Y-79602147D01*
X133439999Y-79659999D01*
X133938199Y-79659999D01*
X149887101Y-95608901D01*
X149671629Y-95697932D01*
X149503387Y-95865880D01*
X149503162Y-95864683D01*
X149364090Y-95648559D01*
X149151890Y-95503569D01*
X148900000Y-95452560D01*
X147100000Y-95452560D01*
X146864683Y-95496838D01*
X146648559Y-95635910D01*
X146612900Y-95688098D01*
X141417402Y-90492600D01*
X141300641Y-90414583D01*
X141434728Y-90091664D01*
X141435270Y-89471058D01*
X141198275Y-88897486D01*
X140759823Y-88458268D01*
X140186664Y-88220272D01*
X139566058Y-88219730D01*
X138992486Y-88456725D01*
X138553268Y-88895177D01*
X138387152Y-89295228D01*
X138198390Y-89106136D01*
X138004978Y-89025824D01*
X138005183Y-88791068D01*
X137844907Y-88403171D01*
X137548390Y-88106136D01*
X137160773Y-87945183D01*
X136741068Y-87944817D01*
X136353171Y-88105093D01*
X136300168Y-88158004D01*
X136248390Y-88106136D01*
X135860773Y-87945183D01*
X135441068Y-87944817D01*
X135053171Y-88105093D01*
X134756136Y-88401610D01*
X134595183Y-88789227D01*
X134595047Y-88945000D01*
X134453691Y-88945000D01*
X134220302Y-89041673D01*
X134140730Y-89121244D01*
X134048275Y-88897486D01*
X133609823Y-88458268D01*
X133036664Y-88220272D01*
X132416058Y-88219730D01*
X131842486Y-88456725D01*
X131403268Y-88895177D01*
X131165272Y-89468336D01*
X131164730Y-90088942D01*
X131239542Y-90270001D01*
X129884803Y-90270001D01*
X129029766Y-89414964D01*
X129074733Y-89306670D01*
X129075265Y-88696009D01*
X128842068Y-88131629D01*
X128410643Y-87699449D01*
X127846670Y-87465267D01*
X127236009Y-87464735D01*
X126671629Y-87697932D01*
X126503387Y-87865880D01*
X126503162Y-87864683D01*
X126364090Y-87648559D01*
X126151890Y-87503569D01*
X125900000Y-87452560D01*
X124100000Y-87452560D01*
X123864683Y-87496838D01*
X123648559Y-87635910D01*
X123503569Y-87848110D01*
X123452560Y-88100000D01*
X123452560Y-89900000D01*
X123496838Y-90135317D01*
X123635910Y-90351441D01*
X123848110Y-90496431D01*
X124100000Y-90547440D01*
X125900000Y-90547440D01*
X126135317Y-90503162D01*
X126351441Y-90364090D01*
X126496431Y-90151890D01*
X126500567Y-90131466D01*
X126669357Y-90300551D01*
X127233330Y-90534733D01*
X127843991Y-90535265D01*
X127954713Y-90489515D01*
X129032600Y-91567402D01*
X129279162Y-91732149D01*
X129570001Y-91790001D01*
X140565199Y-91790001D01*
X146312599Y-97537401D01*
X146452560Y-97630920D01*
X146452560Y-97900000D01*
X146496838Y-98135317D01*
X146635910Y-98351441D01*
X146848110Y-98496431D01*
X147100000Y-98547440D01*
X147917758Y-98547440D01*
X140813274Y-105651924D01*
X130018284Y-105651924D01*
X129923251Y-105484970D01*
X129481139Y-105141407D01*
X129430866Y-105116231D01*
X128890931Y-104968010D01*
X128335376Y-105037695D01*
X127848776Y-105314676D01*
X127505213Y-105756788D01*
X127356992Y-106296723D01*
X127426677Y-106852278D01*
X127703658Y-107338878D01*
X128145770Y-107682441D01*
X128196044Y-107707616D01*
X128735978Y-107855838D01*
X129291534Y-107786153D01*
X129778133Y-107509171D01*
X130040206Y-107171924D01*
X130797215Y-107171924D01*
X130572238Y-107680324D01*
X130541239Y-108112768D01*
X130728114Y-108289258D01*
X131355902Y-108080420D01*
X132160595Y-108080420D01*
X132530272Y-109191711D01*
X132783536Y-109235626D01*
X133196746Y-108841724D01*
X133427762Y-108319676D01*
X133458761Y-107887232D01*
X133271886Y-107710742D01*
X132160595Y-108080420D01*
X131355902Y-108080420D01*
X131764792Y-107944400D01*
X131806251Y-107985859D01*
X131985859Y-107806251D01*
X131709909Y-107530301D01*
X131590693Y-107171924D01*
X131858378Y-107171924D01*
X132055600Y-107764792D01*
X132014141Y-107806251D01*
X132193749Y-107985859D01*
X132469699Y-107709909D01*
X133191711Y-107469728D01*
X133235626Y-107216464D01*
X133193167Y-107171924D01*
X141128076Y-107171924D01*
X141418915Y-107114072D01*
X141665477Y-106949325D01*
X150125036Y-98489766D01*
X150233330Y-98534733D01*
X150843991Y-98535265D01*
X151005001Y-98468737D01*
X151005001Y-99276946D01*
X139852195Y-110429752D01*
X139481139Y-110141407D01*
X139430866Y-110116231D01*
X138890931Y-109968010D01*
X138335376Y-110037695D01*
X137848776Y-110314676D01*
X137505213Y-110756788D01*
X137356992Y-111296723D01*
X137426677Y-111852278D01*
X137703658Y-112338878D01*
X138145770Y-112682441D01*
X138196044Y-112707616D01*
X138735978Y-112855838D01*
X139291534Y-112786153D01*
X139778133Y-112509171D01*
X140057645Y-112149482D01*
X140235664Y-112114072D01*
X140482226Y-111949325D01*
X140703437Y-111728114D01*
X141710742Y-111728114D01*
X142080420Y-112839405D01*
X143191711Y-112469728D01*
X143235626Y-112216464D01*
X142841724Y-111803254D01*
X142319676Y-111572238D01*
X141887232Y-111541239D01*
X141710742Y-111728114D01*
X140703437Y-111728114D01*
X152302402Y-100129149D01*
X152467149Y-99882588D01*
X152525001Y-99591748D01*
X152525001Y-96411999D01*
X152467149Y-96121160D01*
X152302402Y-95874598D01*
X141943565Y-85515761D01*
X142100000Y-85547440D01*
X143900000Y-85547440D01*
X144135317Y-85503162D01*
X144351441Y-85364090D01*
X144496431Y-85151890D01*
X144500567Y-85131466D01*
X144669357Y-85300551D01*
X145233330Y-85534733D01*
X145843991Y-85535265D01*
X146408371Y-85302068D01*
X146840551Y-84870643D01*
X147074733Y-84306670D01*
X147075265Y-83696009D01*
X146842068Y-83131629D01*
X146410643Y-82699449D01*
X145846670Y-82465267D01*
X145236009Y-82464735D01*
X145125287Y-82510485D01*
X143573455Y-80958653D01*
X143573455Y-74783536D01*
X144764374Y-74783536D01*
X145158276Y-75196746D01*
X145680324Y-75427762D01*
X146112768Y-75458761D01*
X146289258Y-75271886D01*
X145919580Y-74160595D01*
X144808289Y-74530272D01*
X144764374Y-74783536D01*
X143573455Y-74783536D01*
X143573455Y-74112768D01*
X144541239Y-74112768D01*
X144728114Y-74289258D01*
X145355903Y-74080420D01*
X146160595Y-74080420D01*
X146530272Y-75191711D01*
X146783536Y-75235626D01*
X147196746Y-74841724D01*
X147427762Y-74319676D01*
X147458761Y-73887232D01*
X147271886Y-73710742D01*
X146160595Y-74080420D01*
X145355903Y-74080420D01*
X145839405Y-73919580D01*
X145469728Y-72808289D01*
X145216464Y-72764374D01*
X144803254Y-73158276D01*
X144572238Y-73680324D01*
X144541239Y-74112768D01*
X143573455Y-74112768D01*
X143573455Y-73625678D01*
X143778133Y-73509171D01*
X144121696Y-73067059D01*
X144214742Y-72728114D01*
X145710742Y-72728114D01*
X146080420Y-73839405D01*
X147191711Y-73469728D01*
X147235626Y-73216464D01*
X146841724Y-72803254D01*
X146319676Y-72572238D01*
X145887232Y-72541239D01*
X145710742Y-72728114D01*
X144214742Y-72728114D01*
X144269918Y-72527125D01*
X144200233Y-71971570D01*
X143923251Y-71484970D01*
X143481139Y-71141407D01*
X143430866Y-71116231D01*
X142890931Y-70968010D01*
X142335376Y-71037695D01*
X141848776Y-71314676D01*
X141505213Y-71756788D01*
X141356992Y-72296723D01*
X141426677Y-72852278D01*
X141703658Y-73338878D01*
X142053455Y-73610703D01*
X142053455Y-81273455D01*
X142111307Y-81564294D01*
X142276054Y-81810856D01*
X142917758Y-82452560D01*
X142100000Y-82452560D01*
X141864683Y-82496838D01*
X141648559Y-82635910D01*
X141612900Y-82688098D01*
X135162400Y-76237598D01*
X134915838Y-76072851D01*
X134624999Y-76014999D01*
X121765001Y-76014999D01*
X121474161Y-76072851D01*
X121227600Y-76237598D01*
X120954964Y-76510234D01*
X120846670Y-76465267D01*
X120236009Y-76464735D01*
X119671629Y-76697932D01*
X119503387Y-76865880D01*
X119503162Y-76864683D01*
X119364090Y-76648559D01*
X119151890Y-76503569D01*
X118900000Y-76452560D01*
X117100000Y-76452560D01*
X116864683Y-76496838D01*
X116648559Y-76635910D01*
X116503569Y-76848110D01*
X116452560Y-77100000D01*
X114453313Y-77100000D01*
X119330955Y-69783536D01*
X134764374Y-69783536D01*
X135158276Y-70196746D01*
X135680324Y-70427762D01*
X136112768Y-70458761D01*
X136289258Y-70271886D01*
X135919580Y-69160595D01*
X134808289Y-69530272D01*
X134764374Y-69783536D01*
X119330955Y-69783536D01*
X122664289Y-64783536D01*
X124764374Y-64783536D01*
X125158276Y-65196746D01*
X125680324Y-65427762D01*
X126112768Y-65458761D01*
X126289258Y-65271886D01*
X125919580Y-64160595D01*
X124808289Y-64530272D01*
X124764374Y-64783536D01*
X122664289Y-64783536D01*
X123111468Y-64112768D01*
X124541239Y-64112768D01*
X124728114Y-64289258D01*
X125839405Y-63919580D01*
X125469728Y-62808289D01*
X125216464Y-62764374D01*
X124803254Y-63158276D01*
X124572238Y-63680324D01*
X124541239Y-64112768D01*
X123111468Y-64112768D01*
X125590756Y-60393837D01*
X125617309Y-60329541D01*
X125655954Y-60271705D01*
X125669668Y-60202760D01*
X125696502Y-60137785D01*
X125696429Y-60068223D01*
X125710000Y-60000000D01*
X125696286Y-59931057D01*
X125696213Y-59860757D01*
X125669524Y-59796515D01*
X125655954Y-59728295D01*
X125616900Y-59669846D01*
X125589930Y-59604928D01*
X125540693Y-59555794D01*
X125502046Y-59497954D01*
X125443596Y-59458899D01*
X125393837Y-59409244D01*
X125329541Y-59382690D01*
X125271705Y-59344046D01*
X125202762Y-59330332D01*
X125137786Y-59303498D01*
X125068223Y-59303571D01*
X125000000Y-59290000D01*
X116326647Y-59290000D01*
X132631660Y-34832481D01*
X132365458Y-35473567D01*
X132365458Y-35473567D01*
G37*
X132365458Y-35473567D02*
X132364543Y-36521834D01*
X132764853Y-37490658D01*
X133505443Y-38232542D01*
X134473567Y-38634542D01*
X135521834Y-38635457D01*
X136490658Y-38235147D01*
X137232542Y-37494557D01*
X137634542Y-36526433D01*
X137635457Y-35478166D01*
X137369196Y-34833765D01*
X153673353Y-59290000D01*
X145000000Y-59290000D01*
X144931777Y-59303571D01*
X144862214Y-59303498D01*
X144797238Y-59330332D01*
X144728295Y-59344046D01*
X144670459Y-59382690D01*
X144606163Y-59409244D01*
X144556404Y-59458899D01*
X144497954Y-59497954D01*
X144459307Y-59555794D01*
X144410070Y-59604928D01*
X144383100Y-59669846D01*
X144344046Y-59728295D01*
X144330476Y-59796515D01*
X144303787Y-59860757D01*
X144303714Y-59931057D01*
X144290000Y-60000000D01*
X144303571Y-60068223D01*
X144303498Y-60137786D01*
X144330332Y-60202762D01*
X144344046Y-60271705D01*
X144382690Y-60329541D01*
X144409244Y-60393837D01*
X146290454Y-63215652D01*
X142760000Y-59685198D01*
X142760000Y-50646998D01*
X142702148Y-50356159D01*
X142537401Y-50109597D01*
X135890403Y-43462599D01*
X135643841Y-43297852D01*
X135353002Y-43240000D01*
X132886846Y-43240000D01*
X132842068Y-43131629D01*
X132410643Y-42699449D01*
X131846670Y-42465267D01*
X131236009Y-42464735D01*
X130671629Y-42697932D01*
X130503387Y-42865880D01*
X130503162Y-42864683D01*
X130364090Y-42648559D01*
X130151890Y-42503569D01*
X129900000Y-42452560D01*
X128100000Y-42452560D01*
X127864683Y-42496838D01*
X127648559Y-42635910D01*
X127503569Y-42848110D01*
X127452560Y-43100000D01*
X127452560Y-44900000D01*
X127496838Y-45135317D01*
X127635910Y-45351441D01*
X127688098Y-45387100D01*
X126237598Y-46837600D01*
X126072851Y-47084162D01*
X126014999Y-47375001D01*
X126014999Y-62550398D01*
X125887232Y-62541239D01*
X125710742Y-62728114D01*
X126055600Y-63764792D01*
X126014141Y-63806251D01*
X126193749Y-63985859D01*
X126384904Y-63794704D01*
X126543308Y-63953108D01*
X126160595Y-64080420D01*
X126530272Y-65191711D01*
X126783536Y-65235626D01*
X127196746Y-64841724D01*
X127268891Y-64678691D01*
X131664526Y-69074326D01*
X131911087Y-69239073D01*
X132201927Y-69296925D01*
X134798073Y-69296925D01*
X135088912Y-69239073D01*
X135297057Y-69099996D01*
X135355904Y-69080420D01*
X136160595Y-69080420D01*
X136530272Y-70191711D01*
X136783536Y-70235626D01*
X137196746Y-69841724D01*
X137427762Y-69319676D01*
X137458761Y-68887232D01*
X137271886Y-68710742D01*
X136160595Y-69080420D01*
X135355904Y-69080420D01*
X135764792Y-68944400D01*
X135806251Y-68985859D01*
X135985859Y-68806251D01*
X135794704Y-68615096D01*
X135953108Y-68456692D01*
X136080420Y-68839405D01*
X137191711Y-68469728D01*
X137235626Y-68216464D01*
X136841724Y-67803254D01*
X136678691Y-67731109D01*
X138377008Y-66032792D01*
X141267208Y-66032792D01*
X141558047Y-65974940D01*
X141804609Y-65810193D01*
X142125036Y-65489766D01*
X142233330Y-65534733D01*
X142843991Y-65535265D01*
X143408371Y-65302068D01*
X143840551Y-64870643D01*
X144074733Y-64306670D01*
X144075265Y-63696009D01*
X143842068Y-63131629D01*
X143410643Y-62699449D01*
X142846670Y-62465267D01*
X142236009Y-62464735D01*
X141671629Y-62697932D01*
X141503387Y-62865880D01*
X141503162Y-62864683D01*
X141364090Y-62648559D01*
X141151890Y-62503569D01*
X140900000Y-62452560D01*
X139100000Y-62452560D01*
X138864683Y-62496838D01*
X138648559Y-62635910D01*
X138503569Y-62848110D01*
X138452560Y-63100000D01*
X138452560Y-64512792D01*
X138062206Y-64512792D01*
X137771367Y-64570644D01*
X137524805Y-64735391D01*
X134483271Y-67776925D01*
X134201343Y-67776925D01*
X134269918Y-67527125D01*
X134200233Y-66971570D01*
X133923251Y-66484970D01*
X133573455Y-66213145D01*
X133573455Y-57041347D01*
X139125036Y-51489766D01*
X139233330Y-51534733D01*
X139843991Y-51535265D01*
X140408371Y-51302068D01*
X140840551Y-50870643D01*
X140931005Y-50652805D01*
X141240000Y-50961800D01*
X141240000Y-60000000D01*
X141297852Y-60290839D01*
X141462599Y-60537401D01*
X145240000Y-64314802D01*
X145240000Y-68000000D01*
X145297852Y-68290839D01*
X145462599Y-68537401D01*
X152053455Y-75128257D01*
X152053455Y-76198169D01*
X151848776Y-76314676D01*
X151505213Y-76756788D01*
X151356992Y-77296723D01*
X151426677Y-77852278D01*
X151703658Y-78338878D01*
X152145770Y-78682441D01*
X152196044Y-78707616D01*
X152735978Y-78855838D01*
X153291534Y-78786153D01*
X153778133Y-78509171D01*
X154121696Y-78067059D01*
X154269918Y-77527125D01*
X154200233Y-76971570D01*
X153923251Y-76484970D01*
X153573455Y-76213145D01*
X153573455Y-74813455D01*
X153515603Y-74522616D01*
X153515603Y-74522615D01*
X153350856Y-74276054D01*
X146760000Y-67685198D01*
X146760000Y-64000000D01*
X146737312Y-63885938D01*
X163673353Y-89290000D01*
X155000000Y-89290000D01*
X154931777Y-89303571D01*
X154862214Y-89303498D01*
X154797238Y-89330332D01*
X154728295Y-89344046D01*
X154670459Y-89382690D01*
X154606163Y-89409244D01*
X154556404Y-89458899D01*
X154497954Y-89497954D01*
X154459307Y-89555794D01*
X154410070Y-89604928D01*
X154383100Y-89669846D01*
X154344046Y-89728295D01*
X154330476Y-89796515D01*
X154303787Y-89860757D01*
X154303714Y-89931057D01*
X154290000Y-90000000D01*
X154303571Y-90068223D01*
X154303498Y-90137786D01*
X154330332Y-90202762D01*
X154344046Y-90271705D01*
X154382690Y-90329541D01*
X154409244Y-90393837D01*
X173673353Y-119290000D01*
X140000000Y-119290000D01*
X139728295Y-119344046D01*
X139497954Y-119497954D01*
X139344046Y-119728295D01*
X139315262Y-119873000D01*
X130684738Y-119873000D01*
X130655954Y-119728295D01*
X130502046Y-119497954D01*
X130271705Y-119344046D01*
X130000000Y-119290000D01*
X96326647Y-119290000D01*
X98322165Y-116296723D01*
X147356992Y-116296723D01*
X147426677Y-116852278D01*
X147703658Y-117338878D01*
X148145770Y-117682441D01*
X148196044Y-117707616D01*
X148735978Y-117855838D01*
X149291534Y-117786153D01*
X149778133Y-117509171D01*
X150040206Y-117171924D01*
X163128076Y-117171924D01*
X163418915Y-117114072D01*
X163665477Y-116949325D01*
X165125036Y-115489766D01*
X165233330Y-115534733D01*
X165843991Y-115535265D01*
X166408371Y-115302068D01*
X166840551Y-114870643D01*
X167074733Y-114306670D01*
X167075265Y-113696009D01*
X166842068Y-113131629D01*
X166410643Y-112699449D01*
X165846670Y-112465267D01*
X165236009Y-112464735D01*
X164671629Y-112697932D01*
X164503387Y-112865880D01*
X164503162Y-112864683D01*
X164364090Y-112648559D01*
X164151890Y-112503569D01*
X163900000Y-112452560D01*
X163760000Y-112452560D01*
X163760000Y-111460000D01*
X163702148Y-111169161D01*
X163537401Y-110922599D01*
X159029766Y-106414964D01*
X159074733Y-106306670D01*
X159075265Y-105696009D01*
X158842068Y-105131629D01*
X158410643Y-104699449D01*
X157846670Y-104465267D01*
X157236009Y-104464735D01*
X156671629Y-104697932D01*
X156503387Y-104865880D01*
X156503162Y-104864683D01*
X156364090Y-104648559D01*
X156151890Y-104503569D01*
X155900000Y-104452560D01*
X154100000Y-104452560D01*
X153864683Y-104496838D01*
X153648559Y-104635910D01*
X153503569Y-104848110D01*
X153452560Y-105100000D01*
X153452560Y-106900000D01*
X153496838Y-107135317D01*
X153635910Y-107351441D01*
X153848110Y-107496431D01*
X154100000Y-107547440D01*
X155900000Y-107547440D01*
X156135317Y-107503162D01*
X156351441Y-107364090D01*
X156496431Y-107151890D01*
X156500567Y-107131466D01*
X156669357Y-107300551D01*
X157233330Y-107534733D01*
X157843991Y-107535265D01*
X157954713Y-107489515D01*
X162240000Y-111774802D01*
X162240000Y-112452560D01*
X162100000Y-112452560D01*
X161864683Y-112496838D01*
X161648559Y-112635910D01*
X161503569Y-112848110D01*
X161452560Y-113100000D01*
X161452560Y-114900000D01*
X161496838Y-115135317D01*
X161635910Y-115351441D01*
X161848110Y-115496431D01*
X162100000Y-115547440D01*
X162917758Y-115547440D01*
X162813274Y-115651924D01*
X150018284Y-115651924D01*
X149923251Y-115484970D01*
X149481139Y-115141407D01*
X149430866Y-115116231D01*
X148890931Y-114968010D01*
X148335376Y-115037695D01*
X147848776Y-115314676D01*
X147505213Y-115756788D01*
X147356992Y-116296723D01*
X98322165Y-116296723D01*
X105786647Y-105100000D01*
X109452560Y-105100000D01*
X109452560Y-106900000D01*
X109496838Y-107135317D01*
X109635910Y-107351441D01*
X109848110Y-107496431D01*
X110100000Y-107547440D01*
X111900000Y-107547440D01*
X112135317Y-107503162D01*
X112351441Y-107364090D01*
X112496431Y-107151890D01*
X112500567Y-107131466D01*
X112669357Y-107300551D01*
X113233330Y-107534733D01*
X113843991Y-107535265D01*
X113954713Y-107489515D01*
X120002599Y-113537401D01*
X120249161Y-113702148D01*
X120540000Y-113760000D01*
X121452560Y-113760000D01*
X121452560Y-113900000D01*
X121496838Y-114135317D01*
X121635910Y-114351441D01*
X121848110Y-114496431D01*
X122100000Y-114547440D01*
X123900000Y-114547440D01*
X124135317Y-114503162D01*
X124351441Y-114364090D01*
X124496431Y-114151890D01*
X124500567Y-114131466D01*
X124669357Y-114300551D01*
X125233330Y-114534733D01*
X125843991Y-114535265D01*
X126408371Y-114302068D01*
X126840551Y-113870643D01*
X126876720Y-113783536D01*
X140764374Y-113783536D01*
X141158276Y-114196746D01*
X141680324Y-114427762D01*
X142112768Y-114458761D01*
X142289258Y-114271886D01*
X141919580Y-113160595D01*
X140808289Y-113530272D01*
X140764374Y-113783536D01*
X126876720Y-113783536D01*
X127074733Y-113306670D01*
X127074901Y-113112768D01*
X140541239Y-113112768D01*
X140728114Y-113289258D01*
X141355903Y-113080420D01*
X142160595Y-113080420D01*
X142530272Y-114191711D01*
X142783536Y-114235626D01*
X143196746Y-113841724D01*
X143427762Y-113319676D01*
X143458761Y-112887232D01*
X143271886Y-112710742D01*
X142160595Y-113080420D01*
X141355903Y-113080420D01*
X141839405Y-112919580D01*
X141469728Y-111808289D01*
X141216464Y-111764374D01*
X140803254Y-112158276D01*
X140572238Y-112680324D01*
X140541239Y-113112768D01*
X127074901Y-113112768D01*
X127075265Y-112696009D01*
X126842068Y-112131629D01*
X126410643Y-111699449D01*
X125846670Y-111465267D01*
X125236009Y-111464735D01*
X125125287Y-111510485D01*
X122398338Y-108783536D01*
X130764374Y-108783536D01*
X131158276Y-109196746D01*
X131680324Y-109427762D01*
X132112768Y-109458761D01*
X132289258Y-109271886D01*
X131919580Y-108160595D01*
X130808289Y-108530272D01*
X130764374Y-108783536D01*
X122398338Y-108783536D01*
X119573455Y-105958653D01*
X119573455Y-103783536D01*
X120764374Y-103783536D01*
X121158276Y-104196746D01*
X121680324Y-104427762D01*
X122112768Y-104458761D01*
X122289258Y-104271886D01*
X121919580Y-103160595D01*
X120808289Y-103530272D01*
X120764374Y-103783536D01*
X119573455Y-103783536D01*
X119573455Y-103112768D01*
X120541239Y-103112768D01*
X120728114Y-103289258D01*
X121355903Y-103080420D01*
X122160595Y-103080420D01*
X122530272Y-104191711D01*
X122783536Y-104235626D01*
X123196746Y-103841724D01*
X123427762Y-103319676D01*
X123458761Y-102887232D01*
X123271886Y-102710742D01*
X122160595Y-103080420D01*
X121355903Y-103080420D01*
X121839405Y-102919580D01*
X121469728Y-101808289D01*
X121216464Y-101764374D01*
X120803254Y-102158276D01*
X120572238Y-102680324D01*
X120541239Y-103112768D01*
X119573455Y-103112768D01*
X119573455Y-102625678D01*
X119778133Y-102509171D01*
X120121696Y-102067059D01*
X120214742Y-101728114D01*
X121710742Y-101728114D01*
X122080420Y-102839405D01*
X123191711Y-102469728D01*
X123235626Y-102216464D01*
X122841724Y-101803254D01*
X122319676Y-101572238D01*
X121887232Y-101541239D01*
X121710742Y-101728114D01*
X120214742Y-101728114D01*
X120269918Y-101527125D01*
X120200233Y-100971570D01*
X119923251Y-100484970D01*
X119481139Y-100141407D01*
X119430866Y-100116231D01*
X118890931Y-99968010D01*
X118335376Y-100037695D01*
X117848776Y-100314676D01*
X117505213Y-100756788D01*
X117356992Y-101296723D01*
X117426677Y-101852278D01*
X117703658Y-102338878D01*
X118053455Y-102610703D01*
X118053455Y-106273455D01*
X118111307Y-106564294D01*
X118276054Y-106810856D01*
X122917758Y-111452560D01*
X122100000Y-111452560D01*
X121864683Y-111496838D01*
X121648559Y-111635910D01*
X121503569Y-111848110D01*
X121452560Y-112100000D01*
X121452560Y-112240000D01*
X120854802Y-112240000D01*
X115029766Y-106414964D01*
X115074733Y-106306670D01*
X115075265Y-105696009D01*
X114842068Y-105131629D01*
X114410643Y-104699449D01*
X113846670Y-104465267D01*
X113236009Y-104464735D01*
X112671629Y-104697932D01*
X112503387Y-104865880D01*
X112503162Y-104864683D01*
X112364090Y-104648559D01*
X112151890Y-104503569D01*
X111900000Y-104452560D01*
X110100000Y-104452560D01*
X109864683Y-104496838D01*
X109648559Y-104635910D01*
X109503569Y-104848110D01*
X109452560Y-105100000D01*
X105786647Y-105100000D01*
X109997623Y-98783536D01*
X110764374Y-98783536D01*
X111158276Y-99196746D01*
X111680324Y-99427762D01*
X112112768Y-99458761D01*
X112289258Y-99271886D01*
X111919580Y-98160595D01*
X110808289Y-98530272D01*
X110764374Y-98783536D01*
X109997623Y-98783536D01*
X110552858Y-97950684D01*
X110541239Y-98112768D01*
X110728114Y-98289258D01*
X111355902Y-98080420D01*
X112160595Y-98080420D01*
X112530272Y-99191711D01*
X112783536Y-99235626D01*
X113196746Y-98841724D01*
X113427762Y-98319676D01*
X113458761Y-97887232D01*
X113271886Y-97710742D01*
X112160595Y-98080420D01*
X111355902Y-98080420D01*
X111764792Y-97944400D01*
X111806251Y-97985859D01*
X111985859Y-97806251D01*
X111709909Y-97530301D01*
X111469728Y-96808289D01*
X111330544Y-96784155D01*
X111367904Y-96728114D01*
X111710742Y-96728114D01*
X112080420Y-97839405D01*
X113191711Y-97469728D01*
X113235626Y-97216464D01*
X112841724Y-96803254D01*
X112319676Y-96572238D01*
X111887232Y-96541239D01*
X111710742Y-96728114D01*
X111367904Y-96728114D01*
X115590756Y-90393837D01*
X115617309Y-90329541D01*
X115655954Y-90271705D01*
X115669668Y-90202760D01*
X115696502Y-90137785D01*
X115696429Y-90068223D01*
X115710000Y-90000000D01*
X115696286Y-89931057D01*
X115696213Y-89860757D01*
X115669524Y-89796515D01*
X115655954Y-89728295D01*
X115616900Y-89669846D01*
X115589930Y-89604928D01*
X115540693Y-89555794D01*
X115502046Y-89497954D01*
X115443596Y-89458899D01*
X115393837Y-89409244D01*
X115329541Y-89382690D01*
X115271705Y-89344046D01*
X115202762Y-89330332D01*
X115137786Y-89303498D01*
X115068223Y-89303571D01*
X115000000Y-89290000D01*
X106326647Y-89290000D01*
X114453313Y-77100000D01*
X116452560Y-77100000D01*
X116452560Y-78900000D01*
X116496838Y-79135317D01*
X116635910Y-79351441D01*
X116848110Y-79496431D01*
X117100000Y-79547440D01*
X118900000Y-79547440D01*
X119135317Y-79503162D01*
X119351441Y-79364090D01*
X119496431Y-79151890D01*
X119500567Y-79131466D01*
X119669357Y-79300551D01*
X120233330Y-79534733D01*
X120843991Y-79535265D01*
X121408371Y-79302068D01*
X121840551Y-78870643D01*
X122074733Y-78306670D01*
X122075265Y-77696009D01*
X122029515Y-77585287D01*
X122079803Y-77534999D01*
X128452560Y-77534999D01*
X128452560Y-78900000D01*
X128496838Y-79135317D01*
X128635910Y-79351441D01*
X128688098Y-79387100D01*
X122012590Y-86062608D01*
X121847843Y-86309170D01*
X121789991Y-86600009D01*
X121789991Y-91186401D01*
X121847843Y-91477240D01*
X122012590Y-91723802D01*
X125276199Y-94987412D01*
X125522761Y-95152159D01*
X125813600Y-95210011D01*
X136675209Y-95210011D01*
X136917758Y-95452560D01*
X136100000Y-95452560D01*
X135864683Y-95496838D01*
X135648559Y-95635910D01*
X135503569Y-95848110D01*
X135452560Y-96100000D01*
X135452560Y-97900000D01*
X135496838Y-98135317D01*
X135635910Y-98351441D01*
X135848110Y-98496431D01*
X136100000Y-98547440D01*
X137900000Y-98547440D01*
X138135317Y-98503162D01*
X138351441Y-98364090D01*
X138496431Y-98151890D01*
X138500567Y-98131466D01*
X138669357Y-98300551D01*
X139233330Y-98534733D01*
X139843991Y-98535265D01*
X140408371Y-98302068D01*
X140840551Y-97870643D01*
X141074733Y-97306670D01*
X141075265Y-96696009D01*
X140842068Y-96131629D01*
X140410643Y-95699449D01*
X139846670Y-95465267D01*
X139236009Y-95464735D01*
X139125287Y-95510485D01*
X137527412Y-93912610D01*
X137280850Y-93747863D01*
X136990011Y-93690011D01*
X126128402Y-93690011D01*
X123309991Y-90871599D01*
X123309991Y-86914811D01*
X130537401Y-79687401D01*
X130630920Y-79547440D01*
X130900000Y-79547440D01*
X131135317Y-79503162D01*
X131351441Y-79364090D01*
X131496431Y-79151890D01*
X131500567Y-79131466D01*
X131669357Y-79300551D01*
X132233330Y-79534733D01*
X132843991Y-79535265D01*
X132970705Y-79482908D01*
X133149160Y-79602147D01*
X133439999Y-79659999D01*
X133938199Y-79659999D01*
X149887101Y-95608901D01*
X149671629Y-95697932D01*
X149503387Y-95865880D01*
X149503162Y-95864683D01*
X149364090Y-95648559D01*
X149151890Y-95503569D01*
X148900000Y-95452560D01*
X147100000Y-95452560D01*
X146864683Y-95496838D01*
X146648559Y-95635910D01*
X146612900Y-95688098D01*
X141417402Y-90492600D01*
X141300641Y-90414583D01*
X141434728Y-90091664D01*
X141435270Y-89471058D01*
X141198275Y-88897486D01*
X140759823Y-88458268D01*
X140186664Y-88220272D01*
X139566058Y-88219730D01*
X138992486Y-88456725D01*
X138553268Y-88895177D01*
X138387152Y-89295228D01*
X138198390Y-89106136D01*
X138004978Y-89025824D01*
X138005183Y-88791068D01*
X137844907Y-88403171D01*
X137548390Y-88106136D01*
X137160773Y-87945183D01*
X136741068Y-87944817D01*
X136353171Y-88105093D01*
X136300168Y-88158004D01*
X136248390Y-88106136D01*
X135860773Y-87945183D01*
X135441068Y-87944817D01*
X135053171Y-88105093D01*
X134756136Y-88401610D01*
X134595183Y-88789227D01*
X134595047Y-88945000D01*
X134453691Y-88945000D01*
X134220302Y-89041673D01*
X134140730Y-89121244D01*
X134048275Y-88897486D01*
X133609823Y-88458268D01*
X133036664Y-88220272D01*
X132416058Y-88219730D01*
X131842486Y-88456725D01*
X131403268Y-88895177D01*
X131165272Y-89468336D01*
X131164730Y-90088942D01*
X131239542Y-90270001D01*
X129884803Y-90270001D01*
X129029766Y-89414964D01*
X129074733Y-89306670D01*
X129075265Y-88696009D01*
X128842068Y-88131629D01*
X128410643Y-87699449D01*
X127846670Y-87465267D01*
X127236009Y-87464735D01*
X126671629Y-87697932D01*
X126503387Y-87865880D01*
X126503162Y-87864683D01*
X126364090Y-87648559D01*
X126151890Y-87503569D01*
X125900000Y-87452560D01*
X124100000Y-87452560D01*
X123864683Y-87496838D01*
X123648559Y-87635910D01*
X123503569Y-87848110D01*
X123452560Y-88100000D01*
X123452560Y-89900000D01*
X123496838Y-90135317D01*
X123635910Y-90351441D01*
X123848110Y-90496431D01*
X124100000Y-90547440D01*
X125900000Y-90547440D01*
X126135317Y-90503162D01*
X126351441Y-90364090D01*
X126496431Y-90151890D01*
X126500567Y-90131466D01*
X126669357Y-90300551D01*
X127233330Y-90534733D01*
X127843991Y-90535265D01*
X127954713Y-90489515D01*
X129032600Y-91567402D01*
X129279162Y-91732149D01*
X129570001Y-91790001D01*
X140565199Y-91790001D01*
X146312599Y-97537401D01*
X146452560Y-97630920D01*
X146452560Y-97900000D01*
X146496838Y-98135317D01*
X146635910Y-98351441D01*
X146848110Y-98496431D01*
X147100000Y-98547440D01*
X147917758Y-98547440D01*
X140813274Y-105651924D01*
X130018284Y-105651924D01*
X129923251Y-105484970D01*
X129481139Y-105141407D01*
X129430866Y-105116231D01*
X128890931Y-104968010D01*
X128335376Y-105037695D01*
X127848776Y-105314676D01*
X127505213Y-105756788D01*
X127356992Y-106296723D01*
X127426677Y-106852278D01*
X127703658Y-107338878D01*
X128145770Y-107682441D01*
X128196044Y-107707616D01*
X128735978Y-107855838D01*
X129291534Y-107786153D01*
X129778133Y-107509171D01*
X130040206Y-107171924D01*
X130797215Y-107171924D01*
X130572238Y-107680324D01*
X130541239Y-108112768D01*
X130728114Y-108289258D01*
X131355902Y-108080420D01*
X132160595Y-108080420D01*
X132530272Y-109191711D01*
X132783536Y-109235626D01*
X133196746Y-108841724D01*
X133427762Y-108319676D01*
X133458761Y-107887232D01*
X133271886Y-107710742D01*
X132160595Y-108080420D01*
X131355902Y-108080420D01*
X131764792Y-107944400D01*
X131806251Y-107985859D01*
X131985859Y-107806251D01*
X131709909Y-107530301D01*
X131590693Y-107171924D01*
X131858378Y-107171924D01*
X132055600Y-107764792D01*
X132014141Y-107806251D01*
X132193749Y-107985859D01*
X132469699Y-107709909D01*
X133191711Y-107469728D01*
X133235626Y-107216464D01*
X133193167Y-107171924D01*
X141128076Y-107171924D01*
X141418915Y-107114072D01*
X141665477Y-106949325D01*
X150125036Y-98489766D01*
X150233330Y-98534733D01*
X150843991Y-98535265D01*
X151005001Y-98468737D01*
X151005001Y-99276946D01*
X139852195Y-110429752D01*
X139481139Y-110141407D01*
X139430866Y-110116231D01*
X138890931Y-109968010D01*
X138335376Y-110037695D01*
X137848776Y-110314676D01*
X137505213Y-110756788D01*
X137356992Y-111296723D01*
X137426677Y-111852278D01*
X137703658Y-112338878D01*
X138145770Y-112682441D01*
X138196044Y-112707616D01*
X138735978Y-112855838D01*
X139291534Y-112786153D01*
X139778133Y-112509171D01*
X140057645Y-112149482D01*
X140235664Y-112114072D01*
X140482226Y-111949325D01*
X140703437Y-111728114D01*
X141710742Y-111728114D01*
X142080420Y-112839405D01*
X143191711Y-112469728D01*
X143235626Y-112216464D01*
X142841724Y-111803254D01*
X142319676Y-111572238D01*
X141887232Y-111541239D01*
X141710742Y-111728114D01*
X140703437Y-111728114D01*
X152302402Y-100129149D01*
X152467149Y-99882588D01*
X152525001Y-99591748D01*
X152525001Y-96411999D01*
X152467149Y-96121160D01*
X152302402Y-95874598D01*
X141943565Y-85515761D01*
X142100000Y-85547440D01*
X143900000Y-85547440D01*
X144135317Y-85503162D01*
X144351441Y-85364090D01*
X144496431Y-85151890D01*
X144500567Y-85131466D01*
X144669357Y-85300551D01*
X145233330Y-85534733D01*
X145843991Y-85535265D01*
X146408371Y-85302068D01*
X146840551Y-84870643D01*
X147074733Y-84306670D01*
X147075265Y-83696009D01*
X146842068Y-83131629D01*
X146410643Y-82699449D01*
X145846670Y-82465267D01*
X145236009Y-82464735D01*
X145125287Y-82510485D01*
X143573455Y-80958653D01*
X143573455Y-74783536D01*
X144764374Y-74783536D01*
X145158276Y-75196746D01*
X145680324Y-75427762D01*
X146112768Y-75458761D01*
X146289258Y-75271886D01*
X145919580Y-74160595D01*
X144808289Y-74530272D01*
X144764374Y-74783536D01*
X143573455Y-74783536D01*
X143573455Y-74112768D01*
X144541239Y-74112768D01*
X144728114Y-74289258D01*
X145355903Y-74080420D01*
X146160595Y-74080420D01*
X146530272Y-75191711D01*
X146783536Y-75235626D01*
X147196746Y-74841724D01*
X147427762Y-74319676D01*
X147458761Y-73887232D01*
X147271886Y-73710742D01*
X146160595Y-74080420D01*
X145355903Y-74080420D01*
X145839405Y-73919580D01*
X145469728Y-72808289D01*
X145216464Y-72764374D01*
X144803254Y-73158276D01*
X144572238Y-73680324D01*
X144541239Y-74112768D01*
X143573455Y-74112768D01*
X143573455Y-73625678D01*
X143778133Y-73509171D01*
X144121696Y-73067059D01*
X144214742Y-72728114D01*
X145710742Y-72728114D01*
X146080420Y-73839405D01*
X147191711Y-73469728D01*
X147235626Y-73216464D01*
X146841724Y-72803254D01*
X146319676Y-72572238D01*
X145887232Y-72541239D01*
X145710742Y-72728114D01*
X144214742Y-72728114D01*
X144269918Y-72527125D01*
X144200233Y-71971570D01*
X143923251Y-71484970D01*
X143481139Y-71141407D01*
X143430866Y-71116231D01*
X142890931Y-70968010D01*
X142335376Y-71037695D01*
X141848776Y-71314676D01*
X141505213Y-71756788D01*
X141356992Y-72296723D01*
X141426677Y-72852278D01*
X141703658Y-73338878D01*
X142053455Y-73610703D01*
X142053455Y-81273455D01*
X142111307Y-81564294D01*
X142276054Y-81810856D01*
X142917758Y-82452560D01*
X142100000Y-82452560D01*
X141864683Y-82496838D01*
X141648559Y-82635910D01*
X141612900Y-82688098D01*
X135162400Y-76237598D01*
X134915838Y-76072851D01*
X134624999Y-76014999D01*
X121765001Y-76014999D01*
X121474161Y-76072851D01*
X121227600Y-76237598D01*
X120954964Y-76510234D01*
X120846670Y-76465267D01*
X120236009Y-76464735D01*
X119671629Y-76697932D01*
X119503387Y-76865880D01*
X119503162Y-76864683D01*
X119364090Y-76648559D01*
X119151890Y-76503569D01*
X118900000Y-76452560D01*
X117100000Y-76452560D01*
X116864683Y-76496838D01*
X116648559Y-76635910D01*
X116503569Y-76848110D01*
X116452560Y-77100000D01*
X114453313Y-77100000D01*
X119330955Y-69783536D01*
X134764374Y-69783536D01*
X135158276Y-70196746D01*
X135680324Y-70427762D01*
X136112768Y-70458761D01*
X136289258Y-70271886D01*
X135919580Y-69160595D01*
X134808289Y-69530272D01*
X134764374Y-69783536D01*
X119330955Y-69783536D01*
X122664289Y-64783536D01*
X124764374Y-64783536D01*
X125158276Y-65196746D01*
X125680324Y-65427762D01*
X126112768Y-65458761D01*
X126289258Y-65271886D01*
X125919580Y-64160595D01*
X124808289Y-64530272D01*
X124764374Y-64783536D01*
X122664289Y-64783536D01*
X123111468Y-64112768D01*
X124541239Y-64112768D01*
X124728114Y-64289258D01*
X125839405Y-63919580D01*
X125469728Y-62808289D01*
X125216464Y-62764374D01*
X124803254Y-63158276D01*
X124572238Y-63680324D01*
X124541239Y-64112768D01*
X123111468Y-64112768D01*
X125590756Y-60393837D01*
X125617309Y-60329541D01*
X125655954Y-60271705D01*
X125669668Y-60202760D01*
X125696502Y-60137785D01*
X125696429Y-60068223D01*
X125710000Y-60000000D01*
X125696286Y-59931057D01*
X125696213Y-59860757D01*
X125669524Y-59796515D01*
X125655954Y-59728295D01*
X125616900Y-59669846D01*
X125589930Y-59604928D01*
X125540693Y-59555794D01*
X125502046Y-59497954D01*
X125443596Y-59458899D01*
X125393837Y-59409244D01*
X125329541Y-59382690D01*
X125271705Y-59344046D01*
X125202762Y-59330332D01*
X125137786Y-59303498D01*
X125068223Y-59303571D01*
X125000000Y-59290000D01*
X116326647Y-59290000D01*
X132631660Y-34832481D01*
X132365458Y-35473567D01*
G36*
X135051610Y-89893864D02*
X135147000Y-89933474D01*
X135147000Y-90127000D01*
X135127000Y-90127000D01*
X135127000Y-90147000D01*
X134873000Y-90147000D01*
X134873000Y-90127000D01*
X134853000Y-90127000D01*
X134853000Y-89873000D01*
X134873000Y-89873000D01*
X134873000Y-89853000D01*
X135010817Y-89853000D01*
X135051610Y-89893864D01*
X135051610Y-89893864D01*
G37*
X135051610Y-89893864D02*
X135147000Y-89933474D01*
X135147000Y-90127000D01*
X135127000Y-90127000D01*
X135127000Y-90147000D01*
X134873000Y-90147000D01*
X134873000Y-90127000D01*
X134853000Y-90127000D01*
X134853000Y-89873000D01*
X134873000Y-89873000D01*
X134873000Y-89853000D01*
X135010817Y-89853000D01*
X135051610Y-89893864D01*
M02*
