G04 #@! TF.FileFunction,Copper,L1,Top,Signal*
%FSLAX46Y46*%
G04 Gerber Fmt 4.6, Leading zero omitted, Abs format (unit mm)*
G04 Created by KiCad (PCBNEW 4.0.7) date Saturday, October 28, 2017 'PMt' 12:18:59 PM*
%MOMM*%
%LPD*%
G01*
G04 APERTURE LIST*
%ADD10C,0.100000*%
%ADD11R,1.800000X1.800000*%
%ADD12C,1.800000*%
%ADD13C,1.400000*%
%ADD14C,1.400000*%
%ADD15R,0.840000X0.840000*%
%ADD16C,0.840000*%
%ADD17C,1.850000*%
%ADD18C,0.254000*%
G04 APERTURE END LIST*
D10*
D11*
X131000000Y-41000000D03*
D12*
X133540000Y-41000000D03*
D11*
X140000000Y-64000000D03*
D12*
X142540000Y-64000000D03*
D11*
X148000000Y-74000000D03*
D12*
X150540000Y-74000000D03*
D11*
X118000000Y-78000000D03*
D12*
X120540000Y-78000000D03*
D11*
X135000000Y-53000000D03*
D12*
X137540000Y-53000000D03*
D11*
X128000000Y-57000000D03*
D12*
X130540000Y-57000000D03*
D11*
X163000000Y-114000000D03*
D12*
X165540000Y-114000000D03*
D11*
X155000000Y-106000000D03*
D12*
X157540000Y-106000000D03*
D11*
X131000000Y-66000000D03*
D12*
X133540000Y-66000000D03*
D11*
X137000000Y-97000000D03*
D12*
X139540000Y-97000000D03*
D11*
X148000000Y-97000000D03*
D12*
X150540000Y-97000000D03*
D11*
X125000000Y-89000000D03*
D12*
X127540000Y-89000000D03*
D11*
X123000000Y-113000000D03*
D12*
X125540000Y-113000000D03*
D11*
X111000000Y-106000000D03*
D12*
X113540000Y-106000000D03*
D13*
X114000000Y-96000000D03*
D14*
X118542304Y-98274616D02*
X118542304Y-98274616D01*
D13*
X122000000Y-100000000D03*
D14*
X126542304Y-102274616D02*
X126542304Y-102274616D01*
D13*
X130000000Y-104000000D03*
D14*
X134542304Y-106274616D02*
X134542304Y-106274616D01*
D13*
X138000000Y-108000000D03*
D14*
X142542304Y-110274616D02*
X142542304Y-110274616D01*
D13*
X146000000Y-112000000D03*
D14*
X150542304Y-114274616D02*
X150542304Y-114274616D01*
D13*
X154000000Y-116000000D03*
D14*
X158542304Y-118274616D02*
X158542304Y-118274616D01*
D13*
X122000000Y-69000000D03*
D14*
X126542304Y-71274616D02*
X126542304Y-71274616D01*
D13*
X130000000Y-73000000D03*
D14*
X134542304Y-75274616D02*
X134542304Y-75274616D01*
D13*
X138000000Y-77000000D03*
D14*
X142542304Y-79274616D02*
X142542304Y-79274616D01*
D13*
X146000000Y-81000000D03*
D14*
X150542304Y-83274616D02*
X150542304Y-83274616D01*
D13*
X154000000Y-85000000D03*
D14*
X158542304Y-87274616D02*
X158542304Y-87274616D01*
D13*
X128000000Y-44000000D03*
D14*
X132542304Y-46274616D02*
X132542304Y-46274616D01*
D13*
X136000000Y-48000000D03*
D14*
X140542304Y-50274616D02*
X140542304Y-50274616D01*
D13*
X144000000Y-52000000D03*
D14*
X148542304Y-54274616D02*
X148542304Y-54274616D01*
D15*
X135000000Y-90000000D03*
D16*
X135650000Y-89000000D03*
X136300000Y-90000000D03*
X136950000Y-89000000D03*
X137600000Y-90000000D03*
D17*
X132725000Y-89780000D03*
X139875000Y-89780000D03*
D18*
G36*
X132365458Y-35473567D02*
X132364543Y-36521834D01*
X132764853Y-37490658D01*
X133505443Y-38232542D01*
X134473567Y-38634542D01*
X135521834Y-38635457D01*
X136490658Y-38235147D01*
X137232542Y-37494557D01*
X137634542Y-36526433D01*
X137635457Y-35478166D01*
X137369196Y-34833765D01*
X153673353Y-59290000D01*
X145000000Y-59290000D01*
X144931777Y-59303571D01*
X144862214Y-59303498D01*
X144797238Y-59330332D01*
X144728295Y-59344046D01*
X144670459Y-59382690D01*
X144606163Y-59409244D01*
X144556404Y-59458899D01*
X144497954Y-59497954D01*
X144459307Y-59555794D01*
X144410070Y-59604928D01*
X144383100Y-59669846D01*
X144344046Y-59728295D01*
X144330476Y-59796515D01*
X144303787Y-59860757D01*
X144303714Y-59931057D01*
X144290000Y-60000000D01*
X144303571Y-60068223D01*
X144303498Y-60137786D01*
X144330332Y-60202762D01*
X144344046Y-60271705D01*
X144382690Y-60329541D01*
X144409244Y-60393837D01*
X163673353Y-89290000D01*
X155000000Y-89290000D01*
X154931777Y-89303571D01*
X154862214Y-89303498D01*
X154797238Y-89330332D01*
X154728295Y-89344046D01*
X154670459Y-89382690D01*
X154606163Y-89409244D01*
X154556404Y-89458899D01*
X154497954Y-89497954D01*
X154459307Y-89555794D01*
X154410070Y-89604928D01*
X154383100Y-89669846D01*
X154344046Y-89728295D01*
X154330476Y-89796515D01*
X154303787Y-89860757D01*
X154303714Y-89931057D01*
X154290000Y-90000000D01*
X154303571Y-90068223D01*
X154303498Y-90137786D01*
X154330332Y-90202762D01*
X154344046Y-90271705D01*
X154382690Y-90329541D01*
X154409244Y-90393837D01*
X173673353Y-119290000D01*
X159443957Y-119290000D01*
X159759383Y-118884092D01*
X159897273Y-118381784D01*
X159832443Y-117864943D01*
X159574759Y-117412254D01*
X159163455Y-117092635D01*
X159116683Y-117069212D01*
X158614375Y-116931322D01*
X158097533Y-116996153D01*
X157644845Y-117253836D01*
X157325225Y-117665140D01*
X157187335Y-118167448D01*
X157252166Y-118684290D01*
X157509849Y-119136978D01*
X157706766Y-119290000D01*
X140000000Y-119290000D01*
X139728295Y-119344046D01*
X139497954Y-119497954D01*
X139344046Y-119728295D01*
X139315262Y-119873000D01*
X130684738Y-119873000D01*
X130655954Y-119728295D01*
X130502046Y-119497954D01*
X130271705Y-119344046D01*
X130000000Y-119290000D01*
X96326647Y-119290000D01*
X98343724Y-116264383D01*
X152664769Y-116264383D01*
X152867582Y-116755229D01*
X153242796Y-117131098D01*
X153733287Y-117334768D01*
X154264383Y-117335231D01*
X154755229Y-117132418D01*
X155131098Y-116757204D01*
X155334768Y-116266713D01*
X155335231Y-115735617D01*
X155132418Y-115244771D01*
X154757204Y-114868902D01*
X154266713Y-114665232D01*
X153735617Y-114664769D01*
X153244771Y-114867582D01*
X152868902Y-115242796D01*
X152665232Y-115733287D01*
X152664769Y-116264383D01*
X98343724Y-116264383D01*
X100329480Y-113285750D01*
X121465000Y-113285750D01*
X121465000Y-114026310D01*
X121561673Y-114259699D01*
X121740302Y-114438327D01*
X121973691Y-114535000D01*
X122714250Y-114535000D01*
X122873000Y-114376250D01*
X122873000Y-113127000D01*
X121623750Y-113127000D01*
X121465000Y-113285750D01*
X100329480Y-113285750D01*
X101204186Y-111973690D01*
X121465000Y-111973690D01*
X121465000Y-112714250D01*
X121623750Y-112873000D01*
X122873000Y-112873000D01*
X122873000Y-111623750D01*
X123127000Y-111623750D01*
X123127000Y-112873000D01*
X123147000Y-112873000D01*
X123147000Y-113127000D01*
X123127000Y-113127000D01*
X123127000Y-114376250D01*
X123285750Y-114535000D01*
X124026309Y-114535000D01*
X124259698Y-114438327D01*
X124438327Y-114259699D01*
X124494119Y-114125006D01*
X124669357Y-114300551D01*
X125233330Y-114534733D01*
X125843991Y-114535265D01*
X126408371Y-114302068D01*
X126543226Y-114167448D01*
X149187335Y-114167448D01*
X149252166Y-114684290D01*
X149509849Y-115136978D01*
X149921153Y-115456598D01*
X149967925Y-115480020D01*
X150470233Y-115617910D01*
X150987075Y-115553080D01*
X151439764Y-115295396D01*
X151759383Y-114884092D01*
X151897273Y-114381784D01*
X151885227Y-114285750D01*
X161465000Y-114285750D01*
X161465000Y-115026310D01*
X161561673Y-115259699D01*
X161740302Y-115438327D01*
X161973691Y-115535000D01*
X162714250Y-115535000D01*
X162873000Y-115376250D01*
X162873000Y-114127000D01*
X161623750Y-114127000D01*
X161465000Y-114285750D01*
X151885227Y-114285750D01*
X151832443Y-113864943D01*
X151574759Y-113412254D01*
X151163455Y-113092635D01*
X151116683Y-113069212D01*
X150768714Y-112973690D01*
X161465000Y-112973690D01*
X161465000Y-113714250D01*
X161623750Y-113873000D01*
X162873000Y-113873000D01*
X162873000Y-112623750D01*
X163127000Y-112623750D01*
X163127000Y-113873000D01*
X163147000Y-113873000D01*
X163147000Y-114127000D01*
X163127000Y-114127000D01*
X163127000Y-115376250D01*
X163285750Y-115535000D01*
X164026309Y-115535000D01*
X164259698Y-115438327D01*
X164438327Y-115259699D01*
X164494119Y-115125006D01*
X164669357Y-115300551D01*
X165233330Y-115534733D01*
X165843991Y-115535265D01*
X166408371Y-115302068D01*
X166840551Y-114870643D01*
X167074733Y-114306670D01*
X167075265Y-113696009D01*
X166842068Y-113131629D01*
X166410643Y-112699449D01*
X165846670Y-112465267D01*
X165236009Y-112464735D01*
X164671629Y-112697932D01*
X164494159Y-112875092D01*
X164438327Y-112740301D01*
X164259698Y-112561673D01*
X164026309Y-112465000D01*
X163285750Y-112465000D01*
X163127000Y-112623750D01*
X162873000Y-112623750D01*
X162714250Y-112465000D01*
X161973691Y-112465000D01*
X161740302Y-112561673D01*
X161561673Y-112740301D01*
X161465000Y-112973690D01*
X150768714Y-112973690D01*
X150614375Y-112931322D01*
X150097533Y-112996153D01*
X149644845Y-113253836D01*
X149325225Y-113665140D01*
X149187335Y-114167448D01*
X126543226Y-114167448D01*
X126840551Y-113870643D01*
X127074733Y-113306670D01*
X127075265Y-112696009D01*
X126896921Y-112264383D01*
X144664769Y-112264383D01*
X144867582Y-112755229D01*
X145242796Y-113131098D01*
X145733287Y-113334768D01*
X146264383Y-113335231D01*
X146755229Y-113132418D01*
X147131098Y-112757204D01*
X147334768Y-112266713D01*
X147335231Y-111735617D01*
X147132418Y-111244771D01*
X146757204Y-110868902D01*
X146266713Y-110665232D01*
X145735617Y-110664769D01*
X145244771Y-110867582D01*
X144868902Y-111242796D01*
X144665232Y-111733287D01*
X144664769Y-112264383D01*
X126896921Y-112264383D01*
X126842068Y-112131629D01*
X126410643Y-111699449D01*
X125846670Y-111465267D01*
X125236009Y-111464735D01*
X124671629Y-111697932D01*
X124494159Y-111875092D01*
X124438327Y-111740301D01*
X124259698Y-111561673D01*
X124026309Y-111465000D01*
X123285750Y-111465000D01*
X123127000Y-111623750D01*
X122873000Y-111623750D01*
X122714250Y-111465000D01*
X121973691Y-111465000D01*
X121740302Y-111561673D01*
X121561673Y-111740301D01*
X121465000Y-111973690D01*
X101204186Y-111973690D01*
X102408347Y-110167448D01*
X141187335Y-110167448D01*
X141252166Y-110684290D01*
X141509849Y-111136978D01*
X141921153Y-111456598D01*
X141967925Y-111480020D01*
X142470233Y-111617910D01*
X142987075Y-111553080D01*
X143439764Y-111295396D01*
X143759383Y-110884092D01*
X143897273Y-110381784D01*
X143832443Y-109864943D01*
X143574759Y-109412254D01*
X143163455Y-109092635D01*
X143116683Y-109069212D01*
X142614375Y-108931322D01*
X142097533Y-108996153D01*
X141644845Y-109253836D01*
X141325225Y-109665140D01*
X141187335Y-110167448D01*
X102408347Y-110167448D01*
X103677057Y-108264383D01*
X136664769Y-108264383D01*
X136867582Y-108755229D01*
X137242796Y-109131098D01*
X137733287Y-109334768D01*
X138264383Y-109335231D01*
X138755229Y-109132418D01*
X139131098Y-108757204D01*
X139334768Y-108266713D01*
X139335231Y-107735617D01*
X139132418Y-107244771D01*
X138757204Y-106868902D01*
X138266713Y-106665232D01*
X137735617Y-106664769D01*
X137244771Y-106867582D01*
X136868902Y-107242796D01*
X136665232Y-107733287D01*
X136664769Y-108264383D01*
X103677057Y-108264383D01*
X104996147Y-106285750D01*
X109465000Y-106285750D01*
X109465000Y-107026310D01*
X109561673Y-107259699D01*
X109740302Y-107438327D01*
X109973691Y-107535000D01*
X110714250Y-107535000D01*
X110873000Y-107376250D01*
X110873000Y-106127000D01*
X109623750Y-106127000D01*
X109465000Y-106285750D01*
X104996147Y-106285750D01*
X105870853Y-104973690D01*
X109465000Y-104973690D01*
X109465000Y-105714250D01*
X109623750Y-105873000D01*
X110873000Y-105873000D01*
X110873000Y-104623750D01*
X111127000Y-104623750D01*
X111127000Y-105873000D01*
X111147000Y-105873000D01*
X111147000Y-106127000D01*
X111127000Y-106127000D01*
X111127000Y-107376250D01*
X111285750Y-107535000D01*
X112026309Y-107535000D01*
X112259698Y-107438327D01*
X112438327Y-107259699D01*
X112494119Y-107125006D01*
X112669357Y-107300551D01*
X113233330Y-107534733D01*
X113843991Y-107535265D01*
X114408371Y-107302068D01*
X114840551Y-106870643D01*
X115074733Y-106306670D01*
X115074854Y-106167448D01*
X133187335Y-106167448D01*
X133252166Y-106684290D01*
X133509849Y-107136978D01*
X133921153Y-107456598D01*
X133967925Y-107480020D01*
X134470233Y-107617910D01*
X134987075Y-107553080D01*
X135439764Y-107295396D01*
X135759383Y-106884092D01*
X135897273Y-106381784D01*
X135885227Y-106285750D01*
X153465000Y-106285750D01*
X153465000Y-107026310D01*
X153561673Y-107259699D01*
X153740302Y-107438327D01*
X153973691Y-107535000D01*
X154714250Y-107535000D01*
X154873000Y-107376250D01*
X154873000Y-106127000D01*
X153623750Y-106127000D01*
X153465000Y-106285750D01*
X135885227Y-106285750D01*
X135832443Y-105864943D01*
X135574759Y-105412254D01*
X135163455Y-105092635D01*
X135116683Y-105069212D01*
X134768714Y-104973690D01*
X153465000Y-104973690D01*
X153465000Y-105714250D01*
X153623750Y-105873000D01*
X154873000Y-105873000D01*
X154873000Y-104623750D01*
X155127000Y-104623750D01*
X155127000Y-105873000D01*
X155147000Y-105873000D01*
X155147000Y-106127000D01*
X155127000Y-106127000D01*
X155127000Y-107376250D01*
X155285750Y-107535000D01*
X156026309Y-107535000D01*
X156259698Y-107438327D01*
X156438327Y-107259699D01*
X156494119Y-107125006D01*
X156669357Y-107300551D01*
X157233330Y-107534733D01*
X157843991Y-107535265D01*
X158408371Y-107302068D01*
X158840551Y-106870643D01*
X159074733Y-106306670D01*
X159075265Y-105696009D01*
X158842068Y-105131629D01*
X158410643Y-104699449D01*
X157846670Y-104465267D01*
X157236009Y-104464735D01*
X156671629Y-104697932D01*
X156494159Y-104875092D01*
X156438327Y-104740301D01*
X156259698Y-104561673D01*
X156026309Y-104465000D01*
X155285750Y-104465000D01*
X155127000Y-104623750D01*
X154873000Y-104623750D01*
X154714250Y-104465000D01*
X153973691Y-104465000D01*
X153740302Y-104561673D01*
X153561673Y-104740301D01*
X153465000Y-104973690D01*
X134768714Y-104973690D01*
X134614375Y-104931322D01*
X134097533Y-104996153D01*
X133644845Y-105253836D01*
X133325225Y-105665140D01*
X133187335Y-106167448D01*
X115074854Y-106167448D01*
X115075265Y-105696009D01*
X114842068Y-105131629D01*
X114410643Y-104699449D01*
X113846670Y-104465267D01*
X113236009Y-104464735D01*
X112671629Y-104697932D01*
X112494159Y-104875092D01*
X112438327Y-104740301D01*
X112259698Y-104561673D01*
X112026309Y-104465000D01*
X111285750Y-104465000D01*
X111127000Y-104623750D01*
X110873000Y-104623750D01*
X110714250Y-104465000D01*
X109973691Y-104465000D01*
X109740302Y-104561673D01*
X109561673Y-104740301D01*
X109465000Y-104973690D01*
X105870853Y-104973690D01*
X106343724Y-104264383D01*
X128664769Y-104264383D01*
X128867582Y-104755229D01*
X129242796Y-105131098D01*
X129733287Y-105334768D01*
X130264383Y-105335231D01*
X130755229Y-105132418D01*
X131131098Y-104757204D01*
X131334768Y-104266713D01*
X131335231Y-103735617D01*
X131132418Y-103244771D01*
X130757204Y-102868902D01*
X130266713Y-102665232D01*
X129735617Y-102664769D01*
X129244771Y-102867582D01*
X128868902Y-103242796D01*
X128665232Y-103733287D01*
X128664769Y-104264383D01*
X106343724Y-104264383D01*
X107741680Y-102167448D01*
X125187335Y-102167448D01*
X125252166Y-102684290D01*
X125509849Y-103136978D01*
X125921153Y-103456598D01*
X125967925Y-103480020D01*
X126470233Y-103617910D01*
X126987075Y-103553080D01*
X127439764Y-103295396D01*
X127759383Y-102884092D01*
X127897273Y-102381784D01*
X127832443Y-101864943D01*
X127574759Y-101412254D01*
X127163455Y-101092635D01*
X127116683Y-101069212D01*
X126614375Y-100931322D01*
X126097533Y-100996153D01*
X125644845Y-101253836D01*
X125325225Y-101665140D01*
X125187335Y-102167448D01*
X107741680Y-102167448D01*
X109010390Y-100264383D01*
X120664769Y-100264383D01*
X120867582Y-100755229D01*
X121242796Y-101131098D01*
X121733287Y-101334768D01*
X122264383Y-101335231D01*
X122755229Y-101132418D01*
X123131098Y-100757204D01*
X123334768Y-100266713D01*
X123335231Y-99735617D01*
X123132418Y-99244771D01*
X122757204Y-98868902D01*
X122266713Y-98665232D01*
X121735617Y-98664769D01*
X121244771Y-98867582D01*
X120868902Y-99242796D01*
X120665232Y-99733287D01*
X120664769Y-100264383D01*
X109010390Y-100264383D01*
X110408347Y-98167448D01*
X117187335Y-98167448D01*
X117252166Y-98684290D01*
X117509849Y-99136978D01*
X117921153Y-99456598D01*
X117967925Y-99480020D01*
X118470233Y-99617910D01*
X118987075Y-99553080D01*
X119439764Y-99295396D01*
X119759383Y-98884092D01*
X119897273Y-98381784D01*
X119832443Y-97864943D01*
X119574759Y-97412254D01*
X119411967Y-97285750D01*
X135465000Y-97285750D01*
X135465000Y-98026310D01*
X135561673Y-98259699D01*
X135740302Y-98438327D01*
X135973691Y-98535000D01*
X136714250Y-98535000D01*
X136873000Y-98376250D01*
X136873000Y-97127000D01*
X135623750Y-97127000D01*
X135465000Y-97285750D01*
X119411967Y-97285750D01*
X119163455Y-97092635D01*
X119116683Y-97069212D01*
X118614375Y-96931322D01*
X118097533Y-96996153D01*
X117644845Y-97253836D01*
X117325225Y-97665140D01*
X117187335Y-98167448D01*
X110408347Y-98167448D01*
X111677058Y-96264383D01*
X112664769Y-96264383D01*
X112867582Y-96755229D01*
X113242796Y-97131098D01*
X113733287Y-97334768D01*
X114264383Y-97335231D01*
X114755229Y-97132418D01*
X115131098Y-96757204D01*
X115334768Y-96266713D01*
X115335023Y-95973690D01*
X135465000Y-95973690D01*
X135465000Y-96714250D01*
X135623750Y-96873000D01*
X136873000Y-96873000D01*
X136873000Y-95623750D01*
X137127000Y-95623750D01*
X137127000Y-96873000D01*
X137147000Y-96873000D01*
X137147000Y-97127000D01*
X137127000Y-97127000D01*
X137127000Y-98376250D01*
X137285750Y-98535000D01*
X138026309Y-98535000D01*
X138259698Y-98438327D01*
X138438327Y-98259699D01*
X138494119Y-98125006D01*
X138669357Y-98300551D01*
X139233330Y-98534733D01*
X139843991Y-98535265D01*
X140408371Y-98302068D01*
X140840551Y-97870643D01*
X141074733Y-97306670D01*
X141074751Y-97285750D01*
X146465000Y-97285750D01*
X146465000Y-98026310D01*
X146561673Y-98259699D01*
X146740302Y-98438327D01*
X146973691Y-98535000D01*
X147714250Y-98535000D01*
X147873000Y-98376250D01*
X147873000Y-97127000D01*
X146623750Y-97127000D01*
X146465000Y-97285750D01*
X141074751Y-97285750D01*
X141075265Y-96696009D01*
X140842068Y-96131629D01*
X140684405Y-95973690D01*
X146465000Y-95973690D01*
X146465000Y-96714250D01*
X146623750Y-96873000D01*
X147873000Y-96873000D01*
X147873000Y-95623750D01*
X148127000Y-95623750D01*
X148127000Y-96873000D01*
X148147000Y-96873000D01*
X148147000Y-97127000D01*
X148127000Y-97127000D01*
X148127000Y-98376250D01*
X148285750Y-98535000D01*
X149026309Y-98535000D01*
X149259698Y-98438327D01*
X149438327Y-98259699D01*
X149494119Y-98125006D01*
X149669357Y-98300551D01*
X150233330Y-98534733D01*
X150843991Y-98535265D01*
X151408371Y-98302068D01*
X151840551Y-97870643D01*
X152074733Y-97306670D01*
X152075265Y-96696009D01*
X151842068Y-96131629D01*
X151410643Y-95699449D01*
X150846670Y-95465267D01*
X150236009Y-95464735D01*
X149671629Y-95697932D01*
X149494159Y-95875092D01*
X149438327Y-95740301D01*
X149259698Y-95561673D01*
X149026309Y-95465000D01*
X148285750Y-95465000D01*
X148127000Y-95623750D01*
X147873000Y-95623750D01*
X147714250Y-95465000D01*
X146973691Y-95465000D01*
X146740302Y-95561673D01*
X146561673Y-95740301D01*
X146465000Y-95973690D01*
X140684405Y-95973690D01*
X140410643Y-95699449D01*
X139846670Y-95465267D01*
X139236009Y-95464735D01*
X138671629Y-95697932D01*
X138494159Y-95875092D01*
X138438327Y-95740301D01*
X138259698Y-95561673D01*
X138026309Y-95465000D01*
X137285750Y-95465000D01*
X137127000Y-95623750D01*
X136873000Y-95623750D01*
X136714250Y-95465000D01*
X135973691Y-95465000D01*
X135740302Y-95561673D01*
X135561673Y-95740301D01*
X135465000Y-95973690D01*
X115335023Y-95973690D01*
X115335231Y-95735617D01*
X115132418Y-95244771D01*
X114757204Y-94868902D01*
X114266713Y-94665232D01*
X113735617Y-94664769D01*
X113244771Y-94867582D01*
X112868902Y-95242796D01*
X112665232Y-95733287D01*
X112664769Y-96264383D01*
X111677058Y-96264383D01*
X115267809Y-90878256D01*
X131806349Y-90878256D01*
X131895821Y-91137332D01*
X132478368Y-91351325D01*
X133098461Y-91326097D01*
X133554179Y-91137332D01*
X133643651Y-90878256D01*
X132725000Y-89959605D01*
X131806349Y-90878256D01*
X115267809Y-90878256D01*
X115590756Y-90393837D01*
X115617309Y-90329541D01*
X115655954Y-90271705D01*
X115669668Y-90202760D01*
X115696502Y-90137785D01*
X115696429Y-90068223D01*
X115710000Y-90000000D01*
X115696286Y-89931057D01*
X115696213Y-89860757D01*
X115669524Y-89796515D01*
X115655954Y-89728295D01*
X115616900Y-89669846D01*
X115589930Y-89604928D01*
X115540693Y-89555794D01*
X115502046Y-89497954D01*
X115443596Y-89458899D01*
X115393837Y-89409244D01*
X115329541Y-89382690D01*
X115271705Y-89344046D01*
X115202762Y-89330332D01*
X115137786Y-89303498D01*
X115068223Y-89303571D01*
X115000000Y-89290000D01*
X106326647Y-89290000D01*
X106329480Y-89285750D01*
X123465000Y-89285750D01*
X123465000Y-90026310D01*
X123561673Y-90259699D01*
X123740302Y-90438327D01*
X123973691Y-90535000D01*
X124714250Y-90535000D01*
X124873000Y-90376250D01*
X124873000Y-89127000D01*
X123623750Y-89127000D01*
X123465000Y-89285750D01*
X106329480Y-89285750D01*
X107204186Y-87973690D01*
X123465000Y-87973690D01*
X123465000Y-88714250D01*
X123623750Y-88873000D01*
X124873000Y-88873000D01*
X124873000Y-87623750D01*
X125127000Y-87623750D01*
X125127000Y-88873000D01*
X125147000Y-88873000D01*
X125147000Y-89127000D01*
X125127000Y-89127000D01*
X125127000Y-90376250D01*
X125285750Y-90535000D01*
X126026309Y-90535000D01*
X126259698Y-90438327D01*
X126438327Y-90259699D01*
X126494119Y-90125006D01*
X126669357Y-90300551D01*
X127233330Y-90534733D01*
X127843991Y-90535265D01*
X128408371Y-90302068D01*
X128840551Y-89870643D01*
X128980599Y-89533368D01*
X131153675Y-89533368D01*
X131178903Y-90153461D01*
X131367668Y-90609179D01*
X131626744Y-90698651D01*
X132545395Y-89780000D01*
X132904605Y-89780000D01*
X133823256Y-90698651D01*
X133975123Y-90646204D01*
X133976838Y-90655317D01*
X134115910Y-90871441D01*
X134328110Y-91016431D01*
X134580000Y-91067440D01*
X135420000Y-91067440D01*
X135655317Y-91023162D01*
X135795600Y-90932892D01*
X136089227Y-91054817D01*
X136508932Y-91055183D01*
X136896829Y-90894907D01*
X137049133Y-90742869D01*
X137074905Y-90938796D01*
X137474137Y-91068279D01*
X137892531Y-91035127D01*
X138125095Y-90938796D01*
X138133058Y-90878256D01*
X138956349Y-90878256D01*
X139045821Y-91137332D01*
X139628368Y-91351325D01*
X140248461Y-91326097D01*
X140704179Y-91137332D01*
X140793651Y-90878256D01*
X139875000Y-89959605D01*
X138956349Y-90878256D01*
X138133058Y-90878256D01*
X138152308Y-90731913D01*
X137600000Y-90179605D01*
X137585858Y-90193748D01*
X137406253Y-90014143D01*
X137420395Y-90000000D01*
X137779605Y-90000000D01*
X138331913Y-90552308D01*
X138485730Y-90532075D01*
X138517668Y-90609179D01*
X138776744Y-90698651D01*
X139695395Y-89780000D01*
X140054605Y-89780000D01*
X140973256Y-90698651D01*
X141232332Y-90609179D01*
X141446325Y-90026632D01*
X141421097Y-89406539D01*
X141232332Y-88950821D01*
X140973256Y-88861349D01*
X140054605Y-89780000D01*
X139695395Y-89780000D01*
X138776744Y-88861349D01*
X138517668Y-88950821D01*
X138334998Y-89448098D01*
X138331913Y-89447692D01*
X137779605Y-90000000D01*
X137420395Y-90000000D01*
X137406253Y-89985858D01*
X137462260Y-89929850D01*
X137546829Y-89894907D01*
X137843864Y-89598390D01*
X137859386Y-89561009D01*
X138152308Y-89268087D01*
X138125095Y-89061204D01*
X138004981Y-89022248D01*
X138005183Y-88791068D01*
X137960012Y-88681744D01*
X138956349Y-88681744D01*
X139875000Y-89600395D01*
X140793651Y-88681744D01*
X140704179Y-88422668D01*
X140121632Y-88208675D01*
X139501539Y-88233903D01*
X139045821Y-88422668D01*
X138956349Y-88681744D01*
X137960012Y-88681744D01*
X137844907Y-88403171D01*
X137548390Y-88106136D01*
X137160773Y-87945183D01*
X136741068Y-87944817D01*
X136353171Y-88105093D01*
X136300168Y-88158004D01*
X136248390Y-88106136D01*
X135860773Y-87945183D01*
X135441068Y-87944817D01*
X135053171Y-88105093D01*
X134756136Y-88401610D01*
X134595183Y-88789227D01*
X134595058Y-88932560D01*
X134580000Y-88932560D01*
X134344683Y-88976838D01*
X134146052Y-89104654D01*
X134082332Y-88950821D01*
X133823256Y-88861349D01*
X132904605Y-89780000D01*
X132545395Y-89780000D01*
X131626744Y-88861349D01*
X131367668Y-88950821D01*
X131153675Y-89533368D01*
X128980599Y-89533368D01*
X129074733Y-89306670D01*
X129075265Y-88696009D01*
X129069371Y-88681744D01*
X131806349Y-88681744D01*
X132725000Y-89600395D01*
X133643651Y-88681744D01*
X133554179Y-88422668D01*
X132971632Y-88208675D01*
X132351539Y-88233903D01*
X131895821Y-88422668D01*
X131806349Y-88681744D01*
X129069371Y-88681744D01*
X128842068Y-88131629D01*
X128410643Y-87699449D01*
X127846670Y-87465267D01*
X127236009Y-87464735D01*
X126671629Y-87697932D01*
X126494159Y-87875092D01*
X126438327Y-87740301D01*
X126259698Y-87561673D01*
X126026309Y-87465000D01*
X125285750Y-87465000D01*
X125127000Y-87623750D01*
X124873000Y-87623750D01*
X124714250Y-87465000D01*
X123973691Y-87465000D01*
X123740302Y-87561673D01*
X123561673Y-87740301D01*
X123465000Y-87973690D01*
X107204186Y-87973690D01*
X107741680Y-87167448D01*
X157187335Y-87167448D01*
X157252166Y-87684290D01*
X157509849Y-88136978D01*
X157921153Y-88456598D01*
X157967925Y-88480020D01*
X158470233Y-88617910D01*
X158987075Y-88553080D01*
X159439764Y-88295396D01*
X159759383Y-87884092D01*
X159897273Y-87381784D01*
X159832443Y-86864943D01*
X159574759Y-86412254D01*
X159163455Y-86092635D01*
X159116683Y-86069212D01*
X158614375Y-85931322D01*
X158097533Y-85996153D01*
X157644845Y-86253836D01*
X157325225Y-86665140D01*
X157187335Y-87167448D01*
X107741680Y-87167448D01*
X109010390Y-85264383D01*
X152664769Y-85264383D01*
X152867582Y-85755229D01*
X153242796Y-86131098D01*
X153733287Y-86334768D01*
X154264383Y-86335231D01*
X154755229Y-86132418D01*
X155131098Y-85757204D01*
X155334768Y-85266713D01*
X155335231Y-84735617D01*
X155132418Y-84244771D01*
X154757204Y-83868902D01*
X154266713Y-83665232D01*
X153735617Y-83664769D01*
X153244771Y-83867582D01*
X152868902Y-84242796D01*
X152665232Y-84733287D01*
X152664769Y-85264383D01*
X109010390Y-85264383D01*
X110408347Y-83167448D01*
X149187335Y-83167448D01*
X149252166Y-83684290D01*
X149509849Y-84136978D01*
X149921153Y-84456598D01*
X149967925Y-84480020D01*
X150470233Y-84617910D01*
X150987075Y-84553080D01*
X151439764Y-84295396D01*
X151759383Y-83884092D01*
X151897273Y-83381784D01*
X151832443Y-82864943D01*
X151574759Y-82412254D01*
X151163455Y-82092635D01*
X151116683Y-82069212D01*
X150614375Y-81931322D01*
X150097533Y-81996153D01*
X149644845Y-82253836D01*
X149325225Y-82665140D01*
X149187335Y-83167448D01*
X110408347Y-83167448D01*
X111677057Y-81264383D01*
X144664769Y-81264383D01*
X144867582Y-81755229D01*
X145242796Y-82131098D01*
X145733287Y-82334768D01*
X146264383Y-82335231D01*
X146755229Y-82132418D01*
X147131098Y-81757204D01*
X147334768Y-81266713D01*
X147335231Y-80735617D01*
X147132418Y-80244771D01*
X146757204Y-79868902D01*
X146266713Y-79665232D01*
X145735617Y-79664769D01*
X145244771Y-79867582D01*
X144868902Y-80242796D01*
X144665232Y-80733287D01*
X144664769Y-81264383D01*
X111677057Y-81264383D01*
X113662813Y-78285750D01*
X116465000Y-78285750D01*
X116465000Y-79026310D01*
X116561673Y-79259699D01*
X116740302Y-79438327D01*
X116973691Y-79535000D01*
X117714250Y-79535000D01*
X117873000Y-79376250D01*
X117873000Y-78127000D01*
X116623750Y-78127000D01*
X116465000Y-78285750D01*
X113662813Y-78285750D01*
X114537519Y-76973690D01*
X116465000Y-76973690D01*
X116465000Y-77714250D01*
X116623750Y-77873000D01*
X117873000Y-77873000D01*
X117873000Y-76623750D01*
X118127000Y-76623750D01*
X118127000Y-77873000D01*
X118147000Y-77873000D01*
X118147000Y-78127000D01*
X118127000Y-78127000D01*
X118127000Y-79376250D01*
X118285750Y-79535000D01*
X119026309Y-79535000D01*
X119259698Y-79438327D01*
X119438327Y-79259699D01*
X119494119Y-79125006D01*
X119669357Y-79300551D01*
X120233330Y-79534733D01*
X120843991Y-79535265D01*
X121408371Y-79302068D01*
X121543226Y-79167448D01*
X141187335Y-79167448D01*
X141252166Y-79684290D01*
X141509849Y-80136978D01*
X141921153Y-80456598D01*
X141967925Y-80480020D01*
X142470233Y-80617910D01*
X142987075Y-80553080D01*
X143439764Y-80295396D01*
X143759383Y-79884092D01*
X143897273Y-79381784D01*
X143832443Y-78864943D01*
X143574759Y-78412254D01*
X143163455Y-78092635D01*
X143116683Y-78069212D01*
X142614375Y-77931322D01*
X142097533Y-77996153D01*
X141644845Y-78253836D01*
X141325225Y-78665140D01*
X141187335Y-79167448D01*
X121543226Y-79167448D01*
X121840551Y-78870643D01*
X122074733Y-78306670D01*
X122075265Y-77696009D01*
X121896921Y-77264383D01*
X136664769Y-77264383D01*
X136867582Y-77755229D01*
X137242796Y-78131098D01*
X137733287Y-78334768D01*
X138264383Y-78335231D01*
X138755229Y-78132418D01*
X139131098Y-77757204D01*
X139334768Y-77266713D01*
X139335231Y-76735617D01*
X139132418Y-76244771D01*
X138757204Y-75868902D01*
X138266713Y-75665232D01*
X137735617Y-75664769D01*
X137244771Y-75867582D01*
X136868902Y-76242796D01*
X136665232Y-76733287D01*
X136664769Y-77264383D01*
X121896921Y-77264383D01*
X121842068Y-77131629D01*
X121410643Y-76699449D01*
X120846670Y-76465267D01*
X120236009Y-76464735D01*
X119671629Y-76697932D01*
X119494159Y-76875092D01*
X119438327Y-76740301D01*
X119259698Y-76561673D01*
X119026309Y-76465000D01*
X118285750Y-76465000D01*
X118127000Y-76623750D01*
X117873000Y-76623750D01*
X117714250Y-76465000D01*
X116973691Y-76465000D01*
X116740302Y-76561673D01*
X116561673Y-76740301D01*
X116465000Y-76973690D01*
X114537519Y-76973690D01*
X115741680Y-75167448D01*
X133187335Y-75167448D01*
X133252166Y-75684290D01*
X133509849Y-76136978D01*
X133921153Y-76456598D01*
X133967925Y-76480020D01*
X134470233Y-76617910D01*
X134987075Y-76553080D01*
X135439764Y-76295396D01*
X135759383Y-75884092D01*
X135897273Y-75381784D01*
X135832443Y-74864943D01*
X135574759Y-74412254D01*
X135411967Y-74285750D01*
X146465000Y-74285750D01*
X146465000Y-75026310D01*
X146561673Y-75259699D01*
X146740302Y-75438327D01*
X146973691Y-75535000D01*
X147714250Y-75535000D01*
X147873000Y-75376250D01*
X147873000Y-74127000D01*
X146623750Y-74127000D01*
X146465000Y-74285750D01*
X135411967Y-74285750D01*
X135163455Y-74092635D01*
X135116683Y-74069212D01*
X134614375Y-73931322D01*
X134097533Y-73996153D01*
X133644845Y-74253836D01*
X133325225Y-74665140D01*
X133187335Y-75167448D01*
X115741680Y-75167448D01*
X117010390Y-73264383D01*
X128664769Y-73264383D01*
X128867582Y-73755229D01*
X129242796Y-74131098D01*
X129733287Y-74334768D01*
X130264383Y-74335231D01*
X130755229Y-74132418D01*
X131131098Y-73757204D01*
X131334768Y-73266713D01*
X131335023Y-72973690D01*
X146465000Y-72973690D01*
X146465000Y-73714250D01*
X146623750Y-73873000D01*
X147873000Y-73873000D01*
X147873000Y-72623750D01*
X148127000Y-72623750D01*
X148127000Y-73873000D01*
X148147000Y-73873000D01*
X148147000Y-74127000D01*
X148127000Y-74127000D01*
X148127000Y-75376250D01*
X148285750Y-75535000D01*
X149026309Y-75535000D01*
X149259698Y-75438327D01*
X149438327Y-75259699D01*
X149494119Y-75125006D01*
X149669357Y-75300551D01*
X150233330Y-75534733D01*
X150843991Y-75535265D01*
X151408371Y-75302068D01*
X151840551Y-74870643D01*
X152074733Y-74306670D01*
X152075265Y-73696009D01*
X151842068Y-73131629D01*
X151410643Y-72699449D01*
X150846670Y-72465267D01*
X150236009Y-72464735D01*
X149671629Y-72697932D01*
X149494159Y-72875092D01*
X149438327Y-72740301D01*
X149259698Y-72561673D01*
X149026309Y-72465000D01*
X148285750Y-72465000D01*
X148127000Y-72623750D01*
X147873000Y-72623750D01*
X147714250Y-72465000D01*
X146973691Y-72465000D01*
X146740302Y-72561673D01*
X146561673Y-72740301D01*
X146465000Y-72973690D01*
X131335023Y-72973690D01*
X131335231Y-72735617D01*
X131132418Y-72244771D01*
X130757204Y-71868902D01*
X130266713Y-71665232D01*
X129735617Y-71664769D01*
X129244771Y-71867582D01*
X128868902Y-72242796D01*
X128665232Y-72733287D01*
X128664769Y-73264383D01*
X117010390Y-73264383D01*
X118408347Y-71167448D01*
X125187335Y-71167448D01*
X125252166Y-71684290D01*
X125509849Y-72136978D01*
X125921153Y-72456598D01*
X125967925Y-72480020D01*
X126470233Y-72617910D01*
X126987075Y-72553080D01*
X127439764Y-72295396D01*
X127759383Y-71884092D01*
X127897273Y-71381784D01*
X127832443Y-70864943D01*
X127574759Y-70412254D01*
X127163455Y-70092635D01*
X127116683Y-70069212D01*
X126614375Y-69931322D01*
X126097533Y-69996153D01*
X125644845Y-70253836D01*
X125325225Y-70665140D01*
X125187335Y-71167448D01*
X118408347Y-71167448D01*
X119677057Y-69264383D01*
X120664769Y-69264383D01*
X120867582Y-69755229D01*
X121242796Y-70131098D01*
X121733287Y-70334768D01*
X122264383Y-70335231D01*
X122755229Y-70132418D01*
X123131098Y-69757204D01*
X123334768Y-69266713D01*
X123335231Y-68735617D01*
X123132418Y-68244771D01*
X122757204Y-67868902D01*
X122266713Y-67665232D01*
X121735617Y-67664769D01*
X121244771Y-67867582D01*
X120868902Y-68242796D01*
X120665232Y-68733287D01*
X120664769Y-69264383D01*
X119677057Y-69264383D01*
X121662812Y-66285750D01*
X129465000Y-66285750D01*
X129465000Y-67026310D01*
X129561673Y-67259699D01*
X129740302Y-67438327D01*
X129973691Y-67535000D01*
X130714250Y-67535000D01*
X130873000Y-67376250D01*
X130873000Y-66127000D01*
X129623750Y-66127000D01*
X129465000Y-66285750D01*
X121662812Y-66285750D01*
X122537519Y-64973690D01*
X129465000Y-64973690D01*
X129465000Y-65714250D01*
X129623750Y-65873000D01*
X130873000Y-65873000D01*
X130873000Y-64623750D01*
X131127000Y-64623750D01*
X131127000Y-65873000D01*
X131147000Y-65873000D01*
X131147000Y-66127000D01*
X131127000Y-66127000D01*
X131127000Y-67376250D01*
X131285750Y-67535000D01*
X132026309Y-67535000D01*
X132259698Y-67438327D01*
X132438327Y-67259699D01*
X132494119Y-67125006D01*
X132669357Y-67300551D01*
X133233330Y-67534733D01*
X133843991Y-67535265D01*
X134408371Y-67302068D01*
X134840551Y-66870643D01*
X135074733Y-66306670D01*
X135075265Y-65696009D01*
X134842068Y-65131629D01*
X134410643Y-64699449D01*
X133846670Y-64465267D01*
X133236009Y-64464735D01*
X132671629Y-64697932D01*
X132494159Y-64875092D01*
X132438327Y-64740301D01*
X132259698Y-64561673D01*
X132026309Y-64465000D01*
X131285750Y-64465000D01*
X131127000Y-64623750D01*
X130873000Y-64623750D01*
X130714250Y-64465000D01*
X129973691Y-64465000D01*
X129740302Y-64561673D01*
X129561673Y-64740301D01*
X129465000Y-64973690D01*
X122537519Y-64973690D01*
X122996145Y-64285750D01*
X138465000Y-64285750D01*
X138465000Y-65026310D01*
X138561673Y-65259699D01*
X138740302Y-65438327D01*
X138973691Y-65535000D01*
X139714250Y-65535000D01*
X139873000Y-65376250D01*
X139873000Y-64127000D01*
X138623750Y-64127000D01*
X138465000Y-64285750D01*
X122996145Y-64285750D01*
X123870852Y-62973690D01*
X138465000Y-62973690D01*
X138465000Y-63714250D01*
X138623750Y-63873000D01*
X139873000Y-63873000D01*
X139873000Y-62623750D01*
X140127000Y-62623750D01*
X140127000Y-63873000D01*
X140147000Y-63873000D01*
X140147000Y-64127000D01*
X140127000Y-64127000D01*
X140127000Y-65376250D01*
X140285750Y-65535000D01*
X141026309Y-65535000D01*
X141259698Y-65438327D01*
X141438327Y-65259699D01*
X141494119Y-65125006D01*
X141669357Y-65300551D01*
X142233330Y-65534733D01*
X142843991Y-65535265D01*
X143408371Y-65302068D01*
X143840551Y-64870643D01*
X144074733Y-64306670D01*
X144075265Y-63696009D01*
X143842068Y-63131629D01*
X143410643Y-62699449D01*
X142846670Y-62465267D01*
X142236009Y-62464735D01*
X141671629Y-62697932D01*
X141494159Y-62875092D01*
X141438327Y-62740301D01*
X141259698Y-62561673D01*
X141026309Y-62465000D01*
X140285750Y-62465000D01*
X140127000Y-62623750D01*
X139873000Y-62623750D01*
X139714250Y-62465000D01*
X138973691Y-62465000D01*
X138740302Y-62561673D01*
X138561673Y-62740301D01*
X138465000Y-62973690D01*
X123870852Y-62973690D01*
X125590756Y-60393837D01*
X125617309Y-60329541D01*
X125655954Y-60271705D01*
X125669668Y-60202760D01*
X125696502Y-60137785D01*
X125696429Y-60068223D01*
X125710000Y-60000000D01*
X125696286Y-59931057D01*
X125696213Y-59860757D01*
X125669524Y-59796515D01*
X125655954Y-59728295D01*
X125616900Y-59669846D01*
X125589930Y-59604928D01*
X125540693Y-59555794D01*
X125502046Y-59497954D01*
X125443596Y-59458899D01*
X125393837Y-59409244D01*
X125329541Y-59382690D01*
X125271705Y-59344046D01*
X125202762Y-59330332D01*
X125137786Y-59303498D01*
X125068223Y-59303571D01*
X125000000Y-59290000D01*
X116326647Y-59290000D01*
X117662813Y-57285750D01*
X126465000Y-57285750D01*
X126465000Y-58026310D01*
X126561673Y-58259699D01*
X126740302Y-58438327D01*
X126973691Y-58535000D01*
X127714250Y-58535000D01*
X127873000Y-58376250D01*
X127873000Y-57127000D01*
X126623750Y-57127000D01*
X126465000Y-57285750D01*
X117662813Y-57285750D01*
X118537519Y-55973690D01*
X126465000Y-55973690D01*
X126465000Y-56714250D01*
X126623750Y-56873000D01*
X127873000Y-56873000D01*
X127873000Y-55623750D01*
X128127000Y-55623750D01*
X128127000Y-56873000D01*
X128147000Y-56873000D01*
X128147000Y-57127000D01*
X128127000Y-57127000D01*
X128127000Y-58376250D01*
X128285750Y-58535000D01*
X129026309Y-58535000D01*
X129259698Y-58438327D01*
X129438327Y-58259699D01*
X129494119Y-58125006D01*
X129669357Y-58300551D01*
X130233330Y-58534733D01*
X130843991Y-58535265D01*
X131408371Y-58302068D01*
X131840551Y-57870643D01*
X132074733Y-57306670D01*
X132075265Y-56696009D01*
X131842068Y-56131629D01*
X131410643Y-55699449D01*
X130846670Y-55465267D01*
X130236009Y-55464735D01*
X129671629Y-55697932D01*
X129494159Y-55875092D01*
X129438327Y-55740301D01*
X129259698Y-55561673D01*
X129026309Y-55465000D01*
X128285750Y-55465000D01*
X128127000Y-55623750D01*
X127873000Y-55623750D01*
X127714250Y-55465000D01*
X126973691Y-55465000D01*
X126740302Y-55561673D01*
X126561673Y-55740301D01*
X126465000Y-55973690D01*
X118537519Y-55973690D01*
X120329479Y-53285750D01*
X133465000Y-53285750D01*
X133465000Y-54026310D01*
X133561673Y-54259699D01*
X133740302Y-54438327D01*
X133973691Y-54535000D01*
X134714250Y-54535000D01*
X134873000Y-54376250D01*
X134873000Y-53127000D01*
X133623750Y-53127000D01*
X133465000Y-53285750D01*
X120329479Y-53285750D01*
X121204185Y-51973690D01*
X133465000Y-51973690D01*
X133465000Y-52714250D01*
X133623750Y-52873000D01*
X134873000Y-52873000D01*
X134873000Y-51623750D01*
X135127000Y-51623750D01*
X135127000Y-52873000D01*
X135147000Y-52873000D01*
X135147000Y-53127000D01*
X135127000Y-53127000D01*
X135127000Y-54376250D01*
X135285750Y-54535000D01*
X136026309Y-54535000D01*
X136259698Y-54438327D01*
X136438327Y-54259699D01*
X136494119Y-54125006D01*
X136669357Y-54300551D01*
X137233330Y-54534733D01*
X137843991Y-54535265D01*
X138408371Y-54302068D01*
X138543226Y-54167448D01*
X147187335Y-54167448D01*
X147252166Y-54684290D01*
X147509849Y-55136978D01*
X147921153Y-55456598D01*
X147967925Y-55480020D01*
X148470233Y-55617910D01*
X148987075Y-55553080D01*
X149439764Y-55295396D01*
X149759383Y-54884092D01*
X149897273Y-54381784D01*
X149832443Y-53864943D01*
X149574759Y-53412254D01*
X149163455Y-53092635D01*
X149116683Y-53069212D01*
X148614375Y-52931322D01*
X148097533Y-52996153D01*
X147644845Y-53253836D01*
X147325225Y-53665140D01*
X147187335Y-54167448D01*
X138543226Y-54167448D01*
X138840551Y-53870643D01*
X139074733Y-53306670D01*
X139075265Y-52696009D01*
X138896921Y-52264383D01*
X142664769Y-52264383D01*
X142867582Y-52755229D01*
X143242796Y-53131098D01*
X143733287Y-53334768D01*
X144264383Y-53335231D01*
X144755229Y-53132418D01*
X145131098Y-52757204D01*
X145334768Y-52266713D01*
X145335231Y-51735617D01*
X145132418Y-51244771D01*
X144757204Y-50868902D01*
X144266713Y-50665232D01*
X143735617Y-50664769D01*
X143244771Y-50867582D01*
X142868902Y-51242796D01*
X142665232Y-51733287D01*
X142664769Y-52264383D01*
X138896921Y-52264383D01*
X138842068Y-52131629D01*
X138410643Y-51699449D01*
X137846670Y-51465267D01*
X137236009Y-51464735D01*
X136671629Y-51697932D01*
X136494159Y-51875092D01*
X136438327Y-51740301D01*
X136259698Y-51561673D01*
X136026309Y-51465000D01*
X135285750Y-51465000D01*
X135127000Y-51623750D01*
X134873000Y-51623750D01*
X134714250Y-51465000D01*
X133973691Y-51465000D01*
X133740302Y-51561673D01*
X133561673Y-51740301D01*
X133465000Y-51973690D01*
X121204185Y-51973690D01*
X122408346Y-50167448D01*
X139187335Y-50167448D01*
X139252166Y-50684290D01*
X139509849Y-51136978D01*
X139921153Y-51456598D01*
X139967925Y-51480020D01*
X140470233Y-51617910D01*
X140987075Y-51553080D01*
X141439764Y-51295396D01*
X141759383Y-50884092D01*
X141897273Y-50381784D01*
X141832443Y-49864943D01*
X141574759Y-49412254D01*
X141163455Y-49092635D01*
X141116683Y-49069212D01*
X140614375Y-48931322D01*
X140097533Y-48996153D01*
X139644845Y-49253836D01*
X139325225Y-49665140D01*
X139187335Y-50167448D01*
X122408346Y-50167448D01*
X123677056Y-48264383D01*
X134664769Y-48264383D01*
X134867582Y-48755229D01*
X135242796Y-49131098D01*
X135733287Y-49334768D01*
X136264383Y-49335231D01*
X136755229Y-49132418D01*
X137131098Y-48757204D01*
X137334768Y-48266713D01*
X137335231Y-47735617D01*
X137132418Y-47244771D01*
X136757204Y-46868902D01*
X136266713Y-46665232D01*
X135735617Y-46664769D01*
X135244771Y-46867582D01*
X134868902Y-47242796D01*
X134665232Y-47733287D01*
X134664769Y-48264383D01*
X123677056Y-48264383D01*
X125075014Y-46167448D01*
X131187335Y-46167448D01*
X131252166Y-46684290D01*
X131509849Y-47136978D01*
X131921153Y-47456598D01*
X131967925Y-47480020D01*
X132470233Y-47617910D01*
X132987075Y-47553080D01*
X133439764Y-47295396D01*
X133759383Y-46884092D01*
X133897273Y-46381784D01*
X133832443Y-45864943D01*
X133574759Y-45412254D01*
X133163455Y-45092635D01*
X133116683Y-45069212D01*
X132614375Y-44931322D01*
X132097533Y-44996153D01*
X131644845Y-45253836D01*
X131325225Y-45665140D01*
X131187335Y-46167448D01*
X125075014Y-46167448D01*
X126665189Y-43782187D01*
X126664769Y-44264383D01*
X126867582Y-44755229D01*
X127242796Y-45131098D01*
X127733287Y-45334768D01*
X128264383Y-45335231D01*
X128755229Y-45132418D01*
X129131098Y-44757204D01*
X129334768Y-44266713D01*
X129335231Y-43735617D01*
X129132418Y-43244771D01*
X128757204Y-42868902D01*
X128266713Y-42665232D01*
X127735617Y-42664769D01*
X127286391Y-42850385D01*
X128329480Y-41285750D01*
X129465000Y-41285750D01*
X129465000Y-42026310D01*
X129561673Y-42259699D01*
X129740302Y-42438327D01*
X129973691Y-42535000D01*
X130714250Y-42535000D01*
X130873000Y-42376250D01*
X130873000Y-41127000D01*
X129623750Y-41127000D01*
X129465000Y-41285750D01*
X128329480Y-41285750D01*
X129204186Y-39973690D01*
X129465000Y-39973690D01*
X129465000Y-40714250D01*
X129623750Y-40873000D01*
X130873000Y-40873000D01*
X130873000Y-39623750D01*
X131127000Y-39623750D01*
X131127000Y-40873000D01*
X131147000Y-40873000D01*
X131147000Y-41127000D01*
X131127000Y-41127000D01*
X131127000Y-42376250D01*
X131285750Y-42535000D01*
X132026309Y-42535000D01*
X132259698Y-42438327D01*
X132438327Y-42259699D01*
X132494119Y-42125006D01*
X132669357Y-42300551D01*
X133233330Y-42534733D01*
X133843991Y-42535265D01*
X134408371Y-42302068D01*
X134840551Y-41870643D01*
X135074733Y-41306670D01*
X135075265Y-40696009D01*
X134842068Y-40131629D01*
X134410643Y-39699449D01*
X133846670Y-39465267D01*
X133236009Y-39464735D01*
X132671629Y-39697932D01*
X132494159Y-39875092D01*
X132438327Y-39740301D01*
X132259698Y-39561673D01*
X132026309Y-39465000D01*
X131285750Y-39465000D01*
X131127000Y-39623750D01*
X130873000Y-39623750D01*
X130714250Y-39465000D01*
X129973691Y-39465000D01*
X129740302Y-39561673D01*
X129561673Y-39740301D01*
X129465000Y-39973690D01*
X129204186Y-39973690D01*
X132631660Y-34832481D01*
X132365458Y-35473567D01*
X132365458Y-35473567D01*
G37*
X132365458Y-35473567D02*
X132364543Y-36521834D01*
X132764853Y-37490658D01*
X133505443Y-38232542D01*
X134473567Y-38634542D01*
X135521834Y-38635457D01*
X136490658Y-38235147D01*
X137232542Y-37494557D01*
X137634542Y-36526433D01*
X137635457Y-35478166D01*
X137369196Y-34833765D01*
X153673353Y-59290000D01*
X145000000Y-59290000D01*
X144931777Y-59303571D01*
X144862214Y-59303498D01*
X144797238Y-59330332D01*
X144728295Y-59344046D01*
X144670459Y-59382690D01*
X144606163Y-59409244D01*
X144556404Y-59458899D01*
X144497954Y-59497954D01*
X144459307Y-59555794D01*
X144410070Y-59604928D01*
X144383100Y-59669846D01*
X144344046Y-59728295D01*
X144330476Y-59796515D01*
X144303787Y-59860757D01*
X144303714Y-59931057D01*
X144290000Y-60000000D01*
X144303571Y-60068223D01*
X144303498Y-60137786D01*
X144330332Y-60202762D01*
X144344046Y-60271705D01*
X144382690Y-60329541D01*
X144409244Y-60393837D01*
X163673353Y-89290000D01*
X155000000Y-89290000D01*
X154931777Y-89303571D01*
X154862214Y-89303498D01*
X154797238Y-89330332D01*
X154728295Y-89344046D01*
X154670459Y-89382690D01*
X154606163Y-89409244D01*
X154556404Y-89458899D01*
X154497954Y-89497954D01*
X154459307Y-89555794D01*
X154410070Y-89604928D01*
X154383100Y-89669846D01*
X154344046Y-89728295D01*
X154330476Y-89796515D01*
X154303787Y-89860757D01*
X154303714Y-89931057D01*
X154290000Y-90000000D01*
X154303571Y-90068223D01*
X154303498Y-90137786D01*
X154330332Y-90202762D01*
X154344046Y-90271705D01*
X154382690Y-90329541D01*
X154409244Y-90393837D01*
X173673353Y-119290000D01*
X159443957Y-119290000D01*
X159759383Y-118884092D01*
X159897273Y-118381784D01*
X159832443Y-117864943D01*
X159574759Y-117412254D01*
X159163455Y-117092635D01*
X159116683Y-117069212D01*
X158614375Y-116931322D01*
X158097533Y-116996153D01*
X157644845Y-117253836D01*
X157325225Y-117665140D01*
X157187335Y-118167448D01*
X157252166Y-118684290D01*
X157509849Y-119136978D01*
X157706766Y-119290000D01*
X140000000Y-119290000D01*
X139728295Y-119344046D01*
X139497954Y-119497954D01*
X139344046Y-119728295D01*
X139315262Y-119873000D01*
X130684738Y-119873000D01*
X130655954Y-119728295D01*
X130502046Y-119497954D01*
X130271705Y-119344046D01*
X130000000Y-119290000D01*
X96326647Y-119290000D01*
X98343724Y-116264383D01*
X152664769Y-116264383D01*
X152867582Y-116755229D01*
X153242796Y-117131098D01*
X153733287Y-117334768D01*
X154264383Y-117335231D01*
X154755229Y-117132418D01*
X155131098Y-116757204D01*
X155334768Y-116266713D01*
X155335231Y-115735617D01*
X155132418Y-115244771D01*
X154757204Y-114868902D01*
X154266713Y-114665232D01*
X153735617Y-114664769D01*
X153244771Y-114867582D01*
X152868902Y-115242796D01*
X152665232Y-115733287D01*
X152664769Y-116264383D01*
X98343724Y-116264383D01*
X100329480Y-113285750D01*
X121465000Y-113285750D01*
X121465000Y-114026310D01*
X121561673Y-114259699D01*
X121740302Y-114438327D01*
X121973691Y-114535000D01*
X122714250Y-114535000D01*
X122873000Y-114376250D01*
X122873000Y-113127000D01*
X121623750Y-113127000D01*
X121465000Y-113285750D01*
X100329480Y-113285750D01*
X101204186Y-111973690D01*
X121465000Y-111973690D01*
X121465000Y-112714250D01*
X121623750Y-112873000D01*
X122873000Y-112873000D01*
X122873000Y-111623750D01*
X123127000Y-111623750D01*
X123127000Y-112873000D01*
X123147000Y-112873000D01*
X123147000Y-113127000D01*
X123127000Y-113127000D01*
X123127000Y-114376250D01*
X123285750Y-114535000D01*
X124026309Y-114535000D01*
X124259698Y-114438327D01*
X124438327Y-114259699D01*
X124494119Y-114125006D01*
X124669357Y-114300551D01*
X125233330Y-114534733D01*
X125843991Y-114535265D01*
X126408371Y-114302068D01*
X126543226Y-114167448D01*
X149187335Y-114167448D01*
X149252166Y-114684290D01*
X149509849Y-115136978D01*
X149921153Y-115456598D01*
X149967925Y-115480020D01*
X150470233Y-115617910D01*
X150987075Y-115553080D01*
X151439764Y-115295396D01*
X151759383Y-114884092D01*
X151897273Y-114381784D01*
X151885227Y-114285750D01*
X161465000Y-114285750D01*
X161465000Y-115026310D01*
X161561673Y-115259699D01*
X161740302Y-115438327D01*
X161973691Y-115535000D01*
X162714250Y-115535000D01*
X162873000Y-115376250D01*
X162873000Y-114127000D01*
X161623750Y-114127000D01*
X161465000Y-114285750D01*
X151885227Y-114285750D01*
X151832443Y-113864943D01*
X151574759Y-113412254D01*
X151163455Y-113092635D01*
X151116683Y-113069212D01*
X150768714Y-112973690D01*
X161465000Y-112973690D01*
X161465000Y-113714250D01*
X161623750Y-113873000D01*
X162873000Y-113873000D01*
X162873000Y-112623750D01*
X163127000Y-112623750D01*
X163127000Y-113873000D01*
X163147000Y-113873000D01*
X163147000Y-114127000D01*
X163127000Y-114127000D01*
X163127000Y-115376250D01*
X163285750Y-115535000D01*
X164026309Y-115535000D01*
X164259698Y-115438327D01*
X164438327Y-115259699D01*
X164494119Y-115125006D01*
X164669357Y-115300551D01*
X165233330Y-115534733D01*
X165843991Y-115535265D01*
X166408371Y-115302068D01*
X166840551Y-114870643D01*
X167074733Y-114306670D01*
X167075265Y-113696009D01*
X166842068Y-113131629D01*
X166410643Y-112699449D01*
X165846670Y-112465267D01*
X165236009Y-112464735D01*
X164671629Y-112697932D01*
X164494159Y-112875092D01*
X164438327Y-112740301D01*
X164259698Y-112561673D01*
X164026309Y-112465000D01*
X163285750Y-112465000D01*
X163127000Y-112623750D01*
X162873000Y-112623750D01*
X162714250Y-112465000D01*
X161973691Y-112465000D01*
X161740302Y-112561673D01*
X161561673Y-112740301D01*
X161465000Y-112973690D01*
X150768714Y-112973690D01*
X150614375Y-112931322D01*
X150097533Y-112996153D01*
X149644845Y-113253836D01*
X149325225Y-113665140D01*
X149187335Y-114167448D01*
X126543226Y-114167448D01*
X126840551Y-113870643D01*
X127074733Y-113306670D01*
X127075265Y-112696009D01*
X126896921Y-112264383D01*
X144664769Y-112264383D01*
X144867582Y-112755229D01*
X145242796Y-113131098D01*
X145733287Y-113334768D01*
X146264383Y-113335231D01*
X146755229Y-113132418D01*
X147131098Y-112757204D01*
X147334768Y-112266713D01*
X147335231Y-111735617D01*
X147132418Y-111244771D01*
X146757204Y-110868902D01*
X146266713Y-110665232D01*
X145735617Y-110664769D01*
X145244771Y-110867582D01*
X144868902Y-111242796D01*
X144665232Y-111733287D01*
X144664769Y-112264383D01*
X126896921Y-112264383D01*
X126842068Y-112131629D01*
X126410643Y-111699449D01*
X125846670Y-111465267D01*
X125236009Y-111464735D01*
X124671629Y-111697932D01*
X124494159Y-111875092D01*
X124438327Y-111740301D01*
X124259698Y-111561673D01*
X124026309Y-111465000D01*
X123285750Y-111465000D01*
X123127000Y-111623750D01*
X122873000Y-111623750D01*
X122714250Y-111465000D01*
X121973691Y-111465000D01*
X121740302Y-111561673D01*
X121561673Y-111740301D01*
X121465000Y-111973690D01*
X101204186Y-111973690D01*
X102408347Y-110167448D01*
X141187335Y-110167448D01*
X141252166Y-110684290D01*
X141509849Y-111136978D01*
X141921153Y-111456598D01*
X141967925Y-111480020D01*
X142470233Y-111617910D01*
X142987075Y-111553080D01*
X143439764Y-111295396D01*
X143759383Y-110884092D01*
X143897273Y-110381784D01*
X143832443Y-109864943D01*
X143574759Y-109412254D01*
X143163455Y-109092635D01*
X143116683Y-109069212D01*
X142614375Y-108931322D01*
X142097533Y-108996153D01*
X141644845Y-109253836D01*
X141325225Y-109665140D01*
X141187335Y-110167448D01*
X102408347Y-110167448D01*
X103677057Y-108264383D01*
X136664769Y-108264383D01*
X136867582Y-108755229D01*
X137242796Y-109131098D01*
X137733287Y-109334768D01*
X138264383Y-109335231D01*
X138755229Y-109132418D01*
X139131098Y-108757204D01*
X139334768Y-108266713D01*
X139335231Y-107735617D01*
X139132418Y-107244771D01*
X138757204Y-106868902D01*
X138266713Y-106665232D01*
X137735617Y-106664769D01*
X137244771Y-106867582D01*
X136868902Y-107242796D01*
X136665232Y-107733287D01*
X136664769Y-108264383D01*
X103677057Y-108264383D01*
X104996147Y-106285750D01*
X109465000Y-106285750D01*
X109465000Y-107026310D01*
X109561673Y-107259699D01*
X109740302Y-107438327D01*
X109973691Y-107535000D01*
X110714250Y-107535000D01*
X110873000Y-107376250D01*
X110873000Y-106127000D01*
X109623750Y-106127000D01*
X109465000Y-106285750D01*
X104996147Y-106285750D01*
X105870853Y-104973690D01*
X109465000Y-104973690D01*
X109465000Y-105714250D01*
X109623750Y-105873000D01*
X110873000Y-105873000D01*
X110873000Y-104623750D01*
X111127000Y-104623750D01*
X111127000Y-105873000D01*
X111147000Y-105873000D01*
X111147000Y-106127000D01*
X111127000Y-106127000D01*
X111127000Y-107376250D01*
X111285750Y-107535000D01*
X112026309Y-107535000D01*
X112259698Y-107438327D01*
X112438327Y-107259699D01*
X112494119Y-107125006D01*
X112669357Y-107300551D01*
X113233330Y-107534733D01*
X113843991Y-107535265D01*
X114408371Y-107302068D01*
X114840551Y-106870643D01*
X115074733Y-106306670D01*
X115074854Y-106167448D01*
X133187335Y-106167448D01*
X133252166Y-106684290D01*
X133509849Y-107136978D01*
X133921153Y-107456598D01*
X133967925Y-107480020D01*
X134470233Y-107617910D01*
X134987075Y-107553080D01*
X135439764Y-107295396D01*
X135759383Y-106884092D01*
X135897273Y-106381784D01*
X135885227Y-106285750D01*
X153465000Y-106285750D01*
X153465000Y-107026310D01*
X153561673Y-107259699D01*
X153740302Y-107438327D01*
X153973691Y-107535000D01*
X154714250Y-107535000D01*
X154873000Y-107376250D01*
X154873000Y-106127000D01*
X153623750Y-106127000D01*
X153465000Y-106285750D01*
X135885227Y-106285750D01*
X135832443Y-105864943D01*
X135574759Y-105412254D01*
X135163455Y-105092635D01*
X135116683Y-105069212D01*
X134768714Y-104973690D01*
X153465000Y-104973690D01*
X153465000Y-105714250D01*
X153623750Y-105873000D01*
X154873000Y-105873000D01*
X154873000Y-104623750D01*
X155127000Y-104623750D01*
X155127000Y-105873000D01*
X155147000Y-105873000D01*
X155147000Y-106127000D01*
X155127000Y-106127000D01*
X155127000Y-107376250D01*
X155285750Y-107535000D01*
X156026309Y-107535000D01*
X156259698Y-107438327D01*
X156438327Y-107259699D01*
X156494119Y-107125006D01*
X156669357Y-107300551D01*
X157233330Y-107534733D01*
X157843991Y-107535265D01*
X158408371Y-107302068D01*
X158840551Y-106870643D01*
X159074733Y-106306670D01*
X159075265Y-105696009D01*
X158842068Y-105131629D01*
X158410643Y-104699449D01*
X157846670Y-104465267D01*
X157236009Y-104464735D01*
X156671629Y-104697932D01*
X156494159Y-104875092D01*
X156438327Y-104740301D01*
X156259698Y-104561673D01*
X156026309Y-104465000D01*
X155285750Y-104465000D01*
X155127000Y-104623750D01*
X154873000Y-104623750D01*
X154714250Y-104465000D01*
X153973691Y-104465000D01*
X153740302Y-104561673D01*
X153561673Y-104740301D01*
X153465000Y-104973690D01*
X134768714Y-104973690D01*
X134614375Y-104931322D01*
X134097533Y-104996153D01*
X133644845Y-105253836D01*
X133325225Y-105665140D01*
X133187335Y-106167448D01*
X115074854Y-106167448D01*
X115075265Y-105696009D01*
X114842068Y-105131629D01*
X114410643Y-104699449D01*
X113846670Y-104465267D01*
X113236009Y-104464735D01*
X112671629Y-104697932D01*
X112494159Y-104875092D01*
X112438327Y-104740301D01*
X112259698Y-104561673D01*
X112026309Y-104465000D01*
X111285750Y-104465000D01*
X111127000Y-104623750D01*
X110873000Y-104623750D01*
X110714250Y-104465000D01*
X109973691Y-104465000D01*
X109740302Y-104561673D01*
X109561673Y-104740301D01*
X109465000Y-104973690D01*
X105870853Y-104973690D01*
X106343724Y-104264383D01*
X128664769Y-104264383D01*
X128867582Y-104755229D01*
X129242796Y-105131098D01*
X129733287Y-105334768D01*
X130264383Y-105335231D01*
X130755229Y-105132418D01*
X131131098Y-104757204D01*
X131334768Y-104266713D01*
X131335231Y-103735617D01*
X131132418Y-103244771D01*
X130757204Y-102868902D01*
X130266713Y-102665232D01*
X129735617Y-102664769D01*
X129244771Y-102867582D01*
X128868902Y-103242796D01*
X128665232Y-103733287D01*
X128664769Y-104264383D01*
X106343724Y-104264383D01*
X107741680Y-102167448D01*
X125187335Y-102167448D01*
X125252166Y-102684290D01*
X125509849Y-103136978D01*
X125921153Y-103456598D01*
X125967925Y-103480020D01*
X126470233Y-103617910D01*
X126987075Y-103553080D01*
X127439764Y-103295396D01*
X127759383Y-102884092D01*
X127897273Y-102381784D01*
X127832443Y-101864943D01*
X127574759Y-101412254D01*
X127163455Y-101092635D01*
X127116683Y-101069212D01*
X126614375Y-100931322D01*
X126097533Y-100996153D01*
X125644845Y-101253836D01*
X125325225Y-101665140D01*
X125187335Y-102167448D01*
X107741680Y-102167448D01*
X109010390Y-100264383D01*
X120664769Y-100264383D01*
X120867582Y-100755229D01*
X121242796Y-101131098D01*
X121733287Y-101334768D01*
X122264383Y-101335231D01*
X122755229Y-101132418D01*
X123131098Y-100757204D01*
X123334768Y-100266713D01*
X123335231Y-99735617D01*
X123132418Y-99244771D01*
X122757204Y-98868902D01*
X122266713Y-98665232D01*
X121735617Y-98664769D01*
X121244771Y-98867582D01*
X120868902Y-99242796D01*
X120665232Y-99733287D01*
X120664769Y-100264383D01*
X109010390Y-100264383D01*
X110408347Y-98167448D01*
X117187335Y-98167448D01*
X117252166Y-98684290D01*
X117509849Y-99136978D01*
X117921153Y-99456598D01*
X117967925Y-99480020D01*
X118470233Y-99617910D01*
X118987075Y-99553080D01*
X119439764Y-99295396D01*
X119759383Y-98884092D01*
X119897273Y-98381784D01*
X119832443Y-97864943D01*
X119574759Y-97412254D01*
X119411967Y-97285750D01*
X135465000Y-97285750D01*
X135465000Y-98026310D01*
X135561673Y-98259699D01*
X135740302Y-98438327D01*
X135973691Y-98535000D01*
X136714250Y-98535000D01*
X136873000Y-98376250D01*
X136873000Y-97127000D01*
X135623750Y-97127000D01*
X135465000Y-97285750D01*
X119411967Y-97285750D01*
X119163455Y-97092635D01*
X119116683Y-97069212D01*
X118614375Y-96931322D01*
X118097533Y-96996153D01*
X117644845Y-97253836D01*
X117325225Y-97665140D01*
X117187335Y-98167448D01*
X110408347Y-98167448D01*
X111677058Y-96264383D01*
X112664769Y-96264383D01*
X112867582Y-96755229D01*
X113242796Y-97131098D01*
X113733287Y-97334768D01*
X114264383Y-97335231D01*
X114755229Y-97132418D01*
X115131098Y-96757204D01*
X115334768Y-96266713D01*
X115335023Y-95973690D01*
X135465000Y-95973690D01*
X135465000Y-96714250D01*
X135623750Y-96873000D01*
X136873000Y-96873000D01*
X136873000Y-95623750D01*
X137127000Y-95623750D01*
X137127000Y-96873000D01*
X137147000Y-96873000D01*
X137147000Y-97127000D01*
X137127000Y-97127000D01*
X137127000Y-98376250D01*
X137285750Y-98535000D01*
X138026309Y-98535000D01*
X138259698Y-98438327D01*
X138438327Y-98259699D01*
X138494119Y-98125006D01*
X138669357Y-98300551D01*
X139233330Y-98534733D01*
X139843991Y-98535265D01*
X140408371Y-98302068D01*
X140840551Y-97870643D01*
X141074733Y-97306670D01*
X141074751Y-97285750D01*
X146465000Y-97285750D01*
X146465000Y-98026310D01*
X146561673Y-98259699D01*
X146740302Y-98438327D01*
X146973691Y-98535000D01*
X147714250Y-98535000D01*
X147873000Y-98376250D01*
X147873000Y-97127000D01*
X146623750Y-97127000D01*
X146465000Y-97285750D01*
X141074751Y-97285750D01*
X141075265Y-96696009D01*
X140842068Y-96131629D01*
X140684405Y-95973690D01*
X146465000Y-95973690D01*
X146465000Y-96714250D01*
X146623750Y-96873000D01*
X147873000Y-96873000D01*
X147873000Y-95623750D01*
X148127000Y-95623750D01*
X148127000Y-96873000D01*
X148147000Y-96873000D01*
X148147000Y-97127000D01*
X148127000Y-97127000D01*
X148127000Y-98376250D01*
X148285750Y-98535000D01*
X149026309Y-98535000D01*
X149259698Y-98438327D01*
X149438327Y-98259699D01*
X149494119Y-98125006D01*
X149669357Y-98300551D01*
X150233330Y-98534733D01*
X150843991Y-98535265D01*
X151408371Y-98302068D01*
X151840551Y-97870643D01*
X152074733Y-97306670D01*
X152075265Y-96696009D01*
X151842068Y-96131629D01*
X151410643Y-95699449D01*
X150846670Y-95465267D01*
X150236009Y-95464735D01*
X149671629Y-95697932D01*
X149494159Y-95875092D01*
X149438327Y-95740301D01*
X149259698Y-95561673D01*
X149026309Y-95465000D01*
X148285750Y-95465000D01*
X148127000Y-95623750D01*
X147873000Y-95623750D01*
X147714250Y-95465000D01*
X146973691Y-95465000D01*
X146740302Y-95561673D01*
X146561673Y-95740301D01*
X146465000Y-95973690D01*
X140684405Y-95973690D01*
X140410643Y-95699449D01*
X139846670Y-95465267D01*
X139236009Y-95464735D01*
X138671629Y-95697932D01*
X138494159Y-95875092D01*
X138438327Y-95740301D01*
X138259698Y-95561673D01*
X138026309Y-95465000D01*
X137285750Y-95465000D01*
X137127000Y-95623750D01*
X136873000Y-95623750D01*
X136714250Y-95465000D01*
X135973691Y-95465000D01*
X135740302Y-95561673D01*
X135561673Y-95740301D01*
X135465000Y-95973690D01*
X115335023Y-95973690D01*
X115335231Y-95735617D01*
X115132418Y-95244771D01*
X114757204Y-94868902D01*
X114266713Y-94665232D01*
X113735617Y-94664769D01*
X113244771Y-94867582D01*
X112868902Y-95242796D01*
X112665232Y-95733287D01*
X112664769Y-96264383D01*
X111677058Y-96264383D01*
X115267809Y-90878256D01*
X131806349Y-90878256D01*
X131895821Y-91137332D01*
X132478368Y-91351325D01*
X133098461Y-91326097D01*
X133554179Y-91137332D01*
X133643651Y-90878256D01*
X132725000Y-89959605D01*
X131806349Y-90878256D01*
X115267809Y-90878256D01*
X115590756Y-90393837D01*
X115617309Y-90329541D01*
X115655954Y-90271705D01*
X115669668Y-90202760D01*
X115696502Y-90137785D01*
X115696429Y-90068223D01*
X115710000Y-90000000D01*
X115696286Y-89931057D01*
X115696213Y-89860757D01*
X115669524Y-89796515D01*
X115655954Y-89728295D01*
X115616900Y-89669846D01*
X115589930Y-89604928D01*
X115540693Y-89555794D01*
X115502046Y-89497954D01*
X115443596Y-89458899D01*
X115393837Y-89409244D01*
X115329541Y-89382690D01*
X115271705Y-89344046D01*
X115202762Y-89330332D01*
X115137786Y-89303498D01*
X115068223Y-89303571D01*
X115000000Y-89290000D01*
X106326647Y-89290000D01*
X106329480Y-89285750D01*
X123465000Y-89285750D01*
X123465000Y-90026310D01*
X123561673Y-90259699D01*
X123740302Y-90438327D01*
X123973691Y-90535000D01*
X124714250Y-90535000D01*
X124873000Y-90376250D01*
X124873000Y-89127000D01*
X123623750Y-89127000D01*
X123465000Y-89285750D01*
X106329480Y-89285750D01*
X107204186Y-87973690D01*
X123465000Y-87973690D01*
X123465000Y-88714250D01*
X123623750Y-88873000D01*
X124873000Y-88873000D01*
X124873000Y-87623750D01*
X125127000Y-87623750D01*
X125127000Y-88873000D01*
X125147000Y-88873000D01*
X125147000Y-89127000D01*
X125127000Y-89127000D01*
X125127000Y-90376250D01*
X125285750Y-90535000D01*
X126026309Y-90535000D01*
X126259698Y-90438327D01*
X126438327Y-90259699D01*
X126494119Y-90125006D01*
X126669357Y-90300551D01*
X127233330Y-90534733D01*
X127843991Y-90535265D01*
X128408371Y-90302068D01*
X128840551Y-89870643D01*
X128980599Y-89533368D01*
X131153675Y-89533368D01*
X131178903Y-90153461D01*
X131367668Y-90609179D01*
X131626744Y-90698651D01*
X132545395Y-89780000D01*
X132904605Y-89780000D01*
X133823256Y-90698651D01*
X133975123Y-90646204D01*
X133976838Y-90655317D01*
X134115910Y-90871441D01*
X134328110Y-91016431D01*
X134580000Y-91067440D01*
X135420000Y-91067440D01*
X135655317Y-91023162D01*
X135795600Y-90932892D01*
X136089227Y-91054817D01*
X136508932Y-91055183D01*
X136896829Y-90894907D01*
X137049133Y-90742869D01*
X137074905Y-90938796D01*
X137474137Y-91068279D01*
X137892531Y-91035127D01*
X138125095Y-90938796D01*
X138133058Y-90878256D01*
X138956349Y-90878256D01*
X139045821Y-91137332D01*
X139628368Y-91351325D01*
X140248461Y-91326097D01*
X140704179Y-91137332D01*
X140793651Y-90878256D01*
X139875000Y-89959605D01*
X138956349Y-90878256D01*
X138133058Y-90878256D01*
X138152308Y-90731913D01*
X137600000Y-90179605D01*
X137585858Y-90193748D01*
X137406253Y-90014143D01*
X137420395Y-90000000D01*
X137779605Y-90000000D01*
X138331913Y-90552308D01*
X138485730Y-90532075D01*
X138517668Y-90609179D01*
X138776744Y-90698651D01*
X139695395Y-89780000D01*
X140054605Y-89780000D01*
X140973256Y-90698651D01*
X141232332Y-90609179D01*
X141446325Y-90026632D01*
X141421097Y-89406539D01*
X141232332Y-88950821D01*
X140973256Y-88861349D01*
X140054605Y-89780000D01*
X139695395Y-89780000D01*
X138776744Y-88861349D01*
X138517668Y-88950821D01*
X138334998Y-89448098D01*
X138331913Y-89447692D01*
X137779605Y-90000000D01*
X137420395Y-90000000D01*
X137406253Y-89985858D01*
X137462260Y-89929850D01*
X137546829Y-89894907D01*
X137843864Y-89598390D01*
X137859386Y-89561009D01*
X138152308Y-89268087D01*
X138125095Y-89061204D01*
X138004981Y-89022248D01*
X138005183Y-88791068D01*
X137960012Y-88681744D01*
X138956349Y-88681744D01*
X139875000Y-89600395D01*
X140793651Y-88681744D01*
X140704179Y-88422668D01*
X140121632Y-88208675D01*
X139501539Y-88233903D01*
X139045821Y-88422668D01*
X138956349Y-88681744D01*
X137960012Y-88681744D01*
X137844907Y-88403171D01*
X137548390Y-88106136D01*
X137160773Y-87945183D01*
X136741068Y-87944817D01*
X136353171Y-88105093D01*
X136300168Y-88158004D01*
X136248390Y-88106136D01*
X135860773Y-87945183D01*
X135441068Y-87944817D01*
X135053171Y-88105093D01*
X134756136Y-88401610D01*
X134595183Y-88789227D01*
X134595058Y-88932560D01*
X134580000Y-88932560D01*
X134344683Y-88976838D01*
X134146052Y-89104654D01*
X134082332Y-88950821D01*
X133823256Y-88861349D01*
X132904605Y-89780000D01*
X132545395Y-89780000D01*
X131626744Y-88861349D01*
X131367668Y-88950821D01*
X131153675Y-89533368D01*
X128980599Y-89533368D01*
X129074733Y-89306670D01*
X129075265Y-88696009D01*
X129069371Y-88681744D01*
X131806349Y-88681744D01*
X132725000Y-89600395D01*
X133643651Y-88681744D01*
X133554179Y-88422668D01*
X132971632Y-88208675D01*
X132351539Y-88233903D01*
X131895821Y-88422668D01*
X131806349Y-88681744D01*
X129069371Y-88681744D01*
X128842068Y-88131629D01*
X128410643Y-87699449D01*
X127846670Y-87465267D01*
X127236009Y-87464735D01*
X126671629Y-87697932D01*
X126494159Y-87875092D01*
X126438327Y-87740301D01*
X126259698Y-87561673D01*
X126026309Y-87465000D01*
X125285750Y-87465000D01*
X125127000Y-87623750D01*
X124873000Y-87623750D01*
X124714250Y-87465000D01*
X123973691Y-87465000D01*
X123740302Y-87561673D01*
X123561673Y-87740301D01*
X123465000Y-87973690D01*
X107204186Y-87973690D01*
X107741680Y-87167448D01*
X157187335Y-87167448D01*
X157252166Y-87684290D01*
X157509849Y-88136978D01*
X157921153Y-88456598D01*
X157967925Y-88480020D01*
X158470233Y-88617910D01*
X158987075Y-88553080D01*
X159439764Y-88295396D01*
X159759383Y-87884092D01*
X159897273Y-87381784D01*
X159832443Y-86864943D01*
X159574759Y-86412254D01*
X159163455Y-86092635D01*
X159116683Y-86069212D01*
X158614375Y-85931322D01*
X158097533Y-85996153D01*
X157644845Y-86253836D01*
X157325225Y-86665140D01*
X157187335Y-87167448D01*
X107741680Y-87167448D01*
X109010390Y-85264383D01*
X152664769Y-85264383D01*
X152867582Y-85755229D01*
X153242796Y-86131098D01*
X153733287Y-86334768D01*
X154264383Y-86335231D01*
X154755229Y-86132418D01*
X155131098Y-85757204D01*
X155334768Y-85266713D01*
X155335231Y-84735617D01*
X155132418Y-84244771D01*
X154757204Y-83868902D01*
X154266713Y-83665232D01*
X153735617Y-83664769D01*
X153244771Y-83867582D01*
X152868902Y-84242796D01*
X152665232Y-84733287D01*
X152664769Y-85264383D01*
X109010390Y-85264383D01*
X110408347Y-83167448D01*
X149187335Y-83167448D01*
X149252166Y-83684290D01*
X149509849Y-84136978D01*
X149921153Y-84456598D01*
X149967925Y-84480020D01*
X150470233Y-84617910D01*
X150987075Y-84553080D01*
X151439764Y-84295396D01*
X151759383Y-83884092D01*
X151897273Y-83381784D01*
X151832443Y-82864943D01*
X151574759Y-82412254D01*
X151163455Y-82092635D01*
X151116683Y-82069212D01*
X150614375Y-81931322D01*
X150097533Y-81996153D01*
X149644845Y-82253836D01*
X149325225Y-82665140D01*
X149187335Y-83167448D01*
X110408347Y-83167448D01*
X111677057Y-81264383D01*
X144664769Y-81264383D01*
X144867582Y-81755229D01*
X145242796Y-82131098D01*
X145733287Y-82334768D01*
X146264383Y-82335231D01*
X146755229Y-82132418D01*
X147131098Y-81757204D01*
X147334768Y-81266713D01*
X147335231Y-80735617D01*
X147132418Y-80244771D01*
X146757204Y-79868902D01*
X146266713Y-79665232D01*
X145735617Y-79664769D01*
X145244771Y-79867582D01*
X144868902Y-80242796D01*
X144665232Y-80733287D01*
X144664769Y-81264383D01*
X111677057Y-81264383D01*
X113662813Y-78285750D01*
X116465000Y-78285750D01*
X116465000Y-79026310D01*
X116561673Y-79259699D01*
X116740302Y-79438327D01*
X116973691Y-79535000D01*
X117714250Y-79535000D01*
X117873000Y-79376250D01*
X117873000Y-78127000D01*
X116623750Y-78127000D01*
X116465000Y-78285750D01*
X113662813Y-78285750D01*
X114537519Y-76973690D01*
X116465000Y-76973690D01*
X116465000Y-77714250D01*
X116623750Y-77873000D01*
X117873000Y-77873000D01*
X117873000Y-76623750D01*
X118127000Y-76623750D01*
X118127000Y-77873000D01*
X118147000Y-77873000D01*
X118147000Y-78127000D01*
X118127000Y-78127000D01*
X118127000Y-79376250D01*
X118285750Y-79535000D01*
X119026309Y-79535000D01*
X119259698Y-79438327D01*
X119438327Y-79259699D01*
X119494119Y-79125006D01*
X119669357Y-79300551D01*
X120233330Y-79534733D01*
X120843991Y-79535265D01*
X121408371Y-79302068D01*
X121543226Y-79167448D01*
X141187335Y-79167448D01*
X141252166Y-79684290D01*
X141509849Y-80136978D01*
X141921153Y-80456598D01*
X141967925Y-80480020D01*
X142470233Y-80617910D01*
X142987075Y-80553080D01*
X143439764Y-80295396D01*
X143759383Y-79884092D01*
X143897273Y-79381784D01*
X143832443Y-78864943D01*
X143574759Y-78412254D01*
X143163455Y-78092635D01*
X143116683Y-78069212D01*
X142614375Y-77931322D01*
X142097533Y-77996153D01*
X141644845Y-78253836D01*
X141325225Y-78665140D01*
X141187335Y-79167448D01*
X121543226Y-79167448D01*
X121840551Y-78870643D01*
X122074733Y-78306670D01*
X122075265Y-77696009D01*
X121896921Y-77264383D01*
X136664769Y-77264383D01*
X136867582Y-77755229D01*
X137242796Y-78131098D01*
X137733287Y-78334768D01*
X138264383Y-78335231D01*
X138755229Y-78132418D01*
X139131098Y-77757204D01*
X139334768Y-77266713D01*
X139335231Y-76735617D01*
X139132418Y-76244771D01*
X138757204Y-75868902D01*
X138266713Y-75665232D01*
X137735617Y-75664769D01*
X137244771Y-75867582D01*
X136868902Y-76242796D01*
X136665232Y-76733287D01*
X136664769Y-77264383D01*
X121896921Y-77264383D01*
X121842068Y-77131629D01*
X121410643Y-76699449D01*
X120846670Y-76465267D01*
X120236009Y-76464735D01*
X119671629Y-76697932D01*
X119494159Y-76875092D01*
X119438327Y-76740301D01*
X119259698Y-76561673D01*
X119026309Y-76465000D01*
X118285750Y-76465000D01*
X118127000Y-76623750D01*
X117873000Y-76623750D01*
X117714250Y-76465000D01*
X116973691Y-76465000D01*
X116740302Y-76561673D01*
X116561673Y-76740301D01*
X116465000Y-76973690D01*
X114537519Y-76973690D01*
X115741680Y-75167448D01*
X133187335Y-75167448D01*
X133252166Y-75684290D01*
X133509849Y-76136978D01*
X133921153Y-76456598D01*
X133967925Y-76480020D01*
X134470233Y-76617910D01*
X134987075Y-76553080D01*
X135439764Y-76295396D01*
X135759383Y-75884092D01*
X135897273Y-75381784D01*
X135832443Y-74864943D01*
X135574759Y-74412254D01*
X135411967Y-74285750D01*
X146465000Y-74285750D01*
X146465000Y-75026310D01*
X146561673Y-75259699D01*
X146740302Y-75438327D01*
X146973691Y-75535000D01*
X147714250Y-75535000D01*
X147873000Y-75376250D01*
X147873000Y-74127000D01*
X146623750Y-74127000D01*
X146465000Y-74285750D01*
X135411967Y-74285750D01*
X135163455Y-74092635D01*
X135116683Y-74069212D01*
X134614375Y-73931322D01*
X134097533Y-73996153D01*
X133644845Y-74253836D01*
X133325225Y-74665140D01*
X133187335Y-75167448D01*
X115741680Y-75167448D01*
X117010390Y-73264383D01*
X128664769Y-73264383D01*
X128867582Y-73755229D01*
X129242796Y-74131098D01*
X129733287Y-74334768D01*
X130264383Y-74335231D01*
X130755229Y-74132418D01*
X131131098Y-73757204D01*
X131334768Y-73266713D01*
X131335023Y-72973690D01*
X146465000Y-72973690D01*
X146465000Y-73714250D01*
X146623750Y-73873000D01*
X147873000Y-73873000D01*
X147873000Y-72623750D01*
X148127000Y-72623750D01*
X148127000Y-73873000D01*
X148147000Y-73873000D01*
X148147000Y-74127000D01*
X148127000Y-74127000D01*
X148127000Y-75376250D01*
X148285750Y-75535000D01*
X149026309Y-75535000D01*
X149259698Y-75438327D01*
X149438327Y-75259699D01*
X149494119Y-75125006D01*
X149669357Y-75300551D01*
X150233330Y-75534733D01*
X150843991Y-75535265D01*
X151408371Y-75302068D01*
X151840551Y-74870643D01*
X152074733Y-74306670D01*
X152075265Y-73696009D01*
X151842068Y-73131629D01*
X151410643Y-72699449D01*
X150846670Y-72465267D01*
X150236009Y-72464735D01*
X149671629Y-72697932D01*
X149494159Y-72875092D01*
X149438327Y-72740301D01*
X149259698Y-72561673D01*
X149026309Y-72465000D01*
X148285750Y-72465000D01*
X148127000Y-72623750D01*
X147873000Y-72623750D01*
X147714250Y-72465000D01*
X146973691Y-72465000D01*
X146740302Y-72561673D01*
X146561673Y-72740301D01*
X146465000Y-72973690D01*
X131335023Y-72973690D01*
X131335231Y-72735617D01*
X131132418Y-72244771D01*
X130757204Y-71868902D01*
X130266713Y-71665232D01*
X129735617Y-71664769D01*
X129244771Y-71867582D01*
X128868902Y-72242796D01*
X128665232Y-72733287D01*
X128664769Y-73264383D01*
X117010390Y-73264383D01*
X118408347Y-71167448D01*
X125187335Y-71167448D01*
X125252166Y-71684290D01*
X125509849Y-72136978D01*
X125921153Y-72456598D01*
X125967925Y-72480020D01*
X126470233Y-72617910D01*
X126987075Y-72553080D01*
X127439764Y-72295396D01*
X127759383Y-71884092D01*
X127897273Y-71381784D01*
X127832443Y-70864943D01*
X127574759Y-70412254D01*
X127163455Y-70092635D01*
X127116683Y-70069212D01*
X126614375Y-69931322D01*
X126097533Y-69996153D01*
X125644845Y-70253836D01*
X125325225Y-70665140D01*
X125187335Y-71167448D01*
X118408347Y-71167448D01*
X119677057Y-69264383D01*
X120664769Y-69264383D01*
X120867582Y-69755229D01*
X121242796Y-70131098D01*
X121733287Y-70334768D01*
X122264383Y-70335231D01*
X122755229Y-70132418D01*
X123131098Y-69757204D01*
X123334768Y-69266713D01*
X123335231Y-68735617D01*
X123132418Y-68244771D01*
X122757204Y-67868902D01*
X122266713Y-67665232D01*
X121735617Y-67664769D01*
X121244771Y-67867582D01*
X120868902Y-68242796D01*
X120665232Y-68733287D01*
X120664769Y-69264383D01*
X119677057Y-69264383D01*
X121662812Y-66285750D01*
X129465000Y-66285750D01*
X129465000Y-67026310D01*
X129561673Y-67259699D01*
X129740302Y-67438327D01*
X129973691Y-67535000D01*
X130714250Y-67535000D01*
X130873000Y-67376250D01*
X130873000Y-66127000D01*
X129623750Y-66127000D01*
X129465000Y-66285750D01*
X121662812Y-66285750D01*
X122537519Y-64973690D01*
X129465000Y-64973690D01*
X129465000Y-65714250D01*
X129623750Y-65873000D01*
X130873000Y-65873000D01*
X130873000Y-64623750D01*
X131127000Y-64623750D01*
X131127000Y-65873000D01*
X131147000Y-65873000D01*
X131147000Y-66127000D01*
X131127000Y-66127000D01*
X131127000Y-67376250D01*
X131285750Y-67535000D01*
X132026309Y-67535000D01*
X132259698Y-67438327D01*
X132438327Y-67259699D01*
X132494119Y-67125006D01*
X132669357Y-67300551D01*
X133233330Y-67534733D01*
X133843991Y-67535265D01*
X134408371Y-67302068D01*
X134840551Y-66870643D01*
X135074733Y-66306670D01*
X135075265Y-65696009D01*
X134842068Y-65131629D01*
X134410643Y-64699449D01*
X133846670Y-64465267D01*
X133236009Y-64464735D01*
X132671629Y-64697932D01*
X132494159Y-64875092D01*
X132438327Y-64740301D01*
X132259698Y-64561673D01*
X132026309Y-64465000D01*
X131285750Y-64465000D01*
X131127000Y-64623750D01*
X130873000Y-64623750D01*
X130714250Y-64465000D01*
X129973691Y-64465000D01*
X129740302Y-64561673D01*
X129561673Y-64740301D01*
X129465000Y-64973690D01*
X122537519Y-64973690D01*
X122996145Y-64285750D01*
X138465000Y-64285750D01*
X138465000Y-65026310D01*
X138561673Y-65259699D01*
X138740302Y-65438327D01*
X138973691Y-65535000D01*
X139714250Y-65535000D01*
X139873000Y-65376250D01*
X139873000Y-64127000D01*
X138623750Y-64127000D01*
X138465000Y-64285750D01*
X122996145Y-64285750D01*
X123870852Y-62973690D01*
X138465000Y-62973690D01*
X138465000Y-63714250D01*
X138623750Y-63873000D01*
X139873000Y-63873000D01*
X139873000Y-62623750D01*
X140127000Y-62623750D01*
X140127000Y-63873000D01*
X140147000Y-63873000D01*
X140147000Y-64127000D01*
X140127000Y-64127000D01*
X140127000Y-65376250D01*
X140285750Y-65535000D01*
X141026309Y-65535000D01*
X141259698Y-65438327D01*
X141438327Y-65259699D01*
X141494119Y-65125006D01*
X141669357Y-65300551D01*
X142233330Y-65534733D01*
X142843991Y-65535265D01*
X143408371Y-65302068D01*
X143840551Y-64870643D01*
X144074733Y-64306670D01*
X144075265Y-63696009D01*
X143842068Y-63131629D01*
X143410643Y-62699449D01*
X142846670Y-62465267D01*
X142236009Y-62464735D01*
X141671629Y-62697932D01*
X141494159Y-62875092D01*
X141438327Y-62740301D01*
X141259698Y-62561673D01*
X141026309Y-62465000D01*
X140285750Y-62465000D01*
X140127000Y-62623750D01*
X139873000Y-62623750D01*
X139714250Y-62465000D01*
X138973691Y-62465000D01*
X138740302Y-62561673D01*
X138561673Y-62740301D01*
X138465000Y-62973690D01*
X123870852Y-62973690D01*
X125590756Y-60393837D01*
X125617309Y-60329541D01*
X125655954Y-60271705D01*
X125669668Y-60202760D01*
X125696502Y-60137785D01*
X125696429Y-60068223D01*
X125710000Y-60000000D01*
X125696286Y-59931057D01*
X125696213Y-59860757D01*
X125669524Y-59796515D01*
X125655954Y-59728295D01*
X125616900Y-59669846D01*
X125589930Y-59604928D01*
X125540693Y-59555794D01*
X125502046Y-59497954D01*
X125443596Y-59458899D01*
X125393837Y-59409244D01*
X125329541Y-59382690D01*
X125271705Y-59344046D01*
X125202762Y-59330332D01*
X125137786Y-59303498D01*
X125068223Y-59303571D01*
X125000000Y-59290000D01*
X116326647Y-59290000D01*
X117662813Y-57285750D01*
X126465000Y-57285750D01*
X126465000Y-58026310D01*
X126561673Y-58259699D01*
X126740302Y-58438327D01*
X126973691Y-58535000D01*
X127714250Y-58535000D01*
X127873000Y-58376250D01*
X127873000Y-57127000D01*
X126623750Y-57127000D01*
X126465000Y-57285750D01*
X117662813Y-57285750D01*
X118537519Y-55973690D01*
X126465000Y-55973690D01*
X126465000Y-56714250D01*
X126623750Y-56873000D01*
X127873000Y-56873000D01*
X127873000Y-55623750D01*
X128127000Y-55623750D01*
X128127000Y-56873000D01*
X128147000Y-56873000D01*
X128147000Y-57127000D01*
X128127000Y-57127000D01*
X128127000Y-58376250D01*
X128285750Y-58535000D01*
X129026309Y-58535000D01*
X129259698Y-58438327D01*
X129438327Y-58259699D01*
X129494119Y-58125006D01*
X129669357Y-58300551D01*
X130233330Y-58534733D01*
X130843991Y-58535265D01*
X131408371Y-58302068D01*
X131840551Y-57870643D01*
X132074733Y-57306670D01*
X132075265Y-56696009D01*
X131842068Y-56131629D01*
X131410643Y-55699449D01*
X130846670Y-55465267D01*
X130236009Y-55464735D01*
X129671629Y-55697932D01*
X129494159Y-55875092D01*
X129438327Y-55740301D01*
X129259698Y-55561673D01*
X129026309Y-55465000D01*
X128285750Y-55465000D01*
X128127000Y-55623750D01*
X127873000Y-55623750D01*
X127714250Y-55465000D01*
X126973691Y-55465000D01*
X126740302Y-55561673D01*
X126561673Y-55740301D01*
X126465000Y-55973690D01*
X118537519Y-55973690D01*
X120329479Y-53285750D01*
X133465000Y-53285750D01*
X133465000Y-54026310D01*
X133561673Y-54259699D01*
X133740302Y-54438327D01*
X133973691Y-54535000D01*
X134714250Y-54535000D01*
X134873000Y-54376250D01*
X134873000Y-53127000D01*
X133623750Y-53127000D01*
X133465000Y-53285750D01*
X120329479Y-53285750D01*
X121204185Y-51973690D01*
X133465000Y-51973690D01*
X133465000Y-52714250D01*
X133623750Y-52873000D01*
X134873000Y-52873000D01*
X134873000Y-51623750D01*
X135127000Y-51623750D01*
X135127000Y-52873000D01*
X135147000Y-52873000D01*
X135147000Y-53127000D01*
X135127000Y-53127000D01*
X135127000Y-54376250D01*
X135285750Y-54535000D01*
X136026309Y-54535000D01*
X136259698Y-54438327D01*
X136438327Y-54259699D01*
X136494119Y-54125006D01*
X136669357Y-54300551D01*
X137233330Y-54534733D01*
X137843991Y-54535265D01*
X138408371Y-54302068D01*
X138543226Y-54167448D01*
X147187335Y-54167448D01*
X147252166Y-54684290D01*
X147509849Y-55136978D01*
X147921153Y-55456598D01*
X147967925Y-55480020D01*
X148470233Y-55617910D01*
X148987075Y-55553080D01*
X149439764Y-55295396D01*
X149759383Y-54884092D01*
X149897273Y-54381784D01*
X149832443Y-53864943D01*
X149574759Y-53412254D01*
X149163455Y-53092635D01*
X149116683Y-53069212D01*
X148614375Y-52931322D01*
X148097533Y-52996153D01*
X147644845Y-53253836D01*
X147325225Y-53665140D01*
X147187335Y-54167448D01*
X138543226Y-54167448D01*
X138840551Y-53870643D01*
X139074733Y-53306670D01*
X139075265Y-52696009D01*
X138896921Y-52264383D01*
X142664769Y-52264383D01*
X142867582Y-52755229D01*
X143242796Y-53131098D01*
X143733287Y-53334768D01*
X144264383Y-53335231D01*
X144755229Y-53132418D01*
X145131098Y-52757204D01*
X145334768Y-52266713D01*
X145335231Y-51735617D01*
X145132418Y-51244771D01*
X144757204Y-50868902D01*
X144266713Y-50665232D01*
X143735617Y-50664769D01*
X143244771Y-50867582D01*
X142868902Y-51242796D01*
X142665232Y-51733287D01*
X142664769Y-52264383D01*
X138896921Y-52264383D01*
X138842068Y-52131629D01*
X138410643Y-51699449D01*
X137846670Y-51465267D01*
X137236009Y-51464735D01*
X136671629Y-51697932D01*
X136494159Y-51875092D01*
X136438327Y-51740301D01*
X136259698Y-51561673D01*
X136026309Y-51465000D01*
X135285750Y-51465000D01*
X135127000Y-51623750D01*
X134873000Y-51623750D01*
X134714250Y-51465000D01*
X133973691Y-51465000D01*
X133740302Y-51561673D01*
X133561673Y-51740301D01*
X133465000Y-51973690D01*
X121204185Y-51973690D01*
X122408346Y-50167448D01*
X139187335Y-50167448D01*
X139252166Y-50684290D01*
X139509849Y-51136978D01*
X139921153Y-51456598D01*
X139967925Y-51480020D01*
X140470233Y-51617910D01*
X140987075Y-51553080D01*
X141439764Y-51295396D01*
X141759383Y-50884092D01*
X141897273Y-50381784D01*
X141832443Y-49864943D01*
X141574759Y-49412254D01*
X141163455Y-49092635D01*
X141116683Y-49069212D01*
X140614375Y-48931322D01*
X140097533Y-48996153D01*
X139644845Y-49253836D01*
X139325225Y-49665140D01*
X139187335Y-50167448D01*
X122408346Y-50167448D01*
X123677056Y-48264383D01*
X134664769Y-48264383D01*
X134867582Y-48755229D01*
X135242796Y-49131098D01*
X135733287Y-49334768D01*
X136264383Y-49335231D01*
X136755229Y-49132418D01*
X137131098Y-48757204D01*
X137334768Y-48266713D01*
X137335231Y-47735617D01*
X137132418Y-47244771D01*
X136757204Y-46868902D01*
X136266713Y-46665232D01*
X135735617Y-46664769D01*
X135244771Y-46867582D01*
X134868902Y-47242796D01*
X134665232Y-47733287D01*
X134664769Y-48264383D01*
X123677056Y-48264383D01*
X125075014Y-46167448D01*
X131187335Y-46167448D01*
X131252166Y-46684290D01*
X131509849Y-47136978D01*
X131921153Y-47456598D01*
X131967925Y-47480020D01*
X132470233Y-47617910D01*
X132987075Y-47553080D01*
X133439764Y-47295396D01*
X133759383Y-46884092D01*
X133897273Y-46381784D01*
X133832443Y-45864943D01*
X133574759Y-45412254D01*
X133163455Y-45092635D01*
X133116683Y-45069212D01*
X132614375Y-44931322D01*
X132097533Y-44996153D01*
X131644845Y-45253836D01*
X131325225Y-45665140D01*
X131187335Y-46167448D01*
X125075014Y-46167448D01*
X126665189Y-43782187D01*
X126664769Y-44264383D01*
X126867582Y-44755229D01*
X127242796Y-45131098D01*
X127733287Y-45334768D01*
X128264383Y-45335231D01*
X128755229Y-45132418D01*
X129131098Y-44757204D01*
X129334768Y-44266713D01*
X129335231Y-43735617D01*
X129132418Y-43244771D01*
X128757204Y-42868902D01*
X128266713Y-42665232D01*
X127735617Y-42664769D01*
X127286391Y-42850385D01*
X128329480Y-41285750D01*
X129465000Y-41285750D01*
X129465000Y-42026310D01*
X129561673Y-42259699D01*
X129740302Y-42438327D01*
X129973691Y-42535000D01*
X130714250Y-42535000D01*
X130873000Y-42376250D01*
X130873000Y-41127000D01*
X129623750Y-41127000D01*
X129465000Y-41285750D01*
X128329480Y-41285750D01*
X129204186Y-39973690D01*
X129465000Y-39973690D01*
X129465000Y-40714250D01*
X129623750Y-40873000D01*
X130873000Y-40873000D01*
X130873000Y-39623750D01*
X131127000Y-39623750D01*
X131127000Y-40873000D01*
X131147000Y-40873000D01*
X131147000Y-41127000D01*
X131127000Y-41127000D01*
X131127000Y-42376250D01*
X131285750Y-42535000D01*
X132026309Y-42535000D01*
X132259698Y-42438327D01*
X132438327Y-42259699D01*
X132494119Y-42125006D01*
X132669357Y-42300551D01*
X133233330Y-42534733D01*
X133843991Y-42535265D01*
X134408371Y-42302068D01*
X134840551Y-41870643D01*
X135074733Y-41306670D01*
X135075265Y-40696009D01*
X134842068Y-40131629D01*
X134410643Y-39699449D01*
X133846670Y-39465267D01*
X133236009Y-39464735D01*
X132671629Y-39697932D01*
X132494159Y-39875092D01*
X132438327Y-39740301D01*
X132259698Y-39561673D01*
X132026309Y-39465000D01*
X131285750Y-39465000D01*
X131127000Y-39623750D01*
X130873000Y-39623750D01*
X130714250Y-39465000D01*
X129973691Y-39465000D01*
X129740302Y-39561673D01*
X129561673Y-39740301D01*
X129465000Y-39973690D01*
X129204186Y-39973690D01*
X132631660Y-34832481D01*
X132365458Y-35473567D01*
M02*
