G04 #@! TF.FileFunction,Legend,Top*
%FSLAX46Y46*%
G04 Gerber Fmt 4.6, Leading zero omitted, Abs format (unit mm)*
G04 Created by KiCad (PCBNEW 4.0.7) date Thursday, November 02, 2017 'PMt' 06:36:44 PM*
%MOMM*%
%LPD*%
G01*
G04 APERTURE LIST*
%ADD10C,0.100000*%
%ADD11C,0.300000*%
%ADD12C,0.150000*%
%ADD13C,0.120000*%
G04 APERTURE END LIST*
D10*
D11*
X116612357Y-102465980D02*
X115940719Y-101124749D01*
X116451663Y-100868887D01*
X116611383Y-100868789D01*
X116707234Y-100900675D01*
X116835068Y-100996428D01*
X116931016Y-101188032D01*
X116931114Y-101347752D01*
X116899228Y-101443602D01*
X116803474Y-101571437D01*
X116292530Y-101827299D01*
X118528402Y-101506496D02*
X118176591Y-100803947D01*
X118048757Y-100708194D01*
X117889038Y-100708291D01*
X117633566Y-100836222D01*
X117537812Y-100964056D01*
X118496419Y-101442629D02*
X118400666Y-101570462D01*
X118081325Y-101730376D01*
X117921606Y-101730474D01*
X117793772Y-101634720D01*
X117729806Y-101506984D01*
X117729709Y-101347264D01*
X117825463Y-101219431D01*
X118144804Y-101059517D01*
X118240557Y-100931683D01*
X118527720Y-100388462D02*
X119038666Y-100132600D01*
X118495445Y-99845437D02*
X119071136Y-100995064D01*
X119198969Y-101090818D01*
X119358688Y-101090720D01*
X119486425Y-101026754D01*
X119933502Y-100802875D02*
X119485743Y-99908720D01*
X119613674Y-100164194D02*
X119613576Y-100004475D01*
X119645462Y-99908623D01*
X119741215Y-99780789D01*
X119868951Y-99716824D01*
X120763787Y-100387099D02*
X120316028Y-99492944D01*
X120092149Y-99045867D02*
X120060263Y-99141719D01*
X120156115Y-99173604D01*
X120187999Y-99077753D01*
X120092149Y-99045867D01*
X120156115Y-99173604D01*
X121945300Y-99715558D02*
X121849546Y-99843391D01*
X121594074Y-99971322D01*
X121434354Y-99971420D01*
X121338504Y-99939534D01*
X121210670Y-99843781D01*
X121018773Y-99460573D01*
X121018676Y-99300853D01*
X121050561Y-99205002D01*
X121146315Y-99077168D01*
X121401787Y-98949237D01*
X121561507Y-98949140D01*
X122552096Y-99491580D02*
X121880457Y-98150349D01*
X122423970Y-98916670D02*
X123063041Y-99235718D01*
X122615282Y-98341564D02*
X122360199Y-99108372D01*
X124659745Y-98436148D02*
X123988107Y-97094917D01*
X124499051Y-96839055D01*
X124658772Y-96838957D01*
X124754622Y-96870843D01*
X124882456Y-96966597D01*
X124978404Y-97158200D01*
X124978502Y-97317920D01*
X124946617Y-97413771D01*
X124850863Y-97541605D01*
X124339918Y-97797467D01*
X126479939Y-97444780D02*
X126384185Y-97572613D01*
X126128713Y-97700544D01*
X125968994Y-97700642D01*
X125841160Y-97604889D01*
X125585298Y-97093943D01*
X125585201Y-96934224D01*
X125680954Y-96806390D01*
X125936426Y-96678459D01*
X126096145Y-96678362D01*
X126223979Y-96774115D01*
X126287945Y-96901851D01*
X125713229Y-97349415D01*
X127342208Y-97092871D02*
X127182488Y-97092969D01*
X127054655Y-96997216D01*
X126478965Y-95847588D01*
X128044758Y-96741060D02*
X127885038Y-96741159D01*
X127757205Y-96645405D01*
X127181514Y-95495777D01*
X129034665Y-96165468D02*
X128938911Y-96293302D01*
X128683439Y-96421233D01*
X128523720Y-96421331D01*
X128395886Y-96325577D01*
X128140023Y-95814632D01*
X128139926Y-95654913D01*
X128235679Y-95527078D01*
X128491152Y-95399147D01*
X128650871Y-95399050D01*
X128778705Y-95494804D01*
X128842671Y-95622540D01*
X128267954Y-96070104D01*
X129065965Y-95111302D02*
X129576911Y-94855440D01*
X129033690Y-94568277D02*
X129609381Y-95717904D01*
X129737214Y-95813658D01*
X129896934Y-95813560D01*
X130024670Y-95749594D01*
X130471747Y-95525715D02*
X130023988Y-94631560D01*
X129800108Y-94184483D02*
X129768223Y-94280335D01*
X129864074Y-94312220D01*
X129895959Y-94216369D01*
X129800108Y-94184483D01*
X129864074Y-94312220D01*
X131589391Y-94886157D02*
X131493637Y-95013990D01*
X131238165Y-95141921D01*
X131078446Y-95142019D01*
X130950612Y-95046266D01*
X130694750Y-94535320D01*
X130694653Y-94375601D01*
X130790406Y-94247767D01*
X131045878Y-94119836D01*
X131205598Y-94119739D01*
X131333432Y-94215492D01*
X131397397Y-94343228D01*
X130822681Y-94790792D01*
X132260055Y-94630196D02*
X131812296Y-93736042D01*
X131940228Y-93991515D02*
X131940130Y-93831797D01*
X131972016Y-93735945D01*
X132067769Y-93608111D01*
X132195505Y-93544146D01*
X134366632Y-91817855D02*
X134080541Y-94117985D01*
X137241674Y-91975820D02*
X137209789Y-92071671D01*
X137050167Y-92231487D01*
X136922430Y-92295453D01*
X136698844Y-92327533D01*
X136507142Y-92263763D01*
X136379308Y-92168009D01*
X136187508Y-91944519D01*
X136091560Y-91752915D01*
X136027497Y-91465459D01*
X136027399Y-91305740D01*
X136091171Y-91114038D01*
X136250792Y-90954221D01*
X136378528Y-90890256D01*
X136602116Y-90858176D01*
X136697967Y-90890062D01*
X137880453Y-91815711D02*
X137208815Y-90474479D01*
X138455267Y-91527866D02*
X138103456Y-90825316D01*
X137975622Y-90729563D01*
X137815903Y-90729660D01*
X137624299Y-90825608D01*
X137528545Y-90953443D01*
X137496660Y-91049294D01*
X139093948Y-91208038D02*
X138646189Y-90313883D01*
X138774121Y-90569357D02*
X138774023Y-90409638D01*
X138805909Y-90313786D01*
X138901662Y-90185952D01*
X139029398Y-90121987D01*
X139924234Y-90792262D02*
X139476475Y-89898107D01*
X139252596Y-89451030D02*
X139220710Y-89546882D01*
X139316561Y-89578767D01*
X139348446Y-89482916D01*
X139252596Y-89451030D01*
X139316561Y-89578767D01*
X140467065Y-90440549D02*
X140626784Y-90440451D01*
X140882257Y-90312519D01*
X140978011Y-90184686D01*
X140977913Y-90024968D01*
X140945930Y-89961099D01*
X140818097Y-89865345D01*
X140658377Y-89865442D01*
X140466773Y-89961391D01*
X140307054Y-89961489D01*
X140179220Y-89865736D01*
X140147237Y-89801867D01*
X140147140Y-89642148D01*
X140242893Y-89514314D01*
X140434498Y-89418365D01*
X140594217Y-89418268D01*
X141009311Y-89130520D02*
X141520257Y-88874658D01*
X140977036Y-88587495D02*
X141552727Y-89737122D01*
X141680560Y-89832876D01*
X141840280Y-89832777D01*
X141968016Y-89768812D01*
X142415093Y-89544932D02*
X141967334Y-88650778D01*
X142031300Y-88778515D02*
X142063185Y-88682664D01*
X142158939Y-88554830D01*
X142350542Y-88458882D01*
X142510262Y-88458785D01*
X142638096Y-88554538D01*
X142989906Y-89257087D01*
X142638096Y-88554538D02*
X142637999Y-88394819D01*
X142733752Y-88266985D01*
X142925356Y-88171036D01*
X143085076Y-88170939D01*
X143212909Y-88266693D01*
X143564720Y-88969242D01*
X144778215Y-88361569D02*
X144426404Y-87659020D01*
X144298570Y-87563266D01*
X144138851Y-87563363D01*
X143883379Y-87691294D01*
X143787625Y-87819128D01*
X144746232Y-88297701D02*
X144650479Y-88425535D01*
X144331138Y-88585449D01*
X144171419Y-88585547D01*
X144043585Y-88489793D01*
X143979619Y-88362057D01*
X143979522Y-88202337D01*
X144075276Y-88074504D01*
X144394617Y-87914590D01*
X144490370Y-87786756D01*
X145321046Y-88009856D02*
X145480764Y-88009759D01*
X145736238Y-87881827D01*
X145831991Y-87753994D01*
X145831893Y-87594275D01*
X145799910Y-87530407D01*
X145672077Y-87434653D01*
X145512358Y-87434750D01*
X145320753Y-87530698D01*
X145161035Y-87530796D01*
X145033201Y-87435043D01*
X145001218Y-87371175D01*
X145001121Y-87211455D01*
X145096874Y-87083621D01*
X145288478Y-86987673D01*
X145448198Y-86987576D01*
X146853005Y-85804798D02*
X146884890Y-85708946D01*
X146980644Y-85581112D01*
X147299985Y-85421198D01*
X147459704Y-85421101D01*
X147555555Y-85452987D01*
X147683388Y-85548740D01*
X147747354Y-85676476D01*
X147779435Y-85900064D01*
X147396810Y-87050274D01*
X148227096Y-86634498D01*
X148385743Y-84877491D02*
X148513479Y-84813525D01*
X148673198Y-84813428D01*
X148769050Y-84845314D01*
X148896884Y-84941067D01*
X149088682Y-85164557D01*
X149248596Y-85483898D01*
X149312660Y-85771353D01*
X149312757Y-85931072D01*
X149280871Y-86026923D01*
X149185117Y-86154757D01*
X149057381Y-86218722D01*
X148897663Y-86218820D01*
X148801811Y-86186934D01*
X148673978Y-86091181D01*
X148482178Y-85867691D01*
X148322264Y-85548351D01*
X148258202Y-85260895D01*
X148258104Y-85101176D01*
X148289989Y-85005325D01*
X148385743Y-84877491D01*
X150781821Y-85355187D02*
X150015403Y-85738981D01*
X150398613Y-85547084D02*
X149726974Y-84205852D01*
X149695186Y-84461422D01*
X149631415Y-84653125D01*
X149535662Y-84780959D01*
X150557260Y-83790076D02*
X151451414Y-83342317D01*
X151548239Y-84971393D01*
X129392858Y-74760714D02*
X129321429Y-74832143D01*
X129107143Y-74903571D01*
X128964286Y-74903571D01*
X128750001Y-74832143D01*
X128607143Y-74689286D01*
X128535715Y-74546429D01*
X128464286Y-74260714D01*
X128464286Y-74046429D01*
X128535715Y-73760714D01*
X128607143Y-73617857D01*
X128750001Y-73475000D01*
X128964286Y-73403571D01*
X129107143Y-73403571D01*
X129321429Y-73475000D01*
X129392858Y-73546429D01*
X130250001Y-74903571D02*
X130107143Y-74832143D01*
X130035715Y-74760714D01*
X129964286Y-74617857D01*
X129964286Y-74189286D01*
X130035715Y-74046429D01*
X130107143Y-73975000D01*
X130250001Y-73903571D01*
X130464286Y-73903571D01*
X130607143Y-73975000D01*
X130678572Y-74046429D01*
X130750001Y-74189286D01*
X130750001Y-74617857D01*
X130678572Y-74760714D01*
X130607143Y-74832143D01*
X130464286Y-74903571D01*
X130250001Y-74903571D01*
X131392858Y-73903571D02*
X131392858Y-74903571D01*
X131392858Y-74046429D02*
X131464286Y-73975000D01*
X131607144Y-73903571D01*
X131821429Y-73903571D01*
X131964286Y-73975000D01*
X132035715Y-74117857D01*
X132035715Y-74903571D01*
X132750001Y-73903571D02*
X132750001Y-74903571D01*
X132750001Y-74046429D02*
X132821429Y-73975000D01*
X132964287Y-73903571D01*
X133178572Y-73903571D01*
X133321429Y-73975000D01*
X133392858Y-74117857D01*
X133392858Y-74903571D01*
X134678572Y-74832143D02*
X134535715Y-74903571D01*
X134250001Y-74903571D01*
X134107144Y-74832143D01*
X134035715Y-74689286D01*
X134035715Y-74117857D01*
X134107144Y-73975000D01*
X134250001Y-73903571D01*
X134535715Y-73903571D01*
X134678572Y-73975000D01*
X134750001Y-74117857D01*
X134750001Y-74260714D01*
X134035715Y-74403571D01*
X136035715Y-74832143D02*
X135892858Y-74903571D01*
X135607144Y-74903571D01*
X135464286Y-74832143D01*
X135392858Y-74760714D01*
X135321429Y-74617857D01*
X135321429Y-74189286D01*
X135392858Y-74046429D01*
X135464286Y-73975000D01*
X135607144Y-73903571D01*
X135892858Y-73903571D01*
X136035715Y-73975000D01*
X136464286Y-73903571D02*
X137035715Y-73903571D01*
X136678572Y-73403571D02*
X136678572Y-74689286D01*
X136750000Y-74832143D01*
X136892858Y-74903571D01*
X137035715Y-74903571D01*
X138678572Y-73403571D02*
X138678572Y-74617857D01*
X138750000Y-74760714D01*
X138821429Y-74832143D01*
X138964286Y-74903571D01*
X139250000Y-74903571D01*
X139392858Y-74832143D01*
X139464286Y-74760714D01*
X139535715Y-74617857D01*
X139535715Y-73403571D01*
X140178572Y-74832143D02*
X140392858Y-74903571D01*
X140750001Y-74903571D01*
X140892858Y-74832143D01*
X140964287Y-74760714D01*
X141035715Y-74617857D01*
X141035715Y-74475000D01*
X140964287Y-74332143D01*
X140892858Y-74260714D01*
X140750001Y-74189286D01*
X140464287Y-74117857D01*
X140321429Y-74046429D01*
X140250001Y-73975000D01*
X140178572Y-73832143D01*
X140178572Y-73689286D01*
X140250001Y-73546429D01*
X140321429Y-73475000D01*
X140464287Y-73403571D01*
X140821429Y-73403571D01*
X141035715Y-73475000D01*
X142178572Y-74117857D02*
X142392858Y-74189286D01*
X142464286Y-74260714D01*
X142535715Y-74403571D01*
X142535715Y-74617857D01*
X142464286Y-74760714D01*
X142392858Y-74832143D01*
X142250000Y-74903571D01*
X141678572Y-74903571D01*
X141678572Y-73403571D01*
X142178572Y-73403571D01*
X142321429Y-73475000D01*
X142392858Y-73546429D01*
X142464286Y-73689286D01*
X142464286Y-73832143D01*
X142392858Y-73975000D01*
X142321429Y-74046429D01*
X142178572Y-74117857D01*
X141678572Y-74117857D01*
X129250001Y-77382143D02*
X129107144Y-77453571D01*
X128821430Y-77453571D01*
X128678572Y-77382143D01*
X128607144Y-77310714D01*
X128535715Y-77167857D01*
X128535715Y-76739286D01*
X128607144Y-76596429D01*
X128678572Y-76525000D01*
X128821430Y-76453571D01*
X129107144Y-76453571D01*
X129250001Y-76525000D01*
X129892858Y-77453571D02*
X129892858Y-75953571D01*
X130535715Y-77453571D02*
X130535715Y-76667857D01*
X130464286Y-76525000D01*
X130321429Y-76453571D01*
X130107144Y-76453571D01*
X129964286Y-76525000D01*
X129892858Y-76596429D01*
X131892858Y-77453571D02*
X131892858Y-76667857D01*
X131821429Y-76525000D01*
X131678572Y-76453571D01*
X131392858Y-76453571D01*
X131250001Y-76525000D01*
X131892858Y-77382143D02*
X131750001Y-77453571D01*
X131392858Y-77453571D01*
X131250001Y-77382143D01*
X131178572Y-77239286D01*
X131178572Y-77096429D01*
X131250001Y-76953571D01*
X131392858Y-76882143D01*
X131750001Y-76882143D01*
X131892858Y-76810714D01*
X132607144Y-77453571D02*
X132607144Y-76453571D01*
X132607144Y-76739286D02*
X132678572Y-76596429D01*
X132750001Y-76525000D01*
X132892858Y-76453571D01*
X133035715Y-76453571D01*
X134178572Y-76453571D02*
X134178572Y-77667857D01*
X134107143Y-77810714D01*
X134035715Y-77882143D01*
X133892858Y-77953571D01*
X133678572Y-77953571D01*
X133535715Y-77882143D01*
X134178572Y-77382143D02*
X134035715Y-77453571D01*
X133750001Y-77453571D01*
X133607143Y-77382143D01*
X133535715Y-77310714D01*
X133464286Y-77167857D01*
X133464286Y-76739286D01*
X133535715Y-76596429D01*
X133607143Y-76525000D01*
X133750001Y-76453571D01*
X134035715Y-76453571D01*
X134178572Y-76525000D01*
X135464286Y-77382143D02*
X135321429Y-77453571D01*
X135035715Y-77453571D01*
X134892858Y-77382143D01*
X134821429Y-77239286D01*
X134821429Y-76667857D01*
X134892858Y-76525000D01*
X135035715Y-76453571D01*
X135321429Y-76453571D01*
X135464286Y-76525000D01*
X135535715Y-76667857D01*
X135535715Y-76810714D01*
X134821429Y-76953571D01*
X136178572Y-77453571D02*
X136178572Y-76453571D01*
X136178572Y-76739286D02*
X136250000Y-76596429D01*
X136321429Y-76525000D01*
X136464286Y-76453571D01*
X136607143Y-76453571D01*
X138250000Y-77453571D02*
X138250000Y-75953571D01*
X138892857Y-77453571D02*
X138892857Y-76667857D01*
X138821428Y-76525000D01*
X138678571Y-76453571D01*
X138464286Y-76453571D01*
X138321428Y-76525000D01*
X138250000Y-76596429D01*
X140178571Y-77382143D02*
X140035714Y-77453571D01*
X139750000Y-77453571D01*
X139607143Y-77382143D01*
X139535714Y-77239286D01*
X139535714Y-76667857D01*
X139607143Y-76525000D01*
X139750000Y-76453571D01*
X140035714Y-76453571D01*
X140178571Y-76525000D01*
X140250000Y-76667857D01*
X140250000Y-76810714D01*
X139535714Y-76953571D01*
X140892857Y-77453571D02*
X140892857Y-76453571D01*
X140892857Y-76739286D02*
X140964285Y-76596429D01*
X141035714Y-76525000D01*
X141178571Y-76453571D01*
X141321428Y-76453571D01*
X142392856Y-77382143D02*
X142249999Y-77453571D01*
X141964285Y-77453571D01*
X141821428Y-77382143D01*
X141749999Y-77239286D01*
X141749999Y-76667857D01*
X141821428Y-76525000D01*
X141964285Y-76453571D01*
X142249999Y-76453571D01*
X142392856Y-76525000D01*
X142464285Y-76667857D01*
X142464285Y-76810714D01*
X141749999Y-76953571D01*
D12*
X139350000Y-81405000D02*
X139350000Y-81880000D01*
X139350000Y-81880000D02*
X131050000Y-81880000D01*
X131050000Y-81880000D02*
X131050000Y-81405000D01*
X139350000Y-79155000D02*
X139350000Y-78680000D01*
X139350000Y-78680000D02*
X131050000Y-78680000D01*
X131050000Y-78680000D02*
X131050000Y-79155000D01*
X137500000Y-82180000D02*
X135500000Y-82180000D01*
D13*
X143500000Y-44850000D02*
X144500000Y-44850000D01*
X144500000Y-43150000D02*
X143500000Y-43150000D01*
X122500000Y-67150000D02*
X121500000Y-67150000D01*
X121500000Y-68850000D02*
X122500000Y-68850000D01*
X152500000Y-104850000D02*
X153500000Y-104850000D01*
X153500000Y-103150000D02*
X152500000Y-103150000D01*
M02*
