M48
;DRILL file {KiCad 4.0.7} date Wednesday, October 25, 2017 'PMt' 05:21:18 PM
;FORMAT={3:3/ absolute / metric / suppress leading zeros}
FMAT,2
METRIC,TZ
T1C0.440
T2C0.800
T3C0.900
T4C1.350
%
G90
G05
M71
T1
X135000Y-90000
X135650Y-89000
X136300Y-90000
X136950Y-89000
X137600Y-90000
T2
X112000Y-98000
X118813Y-101412
X122000Y-103000
X126000Y-64000
X128813Y-106412
X132000Y-108000
X132813Y-67412
X136000Y-69000
X138813Y-111412
X142000Y-113000
X142813Y-72412
X146000Y-74000
X148813Y-116412
X152813Y-77412
T3
X111000Y-106000
X113540Y-106000
X118000Y-78000
X120540Y-78000
X123000Y-113000
X125000Y-89000
X125540Y-113000
X127540Y-89000
X128000Y-57000
X129000Y-44000
X130000Y-78000
X130540Y-57000
X131540Y-44000
X132540Y-78000
X137000Y-50000
X137000Y-97000
X139540Y-50000
X139540Y-97000
X140000Y-64000
X142540Y-64000
X143000Y-84000
X145540Y-84000
X148000Y-97000
X150540Y-97000
X155000Y-106000
X157540Y-106000
X163000Y-114000
X165540Y-114000
T4
X132725Y-89780
X139875Y-89780
T0
M30
