G04 #@! TF.FileFunction,Copper,L2,Bot,Signal*
%FSLAX46Y46*%
G04 Gerber Fmt 4.6, Leading zero omitted, Abs format (unit mm)*
G04 Created by KiCad (PCBNEW 4.0.7) date Saturday, October 28, 2017 'PMt' 12:18:59 PM*
%MOMM*%
%LPD*%
G01*
G04 APERTURE LIST*
%ADD10C,0.100000*%
%ADD11R,1.800000X1.800000*%
%ADD12C,1.800000*%
%ADD13C,1.400000*%
%ADD14C,1.400000*%
%ADD15R,0.840000X0.840000*%
%ADD16C,0.840000*%
%ADD17C,1.850000*%
%ADD18C,0.250000*%
%ADD19C,0.254000*%
G04 APERTURE END LIST*
D10*
D11*
X131000000Y-41000000D03*
D12*
X133540000Y-41000000D03*
D11*
X140000000Y-64000000D03*
D12*
X142540000Y-64000000D03*
D11*
X148000000Y-74000000D03*
D12*
X150540000Y-74000000D03*
D11*
X118000000Y-78000000D03*
D12*
X120540000Y-78000000D03*
D11*
X135000000Y-53000000D03*
D12*
X137540000Y-53000000D03*
D11*
X128000000Y-57000000D03*
D12*
X130540000Y-57000000D03*
D11*
X163000000Y-114000000D03*
D12*
X165540000Y-114000000D03*
D11*
X155000000Y-106000000D03*
D12*
X157540000Y-106000000D03*
D11*
X131000000Y-66000000D03*
D12*
X133540000Y-66000000D03*
D11*
X137000000Y-97000000D03*
D12*
X139540000Y-97000000D03*
D11*
X148000000Y-97000000D03*
D12*
X150540000Y-97000000D03*
D11*
X125000000Y-89000000D03*
D12*
X127540000Y-89000000D03*
D11*
X123000000Y-113000000D03*
D12*
X125540000Y-113000000D03*
D11*
X111000000Y-106000000D03*
D12*
X113540000Y-106000000D03*
D13*
X114000000Y-96000000D03*
D14*
X118542304Y-98274616D02*
X118542304Y-98274616D01*
D13*
X122000000Y-100000000D03*
D14*
X126542304Y-102274616D02*
X126542304Y-102274616D01*
D13*
X130000000Y-104000000D03*
D14*
X134542304Y-106274616D02*
X134542304Y-106274616D01*
D13*
X138000000Y-108000000D03*
D14*
X142542304Y-110274616D02*
X142542304Y-110274616D01*
D13*
X146000000Y-112000000D03*
D14*
X150542304Y-114274616D02*
X150542304Y-114274616D01*
D13*
X154000000Y-116000000D03*
D14*
X158542304Y-118274616D02*
X158542304Y-118274616D01*
D13*
X122000000Y-69000000D03*
D14*
X126542304Y-71274616D02*
X126542304Y-71274616D01*
D13*
X130000000Y-73000000D03*
D14*
X134542304Y-75274616D02*
X134542304Y-75274616D01*
D13*
X138000000Y-77000000D03*
D14*
X142542304Y-79274616D02*
X142542304Y-79274616D01*
D13*
X146000000Y-81000000D03*
D14*
X150542304Y-83274616D02*
X150542304Y-83274616D01*
D13*
X154000000Y-85000000D03*
D14*
X158542304Y-87274616D02*
X158542304Y-87274616D01*
D13*
X128000000Y-44000000D03*
D14*
X132542304Y-46274616D02*
X132542304Y-46274616D01*
D13*
X136000000Y-48000000D03*
D14*
X140542304Y-50274616D02*
X140542304Y-50274616D01*
D13*
X144000000Y-52000000D03*
D14*
X148542304Y-54274616D02*
X148542304Y-54274616D01*
D15*
X135000000Y-90000000D03*
D16*
X135650000Y-89000000D03*
X136300000Y-90000000D03*
X136950000Y-89000000D03*
X137600000Y-90000000D03*
D17*
X132725000Y-89780000D03*
X139875000Y-89780000D03*
D18*
X118542304Y-98274616D02*
X118542304Y-100997696D01*
X118542304Y-100997696D02*
X113540000Y-106000000D01*
X126542304Y-102274616D02*
X126542304Y-111997696D01*
X126542304Y-111997696D02*
X125540000Y-113000000D01*
X134542304Y-106274616D02*
X134542304Y-96002304D01*
X134542304Y-96002304D02*
X127540000Y-89000000D01*
X142542304Y-110274616D02*
X142542304Y-104997696D01*
X142542304Y-104997696D02*
X150540000Y-97000000D01*
X140439999Y-96100001D02*
X139540000Y-97000000D01*
X151128001Y-95774999D02*
X140765001Y-95774999D01*
X151765001Y-96411999D02*
X151128001Y-95774999D01*
X150542304Y-98810698D02*
X151765001Y-97588001D01*
X150542304Y-114274616D02*
X150542304Y-98810698D01*
X140765001Y-95774999D02*
X140439999Y-96100001D01*
X151765001Y-97588001D02*
X151765001Y-96411999D01*
X158542304Y-117284667D02*
X158542304Y-118274616D01*
X152665023Y-111407386D02*
X158542304Y-117284667D01*
X152665023Y-93182025D02*
X152665023Y-111407386D01*
X139025001Y-79542003D02*
X152665023Y-93182025D01*
X139025001Y-71485001D02*
X139025001Y-79542003D01*
X133540000Y-66000000D02*
X139025001Y-71485001D01*
X132951999Y-64774999D02*
X134128001Y-64774999D01*
X157540000Y-104727208D02*
X157540000Y-106000000D01*
X139475012Y-78360737D02*
X157540000Y-96425725D01*
X139475012Y-70122010D02*
X139475012Y-78360737D01*
X128902384Y-71274616D02*
X132314999Y-67862001D01*
X132314999Y-67862001D02*
X132314999Y-65411999D01*
X157540000Y-96425725D02*
X157540000Y-104727208D01*
X134128001Y-64774999D02*
X139475012Y-70122010D01*
X132314999Y-65411999D02*
X132951999Y-64774999D01*
X126542304Y-71274616D02*
X128902384Y-71274616D01*
X165540000Y-114000000D02*
X160089991Y-119450009D01*
X160089991Y-119450009D02*
X155933007Y-119450009D01*
X155933007Y-119450009D02*
X155933007Y-115933007D01*
X152215012Y-115732014D02*
X152215012Y-96225599D01*
X152215012Y-96225599D02*
X134542304Y-78552891D01*
X134542304Y-78552891D02*
X134542304Y-75274616D01*
X155933007Y-115933007D02*
X154974999Y-114974999D01*
X154974999Y-114974999D02*
X152972027Y-114974999D01*
X152972027Y-114974999D02*
X152215012Y-115732014D01*
X138000000Y-77000000D02*
X134000000Y-73000000D01*
X134000000Y-73000000D02*
X130000000Y-73000000D01*
X135000000Y-61385002D02*
X135000000Y-56021413D01*
X135000000Y-56021413D02*
X128000000Y-49021413D01*
X128000000Y-49021413D02*
X128000000Y-44989949D01*
X128000000Y-44989949D02*
X128000000Y-44000000D01*
X146000000Y-71000000D02*
X140225001Y-65225001D01*
X140225001Y-65225001D02*
X138839999Y-65225001D01*
X138839999Y-65225001D02*
X135000000Y-61385002D01*
X146000000Y-81000000D02*
X146000000Y-71000000D01*
X146000000Y-112000000D02*
X151000000Y-117000000D01*
X151000000Y-117000000D02*
X153000000Y-117000000D01*
X153000000Y-117000000D02*
X153300001Y-116699999D01*
X153300001Y-116699999D02*
X154000000Y-116000000D01*
X132799604Y-44799604D02*
X136799604Y-44799604D01*
X136799604Y-44799604D02*
X143300001Y-51300001D01*
X143300001Y-51300001D02*
X144000000Y-52000000D01*
X132000000Y-44000000D02*
X132799604Y-44799604D01*
X128000000Y-44000000D02*
X132000000Y-44000000D01*
X128000000Y-61000000D02*
X126774999Y-59774999D01*
X126774999Y-59774999D02*
X126774999Y-45225001D01*
X126774999Y-45225001D02*
X127300001Y-44699999D01*
X127300001Y-44699999D02*
X128000000Y-44000000D01*
X122000000Y-67000000D02*
X128000000Y-61000000D01*
X122000000Y-69000000D02*
X122000000Y-67000000D01*
X144000000Y-52000000D02*
X140000000Y-52000000D01*
X140000000Y-52000000D02*
X136000000Y-48000000D01*
X150000000Y-85000000D02*
X154000000Y-85000000D01*
X146000000Y-81000000D02*
X150000000Y-85000000D01*
X135000000Y-90000000D02*
X130000000Y-85000000D01*
X130000000Y-85000000D02*
X130000000Y-73000000D01*
X121353002Y-81000000D02*
X118614998Y-81000000D01*
X118614998Y-81000000D02*
X116774999Y-79160001D01*
X116774999Y-79160001D02*
X116774999Y-74225001D01*
X116774999Y-74225001D02*
X121300001Y-69699999D01*
X121300001Y-69699999D02*
X122000000Y-69000000D01*
X135000000Y-90000000D02*
X134330000Y-90000000D01*
X134330000Y-90000000D02*
X133299999Y-91030001D01*
X133299999Y-91030001D02*
X131383003Y-91030001D01*
X131383003Y-91030001D02*
X121353002Y-81000000D01*
X138000000Y-108000000D02*
X138000000Y-107010051D01*
X138000000Y-107010051D02*
X135000000Y-104010051D01*
X135000000Y-104010051D02*
X135000000Y-90670000D01*
X135000000Y-90670000D02*
X135000000Y-90000000D01*
X138000000Y-109000000D02*
X141000000Y-112000000D01*
X141000000Y-112000000D02*
X146000000Y-112000000D01*
X138000000Y-108000000D02*
X138000000Y-109000000D01*
X130000000Y-106000000D02*
X132000000Y-108000000D01*
X132000000Y-108000000D02*
X138000000Y-108000000D01*
X130000000Y-104000000D02*
X130000000Y-106000000D01*
X122000000Y-100000000D02*
X126000000Y-100000000D01*
X126000000Y-100000000D02*
X130000000Y-104000000D01*
X114000000Y-96000000D02*
X118000000Y-96000000D01*
X118000000Y-96000000D02*
X122000000Y-100000000D01*
X143765001Y-59225001D02*
X138439999Y-53899999D01*
X143765001Y-64588001D02*
X143765001Y-59225001D01*
X143549989Y-64803013D02*
X143765001Y-64588001D01*
X143549989Y-67913579D02*
X143549989Y-64803013D01*
X146450011Y-79182323D02*
X146450011Y-70813600D01*
X146450011Y-70813600D02*
X143549989Y-67913579D01*
X150542304Y-83274616D02*
X146450011Y-79182323D01*
X138439999Y-53899999D02*
X137540000Y-53000000D01*
X120540000Y-76727208D02*
X120540000Y-78000000D01*
X134324988Y-64324988D02*
X130290010Y-64324988D01*
X130290010Y-64324988D02*
X120540000Y-74074998D01*
X120540000Y-74074998D02*
X120540000Y-76727208D01*
X139925023Y-78174337D02*
X139925023Y-69925023D01*
X139925023Y-69925023D02*
X134324988Y-64324988D01*
X158542304Y-87274616D02*
X149025302Y-87274616D01*
X149025302Y-87274616D02*
X139925023Y-78174337D01*
X144000000Y-64989413D02*
X144000000Y-67460000D01*
X144000000Y-67460000D02*
X150540000Y-74000000D01*
X132542304Y-46274616D02*
X135292689Y-49025001D01*
X135292689Y-49025001D02*
X135378003Y-49025001D01*
X135378003Y-49025001D02*
X132542304Y-46274616D01*
X135378003Y-49025001D02*
X144215012Y-57862010D01*
X144215012Y-57862010D02*
X144215012Y-64774401D01*
X144215012Y-64774401D02*
X144000000Y-64989413D01*
X131517303Y-51902306D02*
X141640001Y-62025004D01*
X131517303Y-45782615D02*
X131517303Y-51902306D01*
X141640001Y-63100001D02*
X142540000Y-64000000D01*
X141640001Y-62025004D02*
X141640001Y-63100001D01*
X132050303Y-45249615D02*
X131517303Y-45782615D01*
X135517303Y-45249615D02*
X132050303Y-45249615D01*
X140542304Y-50274616D02*
X135517303Y-45249615D01*
X148542304Y-54274616D02*
X135267688Y-41000000D01*
X135267688Y-41000000D02*
X133540000Y-41000000D01*
X131439999Y-57899999D02*
X130540000Y-57000000D01*
X131439999Y-58461412D02*
X131439999Y-57899999D01*
X142542304Y-69563717D02*
X131439999Y-58461412D01*
X142542304Y-79274616D02*
X142542304Y-69563717D01*
D19*
G36*
X132365458Y-35473567D02*
X132364543Y-36521834D01*
X132764853Y-37490658D01*
X133505443Y-38232542D01*
X134473567Y-38634542D01*
X135521834Y-38635457D01*
X136490658Y-38235147D01*
X137232542Y-37494557D01*
X137634542Y-36526433D01*
X137635457Y-35478166D01*
X137369196Y-34833765D01*
X153673353Y-59290000D01*
X145000000Y-59290000D01*
X144975012Y-59294970D01*
X144975012Y-57862010D01*
X144917160Y-57571171D01*
X144752413Y-57324609D01*
X140164227Y-52736423D01*
X142855264Y-52736423D01*
X143224219Y-53118438D01*
X143711280Y-53330180D01*
X144096047Y-53357761D01*
X144256907Y-53174638D01*
X143919580Y-52160595D01*
X142905537Y-52497922D01*
X142855264Y-52736423D01*
X140164227Y-52736423D01*
X139523851Y-52096047D01*
X142642239Y-52096047D01*
X142825362Y-52256907D01*
X143839405Y-51919580D01*
X143502078Y-50905537D01*
X143263577Y-50855264D01*
X142881562Y-51224219D01*
X142669820Y-51711280D01*
X142642239Y-52096047D01*
X139523851Y-52096047D01*
X136528769Y-49100965D01*
X136736423Y-49144736D01*
X137118438Y-48775781D01*
X137330180Y-48288720D01*
X137340309Y-48147423D01*
X139224597Y-50031711D01*
X139187335Y-50167448D01*
X139252166Y-50684290D01*
X139509849Y-51136978D01*
X139921153Y-51456598D01*
X139967925Y-51480020D01*
X140470233Y-51617910D01*
X140987075Y-51553080D01*
X141439764Y-51295396D01*
X141759383Y-50884092D01*
X141897273Y-50381784D01*
X141832443Y-49864943D01*
X141574759Y-49412254D01*
X141163455Y-49092635D01*
X141116683Y-49069212D01*
X140614375Y-48931322D01*
X140311770Y-48969280D01*
X136054704Y-44712214D01*
X135808142Y-44547467D01*
X135517303Y-44489615D01*
X132050303Y-44489615D01*
X131759464Y-44547467D01*
X131512902Y-44712214D01*
X130979902Y-45245214D01*
X130815155Y-45491776D01*
X130757303Y-45782615D01*
X130757303Y-51902306D01*
X130815155Y-52193145D01*
X130979902Y-52439707D01*
X140880001Y-62339806D01*
X140880001Y-62452560D01*
X139100000Y-62452560D01*
X138864683Y-62496838D01*
X138648559Y-62635910D01*
X138503569Y-62848110D01*
X138452560Y-63100000D01*
X138452560Y-64399171D01*
X132199999Y-58146610D01*
X132199999Y-57899999D01*
X132142147Y-57609160D01*
X132023106Y-57431002D01*
X132074733Y-57306670D01*
X132075265Y-56696009D01*
X131842068Y-56131629D01*
X131410643Y-55699449D01*
X130846670Y-55465267D01*
X130236009Y-55464735D01*
X129671629Y-55697932D01*
X129503387Y-55865880D01*
X129503162Y-55864683D01*
X129364090Y-55648559D01*
X129151890Y-55503569D01*
X128900000Y-55452560D01*
X127100000Y-55452560D01*
X126864683Y-55496838D01*
X126648559Y-55635910D01*
X126503569Y-55848110D01*
X126452560Y-56100000D01*
X126452560Y-57900000D01*
X126496838Y-58135317D01*
X126635910Y-58351441D01*
X126848110Y-58496431D01*
X127100000Y-58547440D01*
X128900000Y-58547440D01*
X129135317Y-58503162D01*
X129351441Y-58364090D01*
X129496431Y-58151890D01*
X129500567Y-58131466D01*
X129669357Y-58300551D01*
X130233330Y-58534733D01*
X130694664Y-58535135D01*
X130737851Y-58752251D01*
X130902598Y-58998813D01*
X141782304Y-69878519D01*
X141782304Y-78175590D01*
X141644845Y-78253836D01*
X141397553Y-78572065D01*
X140685023Y-77859535D01*
X140685023Y-69925023D01*
X140627171Y-69634184D01*
X140627171Y-69634183D01*
X140462424Y-69387622D01*
X134862389Y-63787587D01*
X134615827Y-63622840D01*
X134324988Y-63564988D01*
X130290010Y-63564988D01*
X129999170Y-63622840D01*
X129752609Y-63787587D01*
X120002599Y-73537597D01*
X119837852Y-73784159D01*
X119780000Y-74074998D01*
X119780000Y-76653154D01*
X119671629Y-76697932D01*
X119503387Y-76865880D01*
X119503162Y-76864683D01*
X119364090Y-76648559D01*
X119151890Y-76503569D01*
X118900000Y-76452560D01*
X117100000Y-76452560D01*
X116864683Y-76496838D01*
X116648559Y-76635910D01*
X116503569Y-76848110D01*
X116452560Y-77100000D01*
X116452560Y-78900000D01*
X116496838Y-79135317D01*
X116635910Y-79351441D01*
X116848110Y-79496431D01*
X117100000Y-79547440D01*
X118900000Y-79547440D01*
X119135317Y-79503162D01*
X119351441Y-79364090D01*
X119496431Y-79151890D01*
X119500567Y-79131466D01*
X119669357Y-79300551D01*
X120233330Y-79534733D01*
X120843991Y-79535265D01*
X121408371Y-79302068D01*
X121840551Y-78870643D01*
X122074733Y-78306670D01*
X122075265Y-77696009D01*
X121842068Y-77131629D01*
X121410643Y-76699449D01*
X121300000Y-76653506D01*
X121300000Y-74389800D01*
X121953377Y-73736423D01*
X128855264Y-73736423D01*
X129224219Y-74118438D01*
X129711280Y-74330180D01*
X130096047Y-74357761D01*
X130256907Y-74174638D01*
X129919580Y-73160595D01*
X128905537Y-73497922D01*
X128855264Y-73736423D01*
X121953377Y-73736423D01*
X129452560Y-66237240D01*
X129452560Y-66900000D01*
X129496838Y-67135317D01*
X129635910Y-67351441D01*
X129848110Y-67496431D01*
X130100000Y-67547440D01*
X131554758Y-67547440D01*
X128587582Y-70514616D01*
X127633026Y-70514616D01*
X127574759Y-70412254D01*
X127163455Y-70092635D01*
X127116683Y-70069212D01*
X126614375Y-69931322D01*
X126097533Y-69996153D01*
X125644845Y-70253836D01*
X125325225Y-70665140D01*
X125187335Y-71167448D01*
X125252166Y-71684290D01*
X125509849Y-72136978D01*
X125921153Y-72456598D01*
X125967925Y-72480020D01*
X126470233Y-72617910D01*
X126987075Y-72553080D01*
X127439764Y-72295396D01*
X127642413Y-72034616D01*
X128902384Y-72034616D01*
X129123395Y-71990654D01*
X128881562Y-72224219D01*
X128669820Y-72711280D01*
X128642239Y-73096047D01*
X128825362Y-73256907D01*
X129355901Y-73080420D01*
X130160595Y-73080420D01*
X130497922Y-74094463D01*
X130736423Y-74144736D01*
X131118438Y-73775781D01*
X131330180Y-73288720D01*
X131357761Y-72903953D01*
X131174638Y-72743093D01*
X130160595Y-73080420D01*
X129355901Y-73080420D01*
X129839405Y-72919580D01*
X129502078Y-71905537D01*
X129348326Y-71873128D01*
X129419812Y-71825362D01*
X129743093Y-71825362D01*
X130080420Y-72839405D01*
X131094463Y-72502078D01*
X131144736Y-72263577D01*
X130775781Y-71881562D01*
X130288720Y-71669820D01*
X129903953Y-71642239D01*
X129743093Y-71825362D01*
X129419812Y-71825362D01*
X129439785Y-71812017D01*
X132852400Y-68399402D01*
X133017147Y-68152841D01*
X133064739Y-67913579D01*
X133074999Y-67862001D01*
X133074999Y-67468988D01*
X133233330Y-67534733D01*
X133843991Y-67535265D01*
X133954713Y-67489515D01*
X138265001Y-71799803D01*
X138265001Y-75668120D01*
X137903953Y-75642239D01*
X137743093Y-75825362D01*
X138055600Y-76764792D01*
X138014141Y-76806251D01*
X138193749Y-76985859D01*
X138265001Y-76914607D01*
X138265001Y-77045689D01*
X138235208Y-77055600D01*
X138193749Y-77014141D01*
X138014141Y-77193749D01*
X138265001Y-77444609D01*
X138265001Y-79542003D01*
X138322853Y-79832842D01*
X138487600Y-80079404D01*
X151905023Y-93496827D01*
X151905023Y-94840808D01*
X135302304Y-78238089D01*
X135302304Y-77736423D01*
X136855264Y-77736423D01*
X137224219Y-78118438D01*
X137711280Y-78330180D01*
X138096047Y-78357761D01*
X138256907Y-78174638D01*
X137919580Y-77160595D01*
X136905537Y-77497922D01*
X136855264Y-77736423D01*
X135302304Y-77736423D01*
X135302304Y-77096047D01*
X136642239Y-77096047D01*
X136825362Y-77256907D01*
X137839405Y-76919580D01*
X137502078Y-75905537D01*
X137263577Y-75855264D01*
X136881562Y-76224219D01*
X136669820Y-76711280D01*
X136642239Y-77096047D01*
X135302304Y-77096047D01*
X135302304Y-76373642D01*
X135439764Y-76295396D01*
X135759383Y-75884092D01*
X135897273Y-75381784D01*
X135832443Y-74864943D01*
X135574759Y-74412254D01*
X135163455Y-74092635D01*
X135116683Y-74069212D01*
X134614375Y-73931322D01*
X134097533Y-73996153D01*
X133644845Y-74253836D01*
X133325225Y-74665140D01*
X133187335Y-75167448D01*
X133252166Y-75684290D01*
X133509849Y-76136978D01*
X133782304Y-76348700D01*
X133782304Y-78552891D01*
X133840156Y-78843730D01*
X134004903Y-79090292D01*
X149929610Y-95014999D01*
X140765001Y-95014999D01*
X140474161Y-95072851D01*
X140227600Y-95237598D01*
X139954964Y-95510234D01*
X139846670Y-95465267D01*
X139236009Y-95464735D01*
X138671629Y-95697932D01*
X138503387Y-95865880D01*
X138503162Y-95864683D01*
X138364090Y-95648559D01*
X138151890Y-95503569D01*
X137900000Y-95452560D01*
X136100000Y-95452560D01*
X135864683Y-95496838D01*
X135648559Y-95635910D01*
X135503569Y-95848110D01*
X135452560Y-96100000D01*
X135452560Y-97900000D01*
X135496838Y-98135317D01*
X135635910Y-98351441D01*
X135848110Y-98496431D01*
X136100000Y-98547440D01*
X137900000Y-98547440D01*
X138135317Y-98503162D01*
X138351441Y-98364090D01*
X138496431Y-98151890D01*
X138500567Y-98131466D01*
X138669357Y-98300551D01*
X139233330Y-98534733D01*
X139843991Y-98535265D01*
X140408371Y-98302068D01*
X140840551Y-97870643D01*
X141074733Y-97306670D01*
X141075265Y-96696009D01*
X141029515Y-96585287D01*
X141079803Y-96534999D01*
X146452560Y-96534999D01*
X146452560Y-97900000D01*
X146496838Y-98135317D01*
X146635910Y-98351441D01*
X146848110Y-98496431D01*
X147100000Y-98547440D01*
X147917758Y-98547440D01*
X142004903Y-104460295D01*
X141840156Y-104706857D01*
X141782304Y-104997696D01*
X141782304Y-109175590D01*
X141644845Y-109253836D01*
X141325225Y-109665140D01*
X141187335Y-110167448D01*
X141252166Y-110684290D01*
X141509849Y-111136978D01*
X141921153Y-111456598D01*
X141967925Y-111480020D01*
X142470233Y-111617910D01*
X142987075Y-111553080D01*
X143439764Y-111295396D01*
X143759383Y-110884092D01*
X143775505Y-110825362D01*
X145743093Y-110825362D01*
X146080420Y-111839405D01*
X147094463Y-111502078D01*
X147144736Y-111263577D01*
X146775781Y-110881562D01*
X146288720Y-110669820D01*
X145903953Y-110642239D01*
X145743093Y-110825362D01*
X143775505Y-110825362D01*
X143897273Y-110381784D01*
X143832443Y-109864943D01*
X143574759Y-109412254D01*
X143302304Y-109200533D01*
X143302304Y-105312498D01*
X149782304Y-98832498D01*
X149782304Y-113175590D01*
X149644845Y-113253836D01*
X149325225Y-113665140D01*
X149187335Y-114167448D01*
X149252166Y-114684290D01*
X149509849Y-115136978D01*
X149921153Y-115456598D01*
X149967925Y-115480020D01*
X150470233Y-115617910D01*
X150987075Y-115553080D01*
X151439764Y-115295396D01*
X151455012Y-115275774D01*
X151455012Y-115732014D01*
X151512864Y-116022853D01*
X151677611Y-116269415D01*
X151924173Y-116434162D01*
X152215012Y-116492014D01*
X152505851Y-116434162D01*
X152752413Y-116269415D01*
X152793186Y-116228642D01*
X152825362Y-116256907D01*
X153764792Y-115944400D01*
X153806251Y-115985859D01*
X153985859Y-115806251D01*
X153914607Y-115734999D01*
X154045689Y-115734999D01*
X154055600Y-115764792D01*
X154014141Y-115806251D01*
X154193749Y-115985859D01*
X154444609Y-115734999D01*
X154660197Y-115734999D01*
X154794685Y-115869487D01*
X154160595Y-116080420D01*
X154497922Y-117094463D01*
X154736423Y-117144736D01*
X155118438Y-116775781D01*
X155173007Y-116650258D01*
X155173007Y-119290000D01*
X140000000Y-119290000D01*
X139728295Y-119344046D01*
X139497954Y-119497954D01*
X139344046Y-119728295D01*
X139315262Y-119873000D01*
X130684738Y-119873000D01*
X130655954Y-119728295D01*
X130502046Y-119497954D01*
X130271705Y-119344046D01*
X130000000Y-119290000D01*
X96326647Y-119290000D01*
X98029031Y-116736423D01*
X152855264Y-116736423D01*
X153224219Y-117118438D01*
X153711280Y-117330180D01*
X154096047Y-117357761D01*
X154256907Y-117174638D01*
X153919580Y-116160595D01*
X152905537Y-116497922D01*
X152855264Y-116736423D01*
X98029031Y-116736423D01*
X101119980Y-112100000D01*
X121452560Y-112100000D01*
X121452560Y-113900000D01*
X121496838Y-114135317D01*
X121635910Y-114351441D01*
X121848110Y-114496431D01*
X122100000Y-114547440D01*
X123900000Y-114547440D01*
X124135317Y-114503162D01*
X124351441Y-114364090D01*
X124496431Y-114151890D01*
X124500567Y-114131466D01*
X124669357Y-114300551D01*
X125233330Y-114534733D01*
X125843991Y-114535265D01*
X126408371Y-114302068D01*
X126840551Y-113870643D01*
X127074733Y-113306670D01*
X127075229Y-112736423D01*
X144855264Y-112736423D01*
X145224219Y-113118438D01*
X145711280Y-113330180D01*
X146096047Y-113357761D01*
X146256907Y-113174638D01*
X145919580Y-112160595D01*
X144905537Y-112497922D01*
X144855264Y-112736423D01*
X127075229Y-112736423D01*
X127075265Y-112696009D01*
X127029515Y-112585287D01*
X127079705Y-112535097D01*
X127244452Y-112288535D01*
X127282740Y-112096047D01*
X144642239Y-112096047D01*
X144825362Y-112256907D01*
X145355901Y-112080420D01*
X146160595Y-112080420D01*
X146497922Y-113094463D01*
X146736423Y-113144736D01*
X147118438Y-112775781D01*
X147330180Y-112288720D01*
X147357761Y-111903953D01*
X147174638Y-111743093D01*
X146160595Y-112080420D01*
X145355901Y-112080420D01*
X145839405Y-111919580D01*
X145502078Y-110905537D01*
X145263577Y-110855264D01*
X144881562Y-111224219D01*
X144669820Y-111711280D01*
X144642239Y-112096047D01*
X127282740Y-112096047D01*
X127302304Y-111997696D01*
X127302304Y-108736423D01*
X136855264Y-108736423D01*
X137224219Y-109118438D01*
X137711280Y-109330180D01*
X138096047Y-109357761D01*
X138256907Y-109174638D01*
X137919580Y-108160595D01*
X136905537Y-108497922D01*
X136855264Y-108736423D01*
X127302304Y-108736423D01*
X127302304Y-108096047D01*
X136642239Y-108096047D01*
X136825362Y-108256907D01*
X137355901Y-108080420D01*
X138160595Y-108080420D01*
X138497922Y-109094463D01*
X138736423Y-109144736D01*
X139118438Y-108775781D01*
X139330180Y-108288720D01*
X139357761Y-107903953D01*
X139174638Y-107743093D01*
X138160595Y-108080420D01*
X137355901Y-108080420D01*
X137839405Y-107919580D01*
X137502078Y-106905537D01*
X137263577Y-106855264D01*
X136881562Y-107224219D01*
X136669820Y-107711280D01*
X136642239Y-108096047D01*
X127302304Y-108096047D01*
X127302304Y-104736423D01*
X128855264Y-104736423D01*
X129224219Y-105118438D01*
X129711280Y-105330180D01*
X130096047Y-105357761D01*
X130256907Y-105174638D01*
X129919580Y-104160595D01*
X128905537Y-104497922D01*
X128855264Y-104736423D01*
X127302304Y-104736423D01*
X127302304Y-104096047D01*
X128642239Y-104096047D01*
X128825362Y-104256907D01*
X129355901Y-104080420D01*
X130160595Y-104080420D01*
X130497922Y-105094463D01*
X130736423Y-105144736D01*
X131118438Y-104775781D01*
X131330180Y-104288720D01*
X131357761Y-103903953D01*
X131174638Y-103743093D01*
X130160595Y-104080420D01*
X129355901Y-104080420D01*
X129839405Y-103919580D01*
X129502078Y-102905537D01*
X129263577Y-102855264D01*
X128881562Y-103224219D01*
X128669820Y-103711280D01*
X128642239Y-104096047D01*
X127302304Y-104096047D01*
X127302304Y-103373642D01*
X127439764Y-103295396D01*
X127759383Y-102884092D01*
X127775505Y-102825362D01*
X129743093Y-102825362D01*
X130080420Y-103839405D01*
X131094463Y-103502078D01*
X131144736Y-103263577D01*
X130775781Y-102881562D01*
X130288720Y-102669820D01*
X129903953Y-102642239D01*
X129743093Y-102825362D01*
X127775505Y-102825362D01*
X127897273Y-102381784D01*
X127832443Y-101864943D01*
X127574759Y-101412254D01*
X127163455Y-101092635D01*
X127116683Y-101069212D01*
X126614375Y-100931322D01*
X126097533Y-100996153D01*
X125644845Y-101253836D01*
X125325225Y-101665140D01*
X125187335Y-102167448D01*
X125252166Y-102684290D01*
X125509849Y-103136978D01*
X125782304Y-103348700D01*
X125782304Y-111465211D01*
X125236009Y-111464735D01*
X124671629Y-111697932D01*
X124503387Y-111865880D01*
X124503162Y-111864683D01*
X124364090Y-111648559D01*
X124151890Y-111503569D01*
X123900000Y-111452560D01*
X122100000Y-111452560D01*
X121864683Y-111496838D01*
X121648559Y-111635910D01*
X121503569Y-111848110D01*
X121452560Y-112100000D01*
X101119980Y-112100000D01*
X105786647Y-105100000D01*
X109452560Y-105100000D01*
X109452560Y-106900000D01*
X109496838Y-107135317D01*
X109635910Y-107351441D01*
X109848110Y-107496431D01*
X110100000Y-107547440D01*
X111900000Y-107547440D01*
X112135317Y-107503162D01*
X112351441Y-107364090D01*
X112496431Y-107151890D01*
X112500567Y-107131466D01*
X112669357Y-107300551D01*
X113233330Y-107534733D01*
X113843991Y-107535265D01*
X114408371Y-107302068D01*
X114840551Y-106870643D01*
X115074733Y-106306670D01*
X115075265Y-105696009D01*
X115029515Y-105585287D01*
X119079705Y-101535097D01*
X119244452Y-101288535D01*
X119302304Y-100997696D01*
X119302304Y-100736423D01*
X120855264Y-100736423D01*
X121224219Y-101118438D01*
X121711280Y-101330180D01*
X122096047Y-101357761D01*
X122256907Y-101174638D01*
X121919580Y-100160595D01*
X120905537Y-100497922D01*
X120855264Y-100736423D01*
X119302304Y-100736423D01*
X119302304Y-100096047D01*
X120642239Y-100096047D01*
X120825362Y-100256907D01*
X121355901Y-100080420D01*
X122160595Y-100080420D01*
X122497922Y-101094463D01*
X122736423Y-101144736D01*
X123118438Y-100775781D01*
X123330180Y-100288720D01*
X123357761Y-99903953D01*
X123174638Y-99743093D01*
X122160595Y-100080420D01*
X121355901Y-100080420D01*
X121839405Y-99919580D01*
X121502078Y-98905537D01*
X121263577Y-98855264D01*
X120881562Y-99224219D01*
X120669820Y-99711280D01*
X120642239Y-100096047D01*
X119302304Y-100096047D01*
X119302304Y-99373642D01*
X119439764Y-99295396D01*
X119759383Y-98884092D01*
X119775505Y-98825362D01*
X121743093Y-98825362D01*
X122080420Y-99839405D01*
X123094463Y-99502078D01*
X123144736Y-99263577D01*
X122775781Y-98881562D01*
X122288720Y-98669820D01*
X121903953Y-98642239D01*
X121743093Y-98825362D01*
X119775505Y-98825362D01*
X119897273Y-98381784D01*
X119832443Y-97864943D01*
X119574759Y-97412254D01*
X119163455Y-97092635D01*
X119116683Y-97069212D01*
X118614375Y-96931322D01*
X118097533Y-96996153D01*
X117644845Y-97253836D01*
X117325225Y-97665140D01*
X117187335Y-98167448D01*
X117252166Y-98684290D01*
X117509849Y-99136978D01*
X117782304Y-99348700D01*
X117782304Y-100682894D01*
X113954964Y-104510234D01*
X113846670Y-104465267D01*
X113236009Y-104464735D01*
X112671629Y-104697932D01*
X112503387Y-104865880D01*
X112503162Y-104864683D01*
X112364090Y-104648559D01*
X112151890Y-104503569D01*
X111900000Y-104452560D01*
X110100000Y-104452560D01*
X109864683Y-104496838D01*
X109648559Y-104635910D01*
X109503569Y-104848110D01*
X109452560Y-105100000D01*
X105786647Y-105100000D01*
X111362364Y-96736423D01*
X112855264Y-96736423D01*
X113224219Y-97118438D01*
X113711280Y-97330180D01*
X114096047Y-97357761D01*
X114256907Y-97174638D01*
X113919580Y-96160595D01*
X112905537Y-96497922D01*
X112855264Y-96736423D01*
X111362364Y-96736423D01*
X111789282Y-96096047D01*
X112642239Y-96096047D01*
X112825362Y-96256907D01*
X113355901Y-96080420D01*
X114160595Y-96080420D01*
X114497922Y-97094463D01*
X114736423Y-97144736D01*
X115118438Y-96775781D01*
X115330180Y-96288720D01*
X115357761Y-95903953D01*
X115174638Y-95743093D01*
X114160595Y-96080420D01*
X113355901Y-96080420D01*
X113839405Y-95919580D01*
X113502078Y-94905537D01*
X113263577Y-94855264D01*
X112881562Y-95224219D01*
X112669820Y-95711280D01*
X112642239Y-96096047D01*
X111789282Y-96096047D01*
X112636405Y-94825362D01*
X113743093Y-94825362D01*
X114080420Y-95839405D01*
X115094463Y-95502078D01*
X115144736Y-95263577D01*
X114775781Y-94881562D01*
X114288720Y-94669820D01*
X113903953Y-94642239D01*
X113743093Y-94825362D01*
X112636405Y-94825362D01*
X115590756Y-90393837D01*
X115617309Y-90329541D01*
X115655954Y-90271705D01*
X115669668Y-90202760D01*
X115696502Y-90137785D01*
X115696429Y-90068223D01*
X115710000Y-90000000D01*
X115696286Y-89931057D01*
X115696213Y-89860757D01*
X115669524Y-89796515D01*
X115655954Y-89728295D01*
X115616900Y-89669846D01*
X115589930Y-89604928D01*
X115540693Y-89555794D01*
X115502046Y-89497954D01*
X115443596Y-89458899D01*
X115393837Y-89409244D01*
X115329541Y-89382690D01*
X115271705Y-89344046D01*
X115202762Y-89330332D01*
X115137786Y-89303498D01*
X115068223Y-89303571D01*
X115000000Y-89290000D01*
X106326647Y-89290000D01*
X107119980Y-88100000D01*
X123452560Y-88100000D01*
X123452560Y-89900000D01*
X123496838Y-90135317D01*
X123635910Y-90351441D01*
X123848110Y-90496431D01*
X124100000Y-90547440D01*
X125900000Y-90547440D01*
X126135317Y-90503162D01*
X126351441Y-90364090D01*
X126496431Y-90151890D01*
X126500567Y-90131466D01*
X126669357Y-90300551D01*
X127233330Y-90534733D01*
X127843991Y-90535265D01*
X127954713Y-90489515D01*
X133782304Y-96317106D01*
X133782304Y-105175590D01*
X133644845Y-105253836D01*
X133325225Y-105665140D01*
X133187335Y-106167448D01*
X133252166Y-106684290D01*
X133509849Y-107136978D01*
X133921153Y-107456598D01*
X133967925Y-107480020D01*
X134470233Y-107617910D01*
X134987075Y-107553080D01*
X135439764Y-107295396D01*
X135759383Y-106884092D01*
X135775505Y-106825362D01*
X137743093Y-106825362D01*
X138080420Y-107839405D01*
X139094463Y-107502078D01*
X139144736Y-107263577D01*
X138775781Y-106881562D01*
X138288720Y-106669820D01*
X137903953Y-106642239D01*
X137743093Y-106825362D01*
X135775505Y-106825362D01*
X135897273Y-106381784D01*
X135832443Y-105864943D01*
X135574759Y-105412254D01*
X135302304Y-105200533D01*
X135302304Y-96002304D01*
X135279632Y-95888324D01*
X135244452Y-95711464D01*
X135079705Y-95464903D01*
X129703744Y-90088942D01*
X131164730Y-90088942D01*
X131401725Y-90662514D01*
X131840177Y-91101732D01*
X132413336Y-91339728D01*
X133033942Y-91340270D01*
X133607514Y-91103275D01*
X134009489Y-90702001D01*
X134041673Y-90779699D01*
X134220302Y-90958327D01*
X134453691Y-91055000D01*
X134714250Y-91055000D01*
X134873000Y-90896250D01*
X134873000Y-90127000D01*
X134853000Y-90127000D01*
X134853000Y-89873000D01*
X134873000Y-89873000D01*
X134873000Y-89853000D01*
X135010817Y-89853000D01*
X135051610Y-89893864D01*
X135147000Y-89933474D01*
X135147000Y-90127000D01*
X135127000Y-90127000D01*
X135127000Y-90896250D01*
X135285750Y-91055000D01*
X135546309Y-91055000D01*
X135779698Y-90958327D01*
X135802336Y-90935689D01*
X136089227Y-91054817D01*
X136508932Y-91055183D01*
X136896829Y-90894907D01*
X136949832Y-90841996D01*
X137001610Y-90893864D01*
X137389227Y-91054817D01*
X137808932Y-91055183D01*
X138196829Y-90894907D01*
X138493864Y-90598390D01*
X138509585Y-90560529D01*
X138551725Y-90662514D01*
X138990177Y-91101732D01*
X139563336Y-91339728D01*
X140183942Y-91340270D01*
X140757514Y-91103275D01*
X141196732Y-90664823D01*
X141434728Y-90091664D01*
X141435270Y-89471058D01*
X141198275Y-88897486D01*
X140759823Y-88458268D01*
X140186664Y-88220272D01*
X139566058Y-88219730D01*
X138992486Y-88456725D01*
X138553268Y-88895177D01*
X138387152Y-89295228D01*
X138198390Y-89106136D01*
X138004978Y-89025824D01*
X138005183Y-88791068D01*
X137844907Y-88403171D01*
X137548390Y-88106136D01*
X137160773Y-87945183D01*
X136741068Y-87944817D01*
X136353171Y-88105093D01*
X136300168Y-88158004D01*
X136248390Y-88106136D01*
X135860773Y-87945183D01*
X135441068Y-87944817D01*
X135053171Y-88105093D01*
X134756136Y-88401610D01*
X134595183Y-88789227D01*
X134595047Y-88945000D01*
X134453691Y-88945000D01*
X134220302Y-89041673D01*
X134140730Y-89121244D01*
X134048275Y-88897486D01*
X133609823Y-88458268D01*
X133036664Y-88220272D01*
X132416058Y-88219730D01*
X131842486Y-88456725D01*
X131403268Y-88895177D01*
X131165272Y-89468336D01*
X131164730Y-90088942D01*
X129703744Y-90088942D01*
X129029766Y-89414964D01*
X129074733Y-89306670D01*
X129075265Y-88696009D01*
X128842068Y-88131629D01*
X128410643Y-87699449D01*
X127846670Y-87465267D01*
X127236009Y-87464735D01*
X126671629Y-87697932D01*
X126503387Y-87865880D01*
X126503162Y-87864683D01*
X126364090Y-87648559D01*
X126151890Y-87503569D01*
X125900000Y-87452560D01*
X124100000Y-87452560D01*
X123864683Y-87496838D01*
X123648559Y-87635910D01*
X123503569Y-87848110D01*
X123452560Y-88100000D01*
X107119980Y-88100000D01*
X119362364Y-69736423D01*
X120855264Y-69736423D01*
X121224219Y-70118438D01*
X121711280Y-70330180D01*
X122096047Y-70357761D01*
X122256907Y-70174638D01*
X121919580Y-69160595D01*
X120905537Y-69497922D01*
X120855264Y-69736423D01*
X119362364Y-69736423D01*
X119789282Y-69096047D01*
X120642239Y-69096047D01*
X120825362Y-69256907D01*
X121355901Y-69080420D01*
X122160595Y-69080420D01*
X122497922Y-70094463D01*
X122736423Y-70144736D01*
X123118438Y-69775781D01*
X123330180Y-69288720D01*
X123357761Y-68903953D01*
X123174638Y-68743093D01*
X122160595Y-69080420D01*
X121355901Y-69080420D01*
X121839405Y-68919580D01*
X121502078Y-67905537D01*
X121263577Y-67855264D01*
X120881562Y-68224219D01*
X120669820Y-68711280D01*
X120642239Y-69096047D01*
X119789282Y-69096047D01*
X120636405Y-67825362D01*
X121743093Y-67825362D01*
X122080420Y-68839405D01*
X123094463Y-68502078D01*
X123144736Y-68263577D01*
X122775781Y-67881562D01*
X122288720Y-67669820D01*
X121903953Y-67642239D01*
X121743093Y-67825362D01*
X120636405Y-67825362D01*
X125590756Y-60393837D01*
X125617309Y-60329541D01*
X125655954Y-60271705D01*
X125669668Y-60202760D01*
X125696502Y-60137785D01*
X125696429Y-60068223D01*
X125710000Y-60000000D01*
X125696286Y-59931057D01*
X125696213Y-59860757D01*
X125669524Y-59796515D01*
X125655954Y-59728295D01*
X125616900Y-59669846D01*
X125589930Y-59604928D01*
X125540693Y-59555794D01*
X125502046Y-59497954D01*
X125443596Y-59458899D01*
X125393837Y-59409244D01*
X125329541Y-59382690D01*
X125271705Y-59344046D01*
X125202762Y-59330332D01*
X125137786Y-59303498D01*
X125068223Y-59303571D01*
X125000000Y-59290000D01*
X116326647Y-59290000D01*
X126029032Y-44736423D01*
X126855264Y-44736423D01*
X127224219Y-45118438D01*
X127711280Y-45330180D01*
X128096047Y-45357761D01*
X128256907Y-45174638D01*
X127919580Y-44160595D01*
X126905537Y-44497922D01*
X126855264Y-44736423D01*
X126029032Y-44736423D01*
X126664683Y-43782947D01*
X126642239Y-44096047D01*
X126825362Y-44256907D01*
X127355901Y-44080420D01*
X128160595Y-44080420D01*
X128497922Y-45094463D01*
X128736423Y-45144736D01*
X129118438Y-44775781D01*
X129330180Y-44288720D01*
X129357761Y-43903953D01*
X129174638Y-43743093D01*
X128160595Y-44080420D01*
X127355901Y-44080420D01*
X127764792Y-43944400D01*
X127806251Y-43985859D01*
X127985859Y-43806251D01*
X127709909Y-43530301D01*
X127502078Y-42905537D01*
X127280728Y-42858879D01*
X127303072Y-42825362D01*
X127743093Y-42825362D01*
X128080420Y-43839405D01*
X129094463Y-43502078D01*
X129144736Y-43263577D01*
X128775781Y-42881562D01*
X128288720Y-42669820D01*
X127903953Y-42642239D01*
X127743093Y-42825362D01*
X127303072Y-42825362D01*
X129119980Y-40100000D01*
X129452560Y-40100000D01*
X129452560Y-41900000D01*
X129496838Y-42135317D01*
X129635910Y-42351441D01*
X129848110Y-42496431D01*
X130100000Y-42547440D01*
X131900000Y-42547440D01*
X132135317Y-42503162D01*
X132351441Y-42364090D01*
X132496431Y-42151890D01*
X132500567Y-42131466D01*
X132669357Y-42300551D01*
X133233330Y-42534733D01*
X133843991Y-42535265D01*
X134408371Y-42302068D01*
X134840551Y-41870643D01*
X134886494Y-41760000D01*
X134952886Y-41760000D01*
X143871766Y-50678880D01*
X143743093Y-50825362D01*
X144055600Y-51764792D01*
X144014141Y-51806251D01*
X144193749Y-51985859D01*
X144469699Y-51709909D01*
X144794686Y-51601800D01*
X144995553Y-51802667D01*
X144160595Y-52080420D01*
X144497922Y-53094463D01*
X144736423Y-53144736D01*
X145118438Y-52775781D01*
X145330180Y-52288720D01*
X145340309Y-52147423D01*
X147224597Y-54031711D01*
X147187335Y-54167448D01*
X147252166Y-54684290D01*
X147509849Y-55136978D01*
X147921153Y-55456598D01*
X147967925Y-55480020D01*
X148470233Y-55617910D01*
X148987075Y-55553080D01*
X149439764Y-55295396D01*
X149759383Y-54884092D01*
X149897273Y-54381784D01*
X149832443Y-53864943D01*
X149574759Y-53412254D01*
X149163455Y-53092635D01*
X149116683Y-53069212D01*
X148614375Y-52931322D01*
X148311770Y-52969280D01*
X135805089Y-40462599D01*
X135558527Y-40297852D01*
X135267688Y-40240000D01*
X134886846Y-40240000D01*
X134842068Y-40131629D01*
X134410643Y-39699449D01*
X133846670Y-39465267D01*
X133236009Y-39464735D01*
X132671629Y-39697932D01*
X132503387Y-39865880D01*
X132503162Y-39864683D01*
X132364090Y-39648559D01*
X132151890Y-39503569D01*
X131900000Y-39452560D01*
X130100000Y-39452560D01*
X129864683Y-39496838D01*
X129648559Y-39635910D01*
X129503569Y-39848110D01*
X129452560Y-40100000D01*
X129119980Y-40100000D01*
X132631660Y-34832481D01*
X132365458Y-35473567D01*
X132365458Y-35473567D01*
G37*
X132365458Y-35473567D02*
X132364543Y-36521834D01*
X132764853Y-37490658D01*
X133505443Y-38232542D01*
X134473567Y-38634542D01*
X135521834Y-38635457D01*
X136490658Y-38235147D01*
X137232542Y-37494557D01*
X137634542Y-36526433D01*
X137635457Y-35478166D01*
X137369196Y-34833765D01*
X153673353Y-59290000D01*
X145000000Y-59290000D01*
X144975012Y-59294970D01*
X144975012Y-57862010D01*
X144917160Y-57571171D01*
X144752413Y-57324609D01*
X140164227Y-52736423D01*
X142855264Y-52736423D01*
X143224219Y-53118438D01*
X143711280Y-53330180D01*
X144096047Y-53357761D01*
X144256907Y-53174638D01*
X143919580Y-52160595D01*
X142905537Y-52497922D01*
X142855264Y-52736423D01*
X140164227Y-52736423D01*
X139523851Y-52096047D01*
X142642239Y-52096047D01*
X142825362Y-52256907D01*
X143839405Y-51919580D01*
X143502078Y-50905537D01*
X143263577Y-50855264D01*
X142881562Y-51224219D01*
X142669820Y-51711280D01*
X142642239Y-52096047D01*
X139523851Y-52096047D01*
X136528769Y-49100965D01*
X136736423Y-49144736D01*
X137118438Y-48775781D01*
X137330180Y-48288720D01*
X137340309Y-48147423D01*
X139224597Y-50031711D01*
X139187335Y-50167448D01*
X139252166Y-50684290D01*
X139509849Y-51136978D01*
X139921153Y-51456598D01*
X139967925Y-51480020D01*
X140470233Y-51617910D01*
X140987075Y-51553080D01*
X141439764Y-51295396D01*
X141759383Y-50884092D01*
X141897273Y-50381784D01*
X141832443Y-49864943D01*
X141574759Y-49412254D01*
X141163455Y-49092635D01*
X141116683Y-49069212D01*
X140614375Y-48931322D01*
X140311770Y-48969280D01*
X136054704Y-44712214D01*
X135808142Y-44547467D01*
X135517303Y-44489615D01*
X132050303Y-44489615D01*
X131759464Y-44547467D01*
X131512902Y-44712214D01*
X130979902Y-45245214D01*
X130815155Y-45491776D01*
X130757303Y-45782615D01*
X130757303Y-51902306D01*
X130815155Y-52193145D01*
X130979902Y-52439707D01*
X140880001Y-62339806D01*
X140880001Y-62452560D01*
X139100000Y-62452560D01*
X138864683Y-62496838D01*
X138648559Y-62635910D01*
X138503569Y-62848110D01*
X138452560Y-63100000D01*
X138452560Y-64399171D01*
X132199999Y-58146610D01*
X132199999Y-57899999D01*
X132142147Y-57609160D01*
X132023106Y-57431002D01*
X132074733Y-57306670D01*
X132075265Y-56696009D01*
X131842068Y-56131629D01*
X131410643Y-55699449D01*
X130846670Y-55465267D01*
X130236009Y-55464735D01*
X129671629Y-55697932D01*
X129503387Y-55865880D01*
X129503162Y-55864683D01*
X129364090Y-55648559D01*
X129151890Y-55503569D01*
X128900000Y-55452560D01*
X127100000Y-55452560D01*
X126864683Y-55496838D01*
X126648559Y-55635910D01*
X126503569Y-55848110D01*
X126452560Y-56100000D01*
X126452560Y-57900000D01*
X126496838Y-58135317D01*
X126635910Y-58351441D01*
X126848110Y-58496431D01*
X127100000Y-58547440D01*
X128900000Y-58547440D01*
X129135317Y-58503162D01*
X129351441Y-58364090D01*
X129496431Y-58151890D01*
X129500567Y-58131466D01*
X129669357Y-58300551D01*
X130233330Y-58534733D01*
X130694664Y-58535135D01*
X130737851Y-58752251D01*
X130902598Y-58998813D01*
X141782304Y-69878519D01*
X141782304Y-78175590D01*
X141644845Y-78253836D01*
X141397553Y-78572065D01*
X140685023Y-77859535D01*
X140685023Y-69925023D01*
X140627171Y-69634184D01*
X140627171Y-69634183D01*
X140462424Y-69387622D01*
X134862389Y-63787587D01*
X134615827Y-63622840D01*
X134324988Y-63564988D01*
X130290010Y-63564988D01*
X129999170Y-63622840D01*
X129752609Y-63787587D01*
X120002599Y-73537597D01*
X119837852Y-73784159D01*
X119780000Y-74074998D01*
X119780000Y-76653154D01*
X119671629Y-76697932D01*
X119503387Y-76865880D01*
X119503162Y-76864683D01*
X119364090Y-76648559D01*
X119151890Y-76503569D01*
X118900000Y-76452560D01*
X117100000Y-76452560D01*
X116864683Y-76496838D01*
X116648559Y-76635910D01*
X116503569Y-76848110D01*
X116452560Y-77100000D01*
X116452560Y-78900000D01*
X116496838Y-79135317D01*
X116635910Y-79351441D01*
X116848110Y-79496431D01*
X117100000Y-79547440D01*
X118900000Y-79547440D01*
X119135317Y-79503162D01*
X119351441Y-79364090D01*
X119496431Y-79151890D01*
X119500567Y-79131466D01*
X119669357Y-79300551D01*
X120233330Y-79534733D01*
X120843991Y-79535265D01*
X121408371Y-79302068D01*
X121840551Y-78870643D01*
X122074733Y-78306670D01*
X122075265Y-77696009D01*
X121842068Y-77131629D01*
X121410643Y-76699449D01*
X121300000Y-76653506D01*
X121300000Y-74389800D01*
X121953377Y-73736423D01*
X128855264Y-73736423D01*
X129224219Y-74118438D01*
X129711280Y-74330180D01*
X130096047Y-74357761D01*
X130256907Y-74174638D01*
X129919580Y-73160595D01*
X128905537Y-73497922D01*
X128855264Y-73736423D01*
X121953377Y-73736423D01*
X129452560Y-66237240D01*
X129452560Y-66900000D01*
X129496838Y-67135317D01*
X129635910Y-67351441D01*
X129848110Y-67496431D01*
X130100000Y-67547440D01*
X131554758Y-67547440D01*
X128587582Y-70514616D01*
X127633026Y-70514616D01*
X127574759Y-70412254D01*
X127163455Y-70092635D01*
X127116683Y-70069212D01*
X126614375Y-69931322D01*
X126097533Y-69996153D01*
X125644845Y-70253836D01*
X125325225Y-70665140D01*
X125187335Y-71167448D01*
X125252166Y-71684290D01*
X125509849Y-72136978D01*
X125921153Y-72456598D01*
X125967925Y-72480020D01*
X126470233Y-72617910D01*
X126987075Y-72553080D01*
X127439764Y-72295396D01*
X127642413Y-72034616D01*
X128902384Y-72034616D01*
X129123395Y-71990654D01*
X128881562Y-72224219D01*
X128669820Y-72711280D01*
X128642239Y-73096047D01*
X128825362Y-73256907D01*
X129355901Y-73080420D01*
X130160595Y-73080420D01*
X130497922Y-74094463D01*
X130736423Y-74144736D01*
X131118438Y-73775781D01*
X131330180Y-73288720D01*
X131357761Y-72903953D01*
X131174638Y-72743093D01*
X130160595Y-73080420D01*
X129355901Y-73080420D01*
X129839405Y-72919580D01*
X129502078Y-71905537D01*
X129348326Y-71873128D01*
X129419812Y-71825362D01*
X129743093Y-71825362D01*
X130080420Y-72839405D01*
X131094463Y-72502078D01*
X131144736Y-72263577D01*
X130775781Y-71881562D01*
X130288720Y-71669820D01*
X129903953Y-71642239D01*
X129743093Y-71825362D01*
X129419812Y-71825362D01*
X129439785Y-71812017D01*
X132852400Y-68399402D01*
X133017147Y-68152841D01*
X133064739Y-67913579D01*
X133074999Y-67862001D01*
X133074999Y-67468988D01*
X133233330Y-67534733D01*
X133843991Y-67535265D01*
X133954713Y-67489515D01*
X138265001Y-71799803D01*
X138265001Y-75668120D01*
X137903953Y-75642239D01*
X137743093Y-75825362D01*
X138055600Y-76764792D01*
X138014141Y-76806251D01*
X138193749Y-76985859D01*
X138265001Y-76914607D01*
X138265001Y-77045689D01*
X138235208Y-77055600D01*
X138193749Y-77014141D01*
X138014141Y-77193749D01*
X138265001Y-77444609D01*
X138265001Y-79542003D01*
X138322853Y-79832842D01*
X138487600Y-80079404D01*
X151905023Y-93496827D01*
X151905023Y-94840808D01*
X135302304Y-78238089D01*
X135302304Y-77736423D01*
X136855264Y-77736423D01*
X137224219Y-78118438D01*
X137711280Y-78330180D01*
X138096047Y-78357761D01*
X138256907Y-78174638D01*
X137919580Y-77160595D01*
X136905537Y-77497922D01*
X136855264Y-77736423D01*
X135302304Y-77736423D01*
X135302304Y-77096047D01*
X136642239Y-77096047D01*
X136825362Y-77256907D01*
X137839405Y-76919580D01*
X137502078Y-75905537D01*
X137263577Y-75855264D01*
X136881562Y-76224219D01*
X136669820Y-76711280D01*
X136642239Y-77096047D01*
X135302304Y-77096047D01*
X135302304Y-76373642D01*
X135439764Y-76295396D01*
X135759383Y-75884092D01*
X135897273Y-75381784D01*
X135832443Y-74864943D01*
X135574759Y-74412254D01*
X135163455Y-74092635D01*
X135116683Y-74069212D01*
X134614375Y-73931322D01*
X134097533Y-73996153D01*
X133644845Y-74253836D01*
X133325225Y-74665140D01*
X133187335Y-75167448D01*
X133252166Y-75684290D01*
X133509849Y-76136978D01*
X133782304Y-76348700D01*
X133782304Y-78552891D01*
X133840156Y-78843730D01*
X134004903Y-79090292D01*
X149929610Y-95014999D01*
X140765001Y-95014999D01*
X140474161Y-95072851D01*
X140227600Y-95237598D01*
X139954964Y-95510234D01*
X139846670Y-95465267D01*
X139236009Y-95464735D01*
X138671629Y-95697932D01*
X138503387Y-95865880D01*
X138503162Y-95864683D01*
X138364090Y-95648559D01*
X138151890Y-95503569D01*
X137900000Y-95452560D01*
X136100000Y-95452560D01*
X135864683Y-95496838D01*
X135648559Y-95635910D01*
X135503569Y-95848110D01*
X135452560Y-96100000D01*
X135452560Y-97900000D01*
X135496838Y-98135317D01*
X135635910Y-98351441D01*
X135848110Y-98496431D01*
X136100000Y-98547440D01*
X137900000Y-98547440D01*
X138135317Y-98503162D01*
X138351441Y-98364090D01*
X138496431Y-98151890D01*
X138500567Y-98131466D01*
X138669357Y-98300551D01*
X139233330Y-98534733D01*
X139843991Y-98535265D01*
X140408371Y-98302068D01*
X140840551Y-97870643D01*
X141074733Y-97306670D01*
X141075265Y-96696009D01*
X141029515Y-96585287D01*
X141079803Y-96534999D01*
X146452560Y-96534999D01*
X146452560Y-97900000D01*
X146496838Y-98135317D01*
X146635910Y-98351441D01*
X146848110Y-98496431D01*
X147100000Y-98547440D01*
X147917758Y-98547440D01*
X142004903Y-104460295D01*
X141840156Y-104706857D01*
X141782304Y-104997696D01*
X141782304Y-109175590D01*
X141644845Y-109253836D01*
X141325225Y-109665140D01*
X141187335Y-110167448D01*
X141252166Y-110684290D01*
X141509849Y-111136978D01*
X141921153Y-111456598D01*
X141967925Y-111480020D01*
X142470233Y-111617910D01*
X142987075Y-111553080D01*
X143439764Y-111295396D01*
X143759383Y-110884092D01*
X143775505Y-110825362D01*
X145743093Y-110825362D01*
X146080420Y-111839405D01*
X147094463Y-111502078D01*
X147144736Y-111263577D01*
X146775781Y-110881562D01*
X146288720Y-110669820D01*
X145903953Y-110642239D01*
X145743093Y-110825362D01*
X143775505Y-110825362D01*
X143897273Y-110381784D01*
X143832443Y-109864943D01*
X143574759Y-109412254D01*
X143302304Y-109200533D01*
X143302304Y-105312498D01*
X149782304Y-98832498D01*
X149782304Y-113175590D01*
X149644845Y-113253836D01*
X149325225Y-113665140D01*
X149187335Y-114167448D01*
X149252166Y-114684290D01*
X149509849Y-115136978D01*
X149921153Y-115456598D01*
X149967925Y-115480020D01*
X150470233Y-115617910D01*
X150987075Y-115553080D01*
X151439764Y-115295396D01*
X151455012Y-115275774D01*
X151455012Y-115732014D01*
X151512864Y-116022853D01*
X151677611Y-116269415D01*
X151924173Y-116434162D01*
X152215012Y-116492014D01*
X152505851Y-116434162D01*
X152752413Y-116269415D01*
X152793186Y-116228642D01*
X152825362Y-116256907D01*
X153764792Y-115944400D01*
X153806251Y-115985859D01*
X153985859Y-115806251D01*
X153914607Y-115734999D01*
X154045689Y-115734999D01*
X154055600Y-115764792D01*
X154014141Y-115806251D01*
X154193749Y-115985859D01*
X154444609Y-115734999D01*
X154660197Y-115734999D01*
X154794685Y-115869487D01*
X154160595Y-116080420D01*
X154497922Y-117094463D01*
X154736423Y-117144736D01*
X155118438Y-116775781D01*
X155173007Y-116650258D01*
X155173007Y-119290000D01*
X140000000Y-119290000D01*
X139728295Y-119344046D01*
X139497954Y-119497954D01*
X139344046Y-119728295D01*
X139315262Y-119873000D01*
X130684738Y-119873000D01*
X130655954Y-119728295D01*
X130502046Y-119497954D01*
X130271705Y-119344046D01*
X130000000Y-119290000D01*
X96326647Y-119290000D01*
X98029031Y-116736423D01*
X152855264Y-116736423D01*
X153224219Y-117118438D01*
X153711280Y-117330180D01*
X154096047Y-117357761D01*
X154256907Y-117174638D01*
X153919580Y-116160595D01*
X152905537Y-116497922D01*
X152855264Y-116736423D01*
X98029031Y-116736423D01*
X101119980Y-112100000D01*
X121452560Y-112100000D01*
X121452560Y-113900000D01*
X121496838Y-114135317D01*
X121635910Y-114351441D01*
X121848110Y-114496431D01*
X122100000Y-114547440D01*
X123900000Y-114547440D01*
X124135317Y-114503162D01*
X124351441Y-114364090D01*
X124496431Y-114151890D01*
X124500567Y-114131466D01*
X124669357Y-114300551D01*
X125233330Y-114534733D01*
X125843991Y-114535265D01*
X126408371Y-114302068D01*
X126840551Y-113870643D01*
X127074733Y-113306670D01*
X127075229Y-112736423D01*
X144855264Y-112736423D01*
X145224219Y-113118438D01*
X145711280Y-113330180D01*
X146096047Y-113357761D01*
X146256907Y-113174638D01*
X145919580Y-112160595D01*
X144905537Y-112497922D01*
X144855264Y-112736423D01*
X127075229Y-112736423D01*
X127075265Y-112696009D01*
X127029515Y-112585287D01*
X127079705Y-112535097D01*
X127244452Y-112288535D01*
X127282740Y-112096047D01*
X144642239Y-112096047D01*
X144825362Y-112256907D01*
X145355901Y-112080420D01*
X146160595Y-112080420D01*
X146497922Y-113094463D01*
X146736423Y-113144736D01*
X147118438Y-112775781D01*
X147330180Y-112288720D01*
X147357761Y-111903953D01*
X147174638Y-111743093D01*
X146160595Y-112080420D01*
X145355901Y-112080420D01*
X145839405Y-111919580D01*
X145502078Y-110905537D01*
X145263577Y-110855264D01*
X144881562Y-111224219D01*
X144669820Y-111711280D01*
X144642239Y-112096047D01*
X127282740Y-112096047D01*
X127302304Y-111997696D01*
X127302304Y-108736423D01*
X136855264Y-108736423D01*
X137224219Y-109118438D01*
X137711280Y-109330180D01*
X138096047Y-109357761D01*
X138256907Y-109174638D01*
X137919580Y-108160595D01*
X136905537Y-108497922D01*
X136855264Y-108736423D01*
X127302304Y-108736423D01*
X127302304Y-108096047D01*
X136642239Y-108096047D01*
X136825362Y-108256907D01*
X137355901Y-108080420D01*
X138160595Y-108080420D01*
X138497922Y-109094463D01*
X138736423Y-109144736D01*
X139118438Y-108775781D01*
X139330180Y-108288720D01*
X139357761Y-107903953D01*
X139174638Y-107743093D01*
X138160595Y-108080420D01*
X137355901Y-108080420D01*
X137839405Y-107919580D01*
X137502078Y-106905537D01*
X137263577Y-106855264D01*
X136881562Y-107224219D01*
X136669820Y-107711280D01*
X136642239Y-108096047D01*
X127302304Y-108096047D01*
X127302304Y-104736423D01*
X128855264Y-104736423D01*
X129224219Y-105118438D01*
X129711280Y-105330180D01*
X130096047Y-105357761D01*
X130256907Y-105174638D01*
X129919580Y-104160595D01*
X128905537Y-104497922D01*
X128855264Y-104736423D01*
X127302304Y-104736423D01*
X127302304Y-104096047D01*
X128642239Y-104096047D01*
X128825362Y-104256907D01*
X129355901Y-104080420D01*
X130160595Y-104080420D01*
X130497922Y-105094463D01*
X130736423Y-105144736D01*
X131118438Y-104775781D01*
X131330180Y-104288720D01*
X131357761Y-103903953D01*
X131174638Y-103743093D01*
X130160595Y-104080420D01*
X129355901Y-104080420D01*
X129839405Y-103919580D01*
X129502078Y-102905537D01*
X129263577Y-102855264D01*
X128881562Y-103224219D01*
X128669820Y-103711280D01*
X128642239Y-104096047D01*
X127302304Y-104096047D01*
X127302304Y-103373642D01*
X127439764Y-103295396D01*
X127759383Y-102884092D01*
X127775505Y-102825362D01*
X129743093Y-102825362D01*
X130080420Y-103839405D01*
X131094463Y-103502078D01*
X131144736Y-103263577D01*
X130775781Y-102881562D01*
X130288720Y-102669820D01*
X129903953Y-102642239D01*
X129743093Y-102825362D01*
X127775505Y-102825362D01*
X127897273Y-102381784D01*
X127832443Y-101864943D01*
X127574759Y-101412254D01*
X127163455Y-101092635D01*
X127116683Y-101069212D01*
X126614375Y-100931322D01*
X126097533Y-100996153D01*
X125644845Y-101253836D01*
X125325225Y-101665140D01*
X125187335Y-102167448D01*
X125252166Y-102684290D01*
X125509849Y-103136978D01*
X125782304Y-103348700D01*
X125782304Y-111465211D01*
X125236009Y-111464735D01*
X124671629Y-111697932D01*
X124503387Y-111865880D01*
X124503162Y-111864683D01*
X124364090Y-111648559D01*
X124151890Y-111503569D01*
X123900000Y-111452560D01*
X122100000Y-111452560D01*
X121864683Y-111496838D01*
X121648559Y-111635910D01*
X121503569Y-111848110D01*
X121452560Y-112100000D01*
X101119980Y-112100000D01*
X105786647Y-105100000D01*
X109452560Y-105100000D01*
X109452560Y-106900000D01*
X109496838Y-107135317D01*
X109635910Y-107351441D01*
X109848110Y-107496431D01*
X110100000Y-107547440D01*
X111900000Y-107547440D01*
X112135317Y-107503162D01*
X112351441Y-107364090D01*
X112496431Y-107151890D01*
X112500567Y-107131466D01*
X112669357Y-107300551D01*
X113233330Y-107534733D01*
X113843991Y-107535265D01*
X114408371Y-107302068D01*
X114840551Y-106870643D01*
X115074733Y-106306670D01*
X115075265Y-105696009D01*
X115029515Y-105585287D01*
X119079705Y-101535097D01*
X119244452Y-101288535D01*
X119302304Y-100997696D01*
X119302304Y-100736423D01*
X120855264Y-100736423D01*
X121224219Y-101118438D01*
X121711280Y-101330180D01*
X122096047Y-101357761D01*
X122256907Y-101174638D01*
X121919580Y-100160595D01*
X120905537Y-100497922D01*
X120855264Y-100736423D01*
X119302304Y-100736423D01*
X119302304Y-100096047D01*
X120642239Y-100096047D01*
X120825362Y-100256907D01*
X121355901Y-100080420D01*
X122160595Y-100080420D01*
X122497922Y-101094463D01*
X122736423Y-101144736D01*
X123118438Y-100775781D01*
X123330180Y-100288720D01*
X123357761Y-99903953D01*
X123174638Y-99743093D01*
X122160595Y-100080420D01*
X121355901Y-100080420D01*
X121839405Y-99919580D01*
X121502078Y-98905537D01*
X121263577Y-98855264D01*
X120881562Y-99224219D01*
X120669820Y-99711280D01*
X120642239Y-100096047D01*
X119302304Y-100096047D01*
X119302304Y-99373642D01*
X119439764Y-99295396D01*
X119759383Y-98884092D01*
X119775505Y-98825362D01*
X121743093Y-98825362D01*
X122080420Y-99839405D01*
X123094463Y-99502078D01*
X123144736Y-99263577D01*
X122775781Y-98881562D01*
X122288720Y-98669820D01*
X121903953Y-98642239D01*
X121743093Y-98825362D01*
X119775505Y-98825362D01*
X119897273Y-98381784D01*
X119832443Y-97864943D01*
X119574759Y-97412254D01*
X119163455Y-97092635D01*
X119116683Y-97069212D01*
X118614375Y-96931322D01*
X118097533Y-96996153D01*
X117644845Y-97253836D01*
X117325225Y-97665140D01*
X117187335Y-98167448D01*
X117252166Y-98684290D01*
X117509849Y-99136978D01*
X117782304Y-99348700D01*
X117782304Y-100682894D01*
X113954964Y-104510234D01*
X113846670Y-104465267D01*
X113236009Y-104464735D01*
X112671629Y-104697932D01*
X112503387Y-104865880D01*
X112503162Y-104864683D01*
X112364090Y-104648559D01*
X112151890Y-104503569D01*
X111900000Y-104452560D01*
X110100000Y-104452560D01*
X109864683Y-104496838D01*
X109648559Y-104635910D01*
X109503569Y-104848110D01*
X109452560Y-105100000D01*
X105786647Y-105100000D01*
X111362364Y-96736423D01*
X112855264Y-96736423D01*
X113224219Y-97118438D01*
X113711280Y-97330180D01*
X114096047Y-97357761D01*
X114256907Y-97174638D01*
X113919580Y-96160595D01*
X112905537Y-96497922D01*
X112855264Y-96736423D01*
X111362364Y-96736423D01*
X111789282Y-96096047D01*
X112642239Y-96096047D01*
X112825362Y-96256907D01*
X113355901Y-96080420D01*
X114160595Y-96080420D01*
X114497922Y-97094463D01*
X114736423Y-97144736D01*
X115118438Y-96775781D01*
X115330180Y-96288720D01*
X115357761Y-95903953D01*
X115174638Y-95743093D01*
X114160595Y-96080420D01*
X113355901Y-96080420D01*
X113839405Y-95919580D01*
X113502078Y-94905537D01*
X113263577Y-94855264D01*
X112881562Y-95224219D01*
X112669820Y-95711280D01*
X112642239Y-96096047D01*
X111789282Y-96096047D01*
X112636405Y-94825362D01*
X113743093Y-94825362D01*
X114080420Y-95839405D01*
X115094463Y-95502078D01*
X115144736Y-95263577D01*
X114775781Y-94881562D01*
X114288720Y-94669820D01*
X113903953Y-94642239D01*
X113743093Y-94825362D01*
X112636405Y-94825362D01*
X115590756Y-90393837D01*
X115617309Y-90329541D01*
X115655954Y-90271705D01*
X115669668Y-90202760D01*
X115696502Y-90137785D01*
X115696429Y-90068223D01*
X115710000Y-90000000D01*
X115696286Y-89931057D01*
X115696213Y-89860757D01*
X115669524Y-89796515D01*
X115655954Y-89728295D01*
X115616900Y-89669846D01*
X115589930Y-89604928D01*
X115540693Y-89555794D01*
X115502046Y-89497954D01*
X115443596Y-89458899D01*
X115393837Y-89409244D01*
X115329541Y-89382690D01*
X115271705Y-89344046D01*
X115202762Y-89330332D01*
X115137786Y-89303498D01*
X115068223Y-89303571D01*
X115000000Y-89290000D01*
X106326647Y-89290000D01*
X107119980Y-88100000D01*
X123452560Y-88100000D01*
X123452560Y-89900000D01*
X123496838Y-90135317D01*
X123635910Y-90351441D01*
X123848110Y-90496431D01*
X124100000Y-90547440D01*
X125900000Y-90547440D01*
X126135317Y-90503162D01*
X126351441Y-90364090D01*
X126496431Y-90151890D01*
X126500567Y-90131466D01*
X126669357Y-90300551D01*
X127233330Y-90534733D01*
X127843991Y-90535265D01*
X127954713Y-90489515D01*
X133782304Y-96317106D01*
X133782304Y-105175590D01*
X133644845Y-105253836D01*
X133325225Y-105665140D01*
X133187335Y-106167448D01*
X133252166Y-106684290D01*
X133509849Y-107136978D01*
X133921153Y-107456598D01*
X133967925Y-107480020D01*
X134470233Y-107617910D01*
X134987075Y-107553080D01*
X135439764Y-107295396D01*
X135759383Y-106884092D01*
X135775505Y-106825362D01*
X137743093Y-106825362D01*
X138080420Y-107839405D01*
X139094463Y-107502078D01*
X139144736Y-107263577D01*
X138775781Y-106881562D01*
X138288720Y-106669820D01*
X137903953Y-106642239D01*
X137743093Y-106825362D01*
X135775505Y-106825362D01*
X135897273Y-106381784D01*
X135832443Y-105864943D01*
X135574759Y-105412254D01*
X135302304Y-105200533D01*
X135302304Y-96002304D01*
X135279632Y-95888324D01*
X135244452Y-95711464D01*
X135079705Y-95464903D01*
X129703744Y-90088942D01*
X131164730Y-90088942D01*
X131401725Y-90662514D01*
X131840177Y-91101732D01*
X132413336Y-91339728D01*
X133033942Y-91340270D01*
X133607514Y-91103275D01*
X134009489Y-90702001D01*
X134041673Y-90779699D01*
X134220302Y-90958327D01*
X134453691Y-91055000D01*
X134714250Y-91055000D01*
X134873000Y-90896250D01*
X134873000Y-90127000D01*
X134853000Y-90127000D01*
X134853000Y-89873000D01*
X134873000Y-89873000D01*
X134873000Y-89853000D01*
X135010817Y-89853000D01*
X135051610Y-89893864D01*
X135147000Y-89933474D01*
X135147000Y-90127000D01*
X135127000Y-90127000D01*
X135127000Y-90896250D01*
X135285750Y-91055000D01*
X135546309Y-91055000D01*
X135779698Y-90958327D01*
X135802336Y-90935689D01*
X136089227Y-91054817D01*
X136508932Y-91055183D01*
X136896829Y-90894907D01*
X136949832Y-90841996D01*
X137001610Y-90893864D01*
X137389227Y-91054817D01*
X137808932Y-91055183D01*
X138196829Y-90894907D01*
X138493864Y-90598390D01*
X138509585Y-90560529D01*
X138551725Y-90662514D01*
X138990177Y-91101732D01*
X139563336Y-91339728D01*
X140183942Y-91340270D01*
X140757514Y-91103275D01*
X141196732Y-90664823D01*
X141434728Y-90091664D01*
X141435270Y-89471058D01*
X141198275Y-88897486D01*
X140759823Y-88458268D01*
X140186664Y-88220272D01*
X139566058Y-88219730D01*
X138992486Y-88456725D01*
X138553268Y-88895177D01*
X138387152Y-89295228D01*
X138198390Y-89106136D01*
X138004978Y-89025824D01*
X138005183Y-88791068D01*
X137844907Y-88403171D01*
X137548390Y-88106136D01*
X137160773Y-87945183D01*
X136741068Y-87944817D01*
X136353171Y-88105093D01*
X136300168Y-88158004D01*
X136248390Y-88106136D01*
X135860773Y-87945183D01*
X135441068Y-87944817D01*
X135053171Y-88105093D01*
X134756136Y-88401610D01*
X134595183Y-88789227D01*
X134595047Y-88945000D01*
X134453691Y-88945000D01*
X134220302Y-89041673D01*
X134140730Y-89121244D01*
X134048275Y-88897486D01*
X133609823Y-88458268D01*
X133036664Y-88220272D01*
X132416058Y-88219730D01*
X131842486Y-88456725D01*
X131403268Y-88895177D01*
X131165272Y-89468336D01*
X131164730Y-90088942D01*
X129703744Y-90088942D01*
X129029766Y-89414964D01*
X129074733Y-89306670D01*
X129075265Y-88696009D01*
X128842068Y-88131629D01*
X128410643Y-87699449D01*
X127846670Y-87465267D01*
X127236009Y-87464735D01*
X126671629Y-87697932D01*
X126503387Y-87865880D01*
X126503162Y-87864683D01*
X126364090Y-87648559D01*
X126151890Y-87503569D01*
X125900000Y-87452560D01*
X124100000Y-87452560D01*
X123864683Y-87496838D01*
X123648559Y-87635910D01*
X123503569Y-87848110D01*
X123452560Y-88100000D01*
X107119980Y-88100000D01*
X119362364Y-69736423D01*
X120855264Y-69736423D01*
X121224219Y-70118438D01*
X121711280Y-70330180D01*
X122096047Y-70357761D01*
X122256907Y-70174638D01*
X121919580Y-69160595D01*
X120905537Y-69497922D01*
X120855264Y-69736423D01*
X119362364Y-69736423D01*
X119789282Y-69096047D01*
X120642239Y-69096047D01*
X120825362Y-69256907D01*
X121355901Y-69080420D01*
X122160595Y-69080420D01*
X122497922Y-70094463D01*
X122736423Y-70144736D01*
X123118438Y-69775781D01*
X123330180Y-69288720D01*
X123357761Y-68903953D01*
X123174638Y-68743093D01*
X122160595Y-69080420D01*
X121355901Y-69080420D01*
X121839405Y-68919580D01*
X121502078Y-67905537D01*
X121263577Y-67855264D01*
X120881562Y-68224219D01*
X120669820Y-68711280D01*
X120642239Y-69096047D01*
X119789282Y-69096047D01*
X120636405Y-67825362D01*
X121743093Y-67825362D01*
X122080420Y-68839405D01*
X123094463Y-68502078D01*
X123144736Y-68263577D01*
X122775781Y-67881562D01*
X122288720Y-67669820D01*
X121903953Y-67642239D01*
X121743093Y-67825362D01*
X120636405Y-67825362D01*
X125590756Y-60393837D01*
X125617309Y-60329541D01*
X125655954Y-60271705D01*
X125669668Y-60202760D01*
X125696502Y-60137785D01*
X125696429Y-60068223D01*
X125710000Y-60000000D01*
X125696286Y-59931057D01*
X125696213Y-59860757D01*
X125669524Y-59796515D01*
X125655954Y-59728295D01*
X125616900Y-59669846D01*
X125589930Y-59604928D01*
X125540693Y-59555794D01*
X125502046Y-59497954D01*
X125443596Y-59458899D01*
X125393837Y-59409244D01*
X125329541Y-59382690D01*
X125271705Y-59344046D01*
X125202762Y-59330332D01*
X125137786Y-59303498D01*
X125068223Y-59303571D01*
X125000000Y-59290000D01*
X116326647Y-59290000D01*
X126029032Y-44736423D01*
X126855264Y-44736423D01*
X127224219Y-45118438D01*
X127711280Y-45330180D01*
X128096047Y-45357761D01*
X128256907Y-45174638D01*
X127919580Y-44160595D01*
X126905537Y-44497922D01*
X126855264Y-44736423D01*
X126029032Y-44736423D01*
X126664683Y-43782947D01*
X126642239Y-44096047D01*
X126825362Y-44256907D01*
X127355901Y-44080420D01*
X128160595Y-44080420D01*
X128497922Y-45094463D01*
X128736423Y-45144736D01*
X129118438Y-44775781D01*
X129330180Y-44288720D01*
X129357761Y-43903953D01*
X129174638Y-43743093D01*
X128160595Y-44080420D01*
X127355901Y-44080420D01*
X127764792Y-43944400D01*
X127806251Y-43985859D01*
X127985859Y-43806251D01*
X127709909Y-43530301D01*
X127502078Y-42905537D01*
X127280728Y-42858879D01*
X127303072Y-42825362D01*
X127743093Y-42825362D01*
X128080420Y-43839405D01*
X129094463Y-43502078D01*
X129144736Y-43263577D01*
X128775781Y-42881562D01*
X128288720Y-42669820D01*
X127903953Y-42642239D01*
X127743093Y-42825362D01*
X127303072Y-42825362D01*
X129119980Y-40100000D01*
X129452560Y-40100000D01*
X129452560Y-41900000D01*
X129496838Y-42135317D01*
X129635910Y-42351441D01*
X129848110Y-42496431D01*
X130100000Y-42547440D01*
X131900000Y-42547440D01*
X132135317Y-42503162D01*
X132351441Y-42364090D01*
X132496431Y-42151890D01*
X132500567Y-42131466D01*
X132669357Y-42300551D01*
X133233330Y-42534733D01*
X133843991Y-42535265D01*
X134408371Y-42302068D01*
X134840551Y-41870643D01*
X134886494Y-41760000D01*
X134952886Y-41760000D01*
X143871766Y-50678880D01*
X143743093Y-50825362D01*
X144055600Y-51764792D01*
X144014141Y-51806251D01*
X144193749Y-51985859D01*
X144469699Y-51709909D01*
X144794686Y-51601800D01*
X144995553Y-51802667D01*
X144160595Y-52080420D01*
X144497922Y-53094463D01*
X144736423Y-53144736D01*
X145118438Y-52775781D01*
X145330180Y-52288720D01*
X145340309Y-52147423D01*
X147224597Y-54031711D01*
X147187335Y-54167448D01*
X147252166Y-54684290D01*
X147509849Y-55136978D01*
X147921153Y-55456598D01*
X147967925Y-55480020D01*
X148470233Y-55617910D01*
X148987075Y-55553080D01*
X149439764Y-55295396D01*
X149759383Y-54884092D01*
X149897273Y-54381784D01*
X149832443Y-53864943D01*
X149574759Y-53412254D01*
X149163455Y-53092635D01*
X149116683Y-53069212D01*
X148614375Y-52931322D01*
X148311770Y-52969280D01*
X135805089Y-40462599D01*
X135558527Y-40297852D01*
X135267688Y-40240000D01*
X134886846Y-40240000D01*
X134842068Y-40131629D01*
X134410643Y-39699449D01*
X133846670Y-39465267D01*
X133236009Y-39464735D01*
X132671629Y-39697932D01*
X132503387Y-39865880D01*
X132503162Y-39864683D01*
X132364090Y-39648559D01*
X132151890Y-39503569D01*
X131900000Y-39452560D01*
X130100000Y-39452560D01*
X129864683Y-39496838D01*
X129648559Y-39635910D01*
X129503569Y-39848110D01*
X129452560Y-40100000D01*
X129119980Y-40100000D01*
X132631660Y-34832481D01*
X132365458Y-35473567D01*
G36*
X163673353Y-89290000D02*
X155000000Y-89290000D01*
X154931777Y-89303571D01*
X154862214Y-89303498D01*
X154797238Y-89330332D01*
X154728295Y-89344046D01*
X154670459Y-89382690D01*
X154606163Y-89409244D01*
X154556404Y-89458899D01*
X154497954Y-89497954D01*
X154459307Y-89555794D01*
X154410070Y-89604928D01*
X154383100Y-89669846D01*
X154344046Y-89728295D01*
X154330476Y-89796515D01*
X154303787Y-89860757D01*
X154303714Y-89931057D01*
X154290000Y-90000000D01*
X154303571Y-90068223D01*
X154303498Y-90137786D01*
X154330332Y-90202762D01*
X154344046Y-90271705D01*
X154382690Y-90329541D01*
X154409244Y-90393837D01*
X158061904Y-95872827D01*
X150223693Y-88034616D01*
X157451582Y-88034616D01*
X157509849Y-88136978D01*
X157921153Y-88456598D01*
X157967925Y-88480020D01*
X158470233Y-88617910D01*
X158987075Y-88553080D01*
X159439764Y-88295396D01*
X159759383Y-87884092D01*
X159897273Y-87381784D01*
X159832443Y-86864943D01*
X159574759Y-86412254D01*
X159163455Y-86092635D01*
X159116683Y-86069212D01*
X158614375Y-85931322D01*
X158097533Y-85996153D01*
X157644845Y-86253836D01*
X157442196Y-86514616D01*
X149340104Y-86514616D01*
X148561911Y-85736423D01*
X152855264Y-85736423D01*
X153224219Y-86118438D01*
X153711280Y-86330180D01*
X154096047Y-86357761D01*
X154256907Y-86174638D01*
X153919580Y-85160595D01*
X152905537Y-85497922D01*
X152855264Y-85736423D01*
X148561911Y-85736423D01*
X147921535Y-85096047D01*
X152642239Y-85096047D01*
X152825362Y-85256907D01*
X153355901Y-85080420D01*
X154160595Y-85080420D01*
X154497922Y-86094463D01*
X154736423Y-86144736D01*
X155118438Y-85775781D01*
X155330180Y-85288720D01*
X155357761Y-84903953D01*
X155174638Y-84743093D01*
X154160595Y-85080420D01*
X153355901Y-85080420D01*
X153839405Y-84919580D01*
X153502078Y-83905537D01*
X153263577Y-83855264D01*
X152881562Y-84224219D01*
X152669820Y-84711280D01*
X152642239Y-85096047D01*
X147921535Y-85096047D01*
X144561911Y-81736423D01*
X144855264Y-81736423D01*
X145224219Y-82118438D01*
X145711280Y-82330180D01*
X146096047Y-82357761D01*
X146256907Y-82174638D01*
X145919580Y-81160595D01*
X144905537Y-81497922D01*
X144855264Y-81736423D01*
X144561911Y-81736423D01*
X143921535Y-81096047D01*
X144642239Y-81096047D01*
X144825362Y-81256907D01*
X145839405Y-80919580D01*
X145502078Y-79905537D01*
X145263577Y-79855264D01*
X144881562Y-80224219D01*
X144669820Y-80711280D01*
X144642239Y-81096047D01*
X143921535Y-81096047D01*
X143236556Y-80411068D01*
X143439764Y-80295396D01*
X143759383Y-79884092D01*
X143897273Y-79381784D01*
X143832443Y-78864943D01*
X143574759Y-78412254D01*
X143302304Y-78200533D01*
X143302304Y-69563717D01*
X143244452Y-69272878D01*
X143244452Y-69272877D01*
X143079705Y-69026316D01*
X139600829Y-65547440D01*
X140900000Y-65547440D01*
X141135317Y-65503162D01*
X141351441Y-65364090D01*
X141496431Y-65151890D01*
X141500567Y-65131466D01*
X141669357Y-65300551D01*
X142233330Y-65534733D01*
X142789989Y-65535218D01*
X142789989Y-67913579D01*
X142847841Y-68204419D01*
X143012588Y-68450980D01*
X145690011Y-71128402D01*
X145690011Y-79182323D01*
X145747863Y-79473162D01*
X145879464Y-79670117D01*
X145743093Y-79825362D01*
X146055600Y-80764792D01*
X146014141Y-80806251D01*
X146193749Y-80985859D01*
X146469699Y-80709909D01*
X146794686Y-80601800D01*
X146995553Y-80802667D01*
X146160595Y-81080420D01*
X146497922Y-82094463D01*
X146736423Y-82144736D01*
X147118438Y-81775781D01*
X147330180Y-81288720D01*
X147340309Y-81147423D01*
X149224597Y-83031711D01*
X149187335Y-83167448D01*
X149252166Y-83684290D01*
X149509849Y-84136978D01*
X149921153Y-84456598D01*
X149967925Y-84480020D01*
X150470233Y-84617910D01*
X150987075Y-84553080D01*
X151439764Y-84295396D01*
X151759383Y-83884092D01*
X151775505Y-83825362D01*
X153743093Y-83825362D01*
X154080420Y-84839405D01*
X155094463Y-84502078D01*
X155144736Y-84263577D01*
X154775781Y-83881562D01*
X154288720Y-83669820D01*
X153903953Y-83642239D01*
X153743093Y-83825362D01*
X151775505Y-83825362D01*
X151897273Y-83381784D01*
X151832443Y-82864943D01*
X151574759Y-82412254D01*
X151163455Y-82092635D01*
X151116683Y-82069212D01*
X150614375Y-81931322D01*
X150311770Y-81969280D01*
X147210011Y-78867521D01*
X147210011Y-75547440D01*
X148900000Y-75547440D01*
X149135317Y-75503162D01*
X149351441Y-75364090D01*
X149496431Y-75151890D01*
X149500567Y-75131466D01*
X149669357Y-75300551D01*
X150233330Y-75534733D01*
X150843991Y-75535265D01*
X151408371Y-75302068D01*
X151840551Y-74870643D01*
X152074733Y-74306670D01*
X152075265Y-73696009D01*
X151842068Y-73131629D01*
X151410643Y-72699449D01*
X150846670Y-72465267D01*
X150236009Y-72464735D01*
X150125287Y-72510485D01*
X144760000Y-67145198D01*
X144760000Y-65300447D01*
X144917160Y-65065240D01*
X144975012Y-64774401D01*
X144975012Y-61242489D01*
X163673353Y-89290000D01*
X163673353Y-89290000D01*
G37*
X163673353Y-89290000D02*
X155000000Y-89290000D01*
X154931777Y-89303571D01*
X154862214Y-89303498D01*
X154797238Y-89330332D01*
X154728295Y-89344046D01*
X154670459Y-89382690D01*
X154606163Y-89409244D01*
X154556404Y-89458899D01*
X154497954Y-89497954D01*
X154459307Y-89555794D01*
X154410070Y-89604928D01*
X154383100Y-89669846D01*
X154344046Y-89728295D01*
X154330476Y-89796515D01*
X154303787Y-89860757D01*
X154303714Y-89931057D01*
X154290000Y-90000000D01*
X154303571Y-90068223D01*
X154303498Y-90137786D01*
X154330332Y-90202762D01*
X154344046Y-90271705D01*
X154382690Y-90329541D01*
X154409244Y-90393837D01*
X158061904Y-95872827D01*
X150223693Y-88034616D01*
X157451582Y-88034616D01*
X157509849Y-88136978D01*
X157921153Y-88456598D01*
X157967925Y-88480020D01*
X158470233Y-88617910D01*
X158987075Y-88553080D01*
X159439764Y-88295396D01*
X159759383Y-87884092D01*
X159897273Y-87381784D01*
X159832443Y-86864943D01*
X159574759Y-86412254D01*
X159163455Y-86092635D01*
X159116683Y-86069212D01*
X158614375Y-85931322D01*
X158097533Y-85996153D01*
X157644845Y-86253836D01*
X157442196Y-86514616D01*
X149340104Y-86514616D01*
X148561911Y-85736423D01*
X152855264Y-85736423D01*
X153224219Y-86118438D01*
X153711280Y-86330180D01*
X154096047Y-86357761D01*
X154256907Y-86174638D01*
X153919580Y-85160595D01*
X152905537Y-85497922D01*
X152855264Y-85736423D01*
X148561911Y-85736423D01*
X147921535Y-85096047D01*
X152642239Y-85096047D01*
X152825362Y-85256907D01*
X153355901Y-85080420D01*
X154160595Y-85080420D01*
X154497922Y-86094463D01*
X154736423Y-86144736D01*
X155118438Y-85775781D01*
X155330180Y-85288720D01*
X155357761Y-84903953D01*
X155174638Y-84743093D01*
X154160595Y-85080420D01*
X153355901Y-85080420D01*
X153839405Y-84919580D01*
X153502078Y-83905537D01*
X153263577Y-83855264D01*
X152881562Y-84224219D01*
X152669820Y-84711280D01*
X152642239Y-85096047D01*
X147921535Y-85096047D01*
X144561911Y-81736423D01*
X144855264Y-81736423D01*
X145224219Y-82118438D01*
X145711280Y-82330180D01*
X146096047Y-82357761D01*
X146256907Y-82174638D01*
X145919580Y-81160595D01*
X144905537Y-81497922D01*
X144855264Y-81736423D01*
X144561911Y-81736423D01*
X143921535Y-81096047D01*
X144642239Y-81096047D01*
X144825362Y-81256907D01*
X145839405Y-80919580D01*
X145502078Y-79905537D01*
X145263577Y-79855264D01*
X144881562Y-80224219D01*
X144669820Y-80711280D01*
X144642239Y-81096047D01*
X143921535Y-81096047D01*
X143236556Y-80411068D01*
X143439764Y-80295396D01*
X143759383Y-79884092D01*
X143897273Y-79381784D01*
X143832443Y-78864943D01*
X143574759Y-78412254D01*
X143302304Y-78200533D01*
X143302304Y-69563717D01*
X143244452Y-69272878D01*
X143244452Y-69272877D01*
X143079705Y-69026316D01*
X139600829Y-65547440D01*
X140900000Y-65547440D01*
X141135317Y-65503162D01*
X141351441Y-65364090D01*
X141496431Y-65151890D01*
X141500567Y-65131466D01*
X141669357Y-65300551D01*
X142233330Y-65534733D01*
X142789989Y-65535218D01*
X142789989Y-67913579D01*
X142847841Y-68204419D01*
X143012588Y-68450980D01*
X145690011Y-71128402D01*
X145690011Y-79182323D01*
X145747863Y-79473162D01*
X145879464Y-79670117D01*
X145743093Y-79825362D01*
X146055600Y-80764792D01*
X146014141Y-80806251D01*
X146193749Y-80985859D01*
X146469699Y-80709909D01*
X146794686Y-80601800D01*
X146995553Y-80802667D01*
X146160595Y-81080420D01*
X146497922Y-82094463D01*
X146736423Y-82144736D01*
X147118438Y-81775781D01*
X147330180Y-81288720D01*
X147340309Y-81147423D01*
X149224597Y-83031711D01*
X149187335Y-83167448D01*
X149252166Y-83684290D01*
X149509849Y-84136978D01*
X149921153Y-84456598D01*
X149967925Y-84480020D01*
X150470233Y-84617910D01*
X150987075Y-84553080D01*
X151439764Y-84295396D01*
X151759383Y-83884092D01*
X151775505Y-83825362D01*
X153743093Y-83825362D01*
X154080420Y-84839405D01*
X155094463Y-84502078D01*
X155144736Y-84263577D01*
X154775781Y-83881562D01*
X154288720Y-83669820D01*
X153903953Y-83642239D01*
X153743093Y-83825362D01*
X151775505Y-83825362D01*
X151897273Y-83381784D01*
X151832443Y-82864943D01*
X151574759Y-82412254D01*
X151163455Y-82092635D01*
X151116683Y-82069212D01*
X150614375Y-81931322D01*
X150311770Y-81969280D01*
X147210011Y-78867521D01*
X147210011Y-75547440D01*
X148900000Y-75547440D01*
X149135317Y-75503162D01*
X149351441Y-75364090D01*
X149496431Y-75151890D01*
X149500567Y-75131466D01*
X149669357Y-75300551D01*
X150233330Y-75534733D01*
X150843991Y-75535265D01*
X151408371Y-75302068D01*
X151840551Y-74870643D01*
X152074733Y-74306670D01*
X152075265Y-73696009D01*
X151842068Y-73131629D01*
X151410643Y-72699449D01*
X150846670Y-72465267D01*
X150236009Y-72464735D01*
X150125287Y-72510485D01*
X144760000Y-67145198D01*
X144760000Y-65300447D01*
X144917160Y-65065240D01*
X144975012Y-64774401D01*
X144975012Y-61242489D01*
X163673353Y-89290000D01*
G36*
X135871766Y-46678880D02*
X135743093Y-46825362D01*
X136055600Y-47764792D01*
X136014141Y-47806251D01*
X136193749Y-47985859D01*
X136469699Y-47709909D01*
X136794686Y-47601800D01*
X136995553Y-47802667D01*
X136160595Y-48080420D01*
X136485787Y-49057983D01*
X136084666Y-48656862D01*
X135944400Y-48235208D01*
X135985859Y-48193749D01*
X135806251Y-48014141D01*
X135619712Y-48200680D01*
X135460014Y-48045787D01*
X135839405Y-47919580D01*
X135502078Y-46905537D01*
X135263577Y-46855264D01*
X134881562Y-47224219D01*
X134801897Y-47407470D01*
X133865128Y-46498884D01*
X133897273Y-46381784D01*
X133850590Y-46009615D01*
X135202501Y-46009615D01*
X135871766Y-46678880D01*
X135871766Y-46678880D01*
G37*
X135871766Y-46678880D02*
X135743093Y-46825362D01*
X136055600Y-47764792D01*
X136014141Y-47806251D01*
X136193749Y-47985859D01*
X136469699Y-47709909D01*
X136794686Y-47601800D01*
X136995553Y-47802667D01*
X136160595Y-48080420D01*
X136485787Y-49057983D01*
X136084666Y-48656862D01*
X135944400Y-48235208D01*
X135985859Y-48193749D01*
X135806251Y-48014141D01*
X135619712Y-48200680D01*
X135460014Y-48045787D01*
X135839405Y-47919580D01*
X135502078Y-46905537D01*
X135263577Y-46855264D01*
X134881562Y-47224219D01*
X134801897Y-47407470D01*
X133865128Y-46498884D01*
X133897273Y-46381784D01*
X133850590Y-46009615D01*
X135202501Y-46009615D01*
X135871766Y-46678880D01*
M02*
