G04 #@! TF.FileFunction,Soldermask,Top*
%FSLAX46Y46*%
G04 Gerber Fmt 4.6, Leading zero omitted, Abs format (unit mm)*
G04 Created by KiCad (PCBNEW 4.0.7) date Sunday, September 23, 2018 'PMt' 12:40:46 PM*
%MOMM*%
%LPD*%
G01*
G04 APERTURE LIST*
%ADD10C,0.100000*%
%ADD11C,4.000000*%
%ADD12R,1.800000X1.800000*%
%ADD13C,1.800000*%
%ADD14C,1.400000*%
%ADD15C,1.400000*%
%ADD16R,10.000000X9.000000*%
%ADD17R,0.840000X0.840000*%
%ADD18C,0.840000*%
%ADD19C,1.850000*%
%ADD20R,1.500000X1.250000*%
G04 APERTURE END LIST*
D10*
D11*
X136500000Y-26500000D03*
D12*
X140500000Y-31500000D03*
D13*
X137960000Y-31500000D03*
D12*
X131500000Y-54500000D03*
D13*
X128960000Y-54500000D03*
D12*
X123500000Y-64500000D03*
D13*
X120960000Y-64500000D03*
D12*
X153500000Y-68500000D03*
D13*
X150960000Y-68500000D03*
D12*
X136500000Y-43500000D03*
D13*
X133960000Y-43500000D03*
D12*
X143500000Y-47500000D03*
D13*
X140960000Y-47500000D03*
D12*
X108500000Y-104500000D03*
D13*
X105960000Y-104500000D03*
D12*
X116500000Y-96500000D03*
D13*
X113960000Y-96500000D03*
D12*
X140500000Y-56500000D03*
D13*
X137960000Y-56500000D03*
D12*
X134500000Y-87500000D03*
D13*
X131960000Y-87500000D03*
D12*
X123500000Y-87500000D03*
D13*
X120960000Y-87500000D03*
D12*
X146500000Y-79500000D03*
D13*
X143960000Y-79500000D03*
D12*
X148500000Y-103500000D03*
D13*
X145960000Y-103500000D03*
D12*
X160500000Y-96500000D03*
D13*
X157960000Y-96500000D03*
D14*
X157500000Y-86500000D03*
D15*
X152957696Y-88774616D02*
X152957696Y-88774616D01*
D14*
X149500000Y-90500000D03*
D15*
X144957696Y-92774616D02*
X144957696Y-92774616D01*
D14*
X141500000Y-94500000D03*
D15*
X136957696Y-96774616D02*
X136957696Y-96774616D01*
D14*
X133500000Y-98500000D03*
D15*
X128957696Y-100774616D02*
X128957696Y-100774616D01*
D14*
X125500000Y-102500000D03*
D15*
X120957696Y-104774616D02*
X120957696Y-104774616D01*
D14*
X117500000Y-106500000D03*
D15*
X112957696Y-108774616D02*
X112957696Y-108774616D01*
D14*
X149500000Y-59500000D03*
D15*
X144957696Y-61774616D02*
X144957696Y-61774616D01*
D14*
X141500000Y-63500000D03*
D15*
X136957696Y-65774616D02*
X136957696Y-65774616D01*
D14*
X133500000Y-67500000D03*
D15*
X128957696Y-69774616D02*
X128957696Y-69774616D01*
D14*
X125500000Y-71500000D03*
D15*
X120957696Y-73774616D02*
X120957696Y-73774616D01*
D14*
X117500000Y-75500000D03*
D15*
X112957696Y-77774616D02*
X112957696Y-77774616D01*
D14*
X143500000Y-34500000D03*
D15*
X138957696Y-36774616D02*
X138957696Y-36774616D01*
D14*
X135500000Y-38500000D03*
D15*
X130957696Y-40774616D02*
X130957696Y-40774616D01*
D14*
X127500000Y-42500000D03*
D15*
X122957696Y-44774616D02*
X122957696Y-44774616D01*
D16*
X136500000Y-115000000D03*
D17*
X136500000Y-80500000D03*
D18*
X135850000Y-79500000D03*
X135200000Y-80500000D03*
X134550000Y-79500000D03*
X133900000Y-80500000D03*
D19*
X138775000Y-80280000D03*
X131625000Y-80280000D03*
D20*
X145250000Y-44000000D03*
X142750000Y-44000000D03*
X120750000Y-68000000D03*
X123250000Y-68000000D03*
X154250000Y-104000000D03*
X151750000Y-104000000D03*
M02*
