M48
;DRILL file {KiCad 4.0.7} date Saturday, October 28, 2017 'PMt' 12:19:15 PM
;FORMAT={3:3/ absolute / metric / suppress leading zeros}
FMAT,2
METRIC,TZ
T1C0.440
T2C0.700
T3C0.900
T4C1.350
%
G90
G05
M71
T1
X135000Y-90000
X135650Y-89000
X136300Y-90000
X136950Y-89000
X137600Y-90000
T2
X114000Y-96000
X118542Y-98275
X122000Y-69000
X122000Y-100000
X126542Y-71275
X126542Y-102275
X128000Y-44000
X130000Y-73000
X130000Y-104000
X132542Y-46275
X134542Y-75275
X134542Y-106275
X136000Y-48000
X138000Y-77000
X138000Y-108000
X140542Y-50275
X142542Y-79275
X142542Y-110275
X144000Y-52000
X146000Y-81000
X146000Y-112000
X148542Y-54275
X150542Y-83275
X150542Y-114275
X154000Y-85000
X154000Y-116000
X158542Y-87275
X158542Y-118275
T3
X111000Y-106000
X113540Y-106000
X118000Y-78000
X120540Y-78000
X123000Y-113000
X125000Y-89000
X125540Y-113000
X127540Y-89000
X128000Y-57000
X130540Y-57000
X131000Y-41000
X131000Y-66000
X133540Y-41000
X133540Y-66000
X135000Y-53000
X137000Y-97000
X137540Y-53000
X139540Y-97000
X140000Y-64000
X142540Y-64000
X148000Y-74000
X148000Y-97000
X150540Y-74000
X150540Y-97000
X155000Y-106000
X157540Y-106000
X163000Y-114000
X165540Y-114000
T4
X132725Y-89780
X139875Y-89780
T0
M30
