G04 #@! TF.FileFunction,Legend,Bot*
%FSLAX46Y46*%
G04 Gerber Fmt 4.6, Leading zero omitted, Abs format (unit mm)*
G04 Created by KiCad (PCBNEW 4.0.7) date Saturday, October 28, 2017 'PMt' 12:18:59 PM*
%MOMM*%
%LPD*%
G01*
G04 APERTURE LIST*
%ADD10C,0.100000*%
%ADD11C,0.300000*%
%ADD12C,0.150000*%
G04 APERTURE END LIST*
D10*
D11*
X143714284Y-117678571D02*
X143714284Y-116178571D01*
X143214284Y-117250000D01*
X142714284Y-116178571D01*
X142714284Y-117678571D01*
X141428570Y-117607143D02*
X141571427Y-117678571D01*
X141857141Y-117678571D01*
X141999998Y-117607143D01*
X142071427Y-117464286D01*
X142071427Y-116892857D01*
X141999998Y-116750000D01*
X141857141Y-116678571D01*
X141571427Y-116678571D01*
X141428570Y-116750000D01*
X141357141Y-116892857D01*
X141357141Y-117035714D01*
X142071427Y-117178571D01*
X140714284Y-117678571D02*
X140714284Y-116678571D01*
X140714284Y-116964286D02*
X140642856Y-116821429D01*
X140571427Y-116750000D01*
X140428570Y-116678571D01*
X140285713Y-116678571D01*
X139785713Y-117678571D02*
X139785713Y-116678571D01*
X139785713Y-116964286D02*
X139714285Y-116821429D01*
X139642856Y-116750000D01*
X139499999Y-116678571D01*
X139357142Y-116678571D01*
X138999999Y-116678571D02*
X138642856Y-117678571D01*
X138285714Y-116678571D02*
X138642856Y-117678571D01*
X138785714Y-118035714D01*
X138857142Y-118107143D01*
X138999999Y-118178571D01*
X135714285Y-117535714D02*
X135785714Y-117607143D01*
X136000000Y-117678571D01*
X136142857Y-117678571D01*
X136357142Y-117607143D01*
X136500000Y-117464286D01*
X136571428Y-117321429D01*
X136642857Y-117035714D01*
X136642857Y-116821429D01*
X136571428Y-116535714D01*
X136500000Y-116392857D01*
X136357142Y-116250000D01*
X136142857Y-116178571D01*
X136000000Y-116178571D01*
X135785714Y-116250000D01*
X135714285Y-116321429D01*
X135071428Y-117678571D02*
X135071428Y-116178571D01*
X134428571Y-117678571D02*
X134428571Y-116892857D01*
X134500000Y-116750000D01*
X134642857Y-116678571D01*
X134857142Y-116678571D01*
X135000000Y-116750000D01*
X135071428Y-116821429D01*
X133714285Y-117678571D02*
X133714285Y-116678571D01*
X133714285Y-116964286D02*
X133642857Y-116821429D01*
X133571428Y-116750000D01*
X133428571Y-116678571D01*
X133285714Y-116678571D01*
X132785714Y-117678571D02*
X132785714Y-116678571D01*
X132785714Y-116178571D02*
X132857143Y-116250000D01*
X132785714Y-116321429D01*
X132714286Y-116250000D01*
X132785714Y-116178571D01*
X132785714Y-116321429D01*
X132142857Y-117607143D02*
X132000000Y-117678571D01*
X131714285Y-117678571D01*
X131571428Y-117607143D01*
X131500000Y-117464286D01*
X131500000Y-117392857D01*
X131571428Y-117250000D01*
X131714285Y-117178571D01*
X131928571Y-117178571D01*
X132071428Y-117107143D01*
X132142857Y-116964286D01*
X132142857Y-116892857D01*
X132071428Y-116750000D01*
X131928571Y-116678571D01*
X131714285Y-116678571D01*
X131571428Y-116750000D01*
X131071428Y-116678571D02*
X130499999Y-116678571D01*
X130857142Y-116178571D02*
X130857142Y-117464286D01*
X130785714Y-117607143D01*
X130642856Y-117678571D01*
X130499999Y-117678571D01*
X129999999Y-117678571D02*
X129999999Y-116678571D01*
X129999999Y-116821429D02*
X129928571Y-116750000D01*
X129785713Y-116678571D01*
X129571428Y-116678571D01*
X129428571Y-116750000D01*
X129357142Y-116892857D01*
X129357142Y-117678571D01*
X129357142Y-116892857D02*
X129285713Y-116750000D01*
X129142856Y-116678571D01*
X128928571Y-116678571D01*
X128785713Y-116750000D01*
X128714285Y-116892857D01*
X128714285Y-117678571D01*
X127357142Y-117678571D02*
X127357142Y-116892857D01*
X127428571Y-116750000D01*
X127571428Y-116678571D01*
X127857142Y-116678571D01*
X127999999Y-116750000D01*
X127357142Y-117607143D02*
X127499999Y-117678571D01*
X127857142Y-117678571D01*
X127999999Y-117607143D01*
X128071428Y-117464286D01*
X128071428Y-117321429D01*
X127999999Y-117178571D01*
X127857142Y-117107143D01*
X127499999Y-117107143D01*
X127357142Y-117035714D01*
X126714285Y-117607143D02*
X126571428Y-117678571D01*
X126285713Y-117678571D01*
X126142856Y-117607143D01*
X126071428Y-117464286D01*
X126071428Y-117392857D01*
X126142856Y-117250000D01*
X126285713Y-117178571D01*
X126499999Y-117178571D01*
X126642856Y-117107143D01*
X126714285Y-116964286D01*
X126714285Y-116892857D01*
X126642856Y-116750000D01*
X126499999Y-116678571D01*
X126285713Y-116678571D01*
X126142856Y-116750000D01*
X124499999Y-116678571D02*
X123928570Y-116678571D01*
X124285713Y-117678571D02*
X124285713Y-116392857D01*
X124214285Y-116250000D01*
X124071427Y-116178571D01*
X123928570Y-116178571D01*
X123428570Y-117678571D02*
X123428570Y-116678571D01*
X123428570Y-116964286D02*
X123357142Y-116821429D01*
X123285713Y-116750000D01*
X123142856Y-116678571D01*
X122999999Y-116678571D01*
X122285713Y-117678571D02*
X122428571Y-117607143D01*
X122499999Y-117535714D01*
X122571428Y-117392857D01*
X122571428Y-116964286D01*
X122499999Y-116821429D01*
X122428571Y-116750000D01*
X122285713Y-116678571D01*
X122071428Y-116678571D01*
X121928571Y-116750000D01*
X121857142Y-116821429D01*
X121785713Y-116964286D01*
X121785713Y-117392857D01*
X121857142Y-117535714D01*
X121928571Y-117607143D01*
X122071428Y-117678571D01*
X122285713Y-117678571D01*
X121142856Y-117678571D02*
X121142856Y-116678571D01*
X121142856Y-116821429D02*
X121071428Y-116750000D01*
X120928570Y-116678571D01*
X120714285Y-116678571D01*
X120571428Y-116750000D01*
X120499999Y-116892857D01*
X120499999Y-117678571D01*
X120499999Y-116892857D02*
X120428570Y-116750000D01*
X120285713Y-116678571D01*
X120071428Y-116678571D01*
X119928570Y-116750000D01*
X119857142Y-116892857D01*
X119857142Y-117678571D01*
X117999999Y-117678571D02*
X117999999Y-116178571D01*
X117428571Y-116178571D01*
X117285713Y-116250000D01*
X117214285Y-116321429D01*
X117142856Y-116464286D01*
X117142856Y-116678571D01*
X117214285Y-116821429D01*
X117285713Y-116892857D01*
X117428571Y-116964286D01*
X117999999Y-116964286D01*
X115857142Y-117678571D02*
X115857142Y-116892857D01*
X115928571Y-116750000D01*
X116071428Y-116678571D01*
X116357142Y-116678571D01*
X116499999Y-116750000D01*
X115857142Y-117607143D02*
X115999999Y-117678571D01*
X116357142Y-117678571D01*
X116499999Y-117607143D01*
X116571428Y-117464286D01*
X116571428Y-117321429D01*
X116499999Y-117178571D01*
X116357142Y-117107143D01*
X115999999Y-117107143D01*
X115857142Y-117035714D01*
X115357142Y-116678571D02*
X114785713Y-116678571D01*
X115142856Y-116178571D02*
X115142856Y-117464286D01*
X115071428Y-117607143D01*
X114928570Y-117678571D01*
X114785713Y-117678571D01*
X114285713Y-117678571D02*
X114285713Y-116678571D01*
X114285713Y-116964286D02*
X114214285Y-116821429D01*
X114142856Y-116750000D01*
X113999999Y-116678571D01*
X113857142Y-116678571D01*
X113357142Y-117678571D02*
X113357142Y-116678571D01*
X113357142Y-116178571D02*
X113428571Y-116250000D01*
X113357142Y-116321429D01*
X113285714Y-116250000D01*
X113357142Y-116178571D01*
X113357142Y-116321429D01*
X111999999Y-117607143D02*
X112142856Y-117678571D01*
X112428570Y-117678571D01*
X112571428Y-117607143D01*
X112642856Y-117535714D01*
X112714285Y-117392857D01*
X112714285Y-116964286D01*
X112642856Y-116821429D01*
X112571428Y-116750000D01*
X112428570Y-116678571D01*
X112142856Y-116678571D01*
X111999999Y-116750000D01*
X111357142Y-117678571D02*
X111357142Y-116178571D01*
X111214285Y-117107143D02*
X110785714Y-117678571D01*
X110785714Y-116678571D02*
X111357142Y-117250000D01*
X108999999Y-117678571D02*
X108999999Y-116178571D01*
X108428571Y-116178571D01*
X108285713Y-116250000D01*
X108214285Y-116321429D01*
X108142856Y-116464286D01*
X108142856Y-116678571D01*
X108214285Y-116821429D01*
X108285713Y-116892857D01*
X108428571Y-116964286D01*
X108999999Y-116964286D01*
X106928571Y-117607143D02*
X107071428Y-117678571D01*
X107357142Y-117678571D01*
X107499999Y-117607143D01*
X107571428Y-117464286D01*
X107571428Y-116892857D01*
X107499999Y-116750000D01*
X107357142Y-116678571D01*
X107071428Y-116678571D01*
X106928571Y-116750000D01*
X106857142Y-116892857D01*
X106857142Y-117035714D01*
X107571428Y-117178571D01*
X105999999Y-117678571D02*
X106142857Y-117607143D01*
X106214285Y-117464286D01*
X106214285Y-116178571D01*
X105214285Y-117678571D02*
X105357143Y-117607143D01*
X105428571Y-117464286D01*
X105428571Y-116178571D01*
X104071429Y-117607143D02*
X104214286Y-117678571D01*
X104500000Y-117678571D01*
X104642857Y-117607143D01*
X104714286Y-117464286D01*
X104714286Y-116892857D01*
X104642857Y-116750000D01*
X104500000Y-116678571D01*
X104214286Y-116678571D01*
X104071429Y-116750000D01*
X104000000Y-116892857D01*
X104000000Y-117035714D01*
X104714286Y-117178571D01*
X103571429Y-116678571D02*
X103000000Y-116678571D01*
X103357143Y-116178571D02*
X103357143Y-117464286D01*
X103285715Y-117607143D01*
X103142857Y-117678571D01*
X103000000Y-117678571D01*
X102500000Y-117678571D02*
X102500000Y-116678571D01*
X102500000Y-116178571D02*
X102571429Y-116250000D01*
X102500000Y-116321429D01*
X102428572Y-116250000D01*
X102500000Y-116178571D01*
X102500000Y-116321429D01*
X101214286Y-117607143D02*
X101357143Y-117678571D01*
X101642857Y-117678571D01*
X101785714Y-117607143D01*
X101857143Y-117464286D01*
X101857143Y-116892857D01*
X101785714Y-116750000D01*
X101642857Y-116678571D01*
X101357143Y-116678571D01*
X101214286Y-116750000D01*
X101142857Y-116892857D01*
X101142857Y-117035714D01*
X101857143Y-117178571D01*
X100500000Y-117678571D02*
X100500000Y-116678571D01*
X100500000Y-116964286D02*
X100428572Y-116821429D01*
X100357143Y-116750000D01*
X100214286Y-116678571D01*
X100071429Y-116678571D01*
X142107142Y-84260714D02*
X142178571Y-84332143D01*
X142392857Y-84403571D01*
X142535714Y-84403571D01*
X142749999Y-84332143D01*
X142892857Y-84189286D01*
X142964285Y-84046429D01*
X143035714Y-83760714D01*
X143035714Y-83546429D01*
X142964285Y-83260714D01*
X142892857Y-83117857D01*
X142749999Y-82975000D01*
X142535714Y-82903571D01*
X142392857Y-82903571D01*
X142178571Y-82975000D01*
X142107142Y-83046429D01*
X141249999Y-84403571D02*
X141392857Y-84332143D01*
X141464285Y-84260714D01*
X141535714Y-84117857D01*
X141535714Y-83689286D01*
X141464285Y-83546429D01*
X141392857Y-83475000D01*
X141249999Y-83403571D01*
X141035714Y-83403571D01*
X140892857Y-83475000D01*
X140821428Y-83546429D01*
X140749999Y-83689286D01*
X140749999Y-84117857D01*
X140821428Y-84260714D01*
X140892857Y-84332143D01*
X141035714Y-84403571D01*
X141249999Y-84403571D01*
X140107142Y-83403571D02*
X140107142Y-84403571D01*
X140107142Y-83546429D02*
X140035714Y-83475000D01*
X139892856Y-83403571D01*
X139678571Y-83403571D01*
X139535714Y-83475000D01*
X139464285Y-83617857D01*
X139464285Y-84403571D01*
X138749999Y-83403571D02*
X138749999Y-84403571D01*
X138749999Y-83546429D02*
X138678571Y-83475000D01*
X138535713Y-83403571D01*
X138321428Y-83403571D01*
X138178571Y-83475000D01*
X138107142Y-83617857D01*
X138107142Y-84403571D01*
X136821428Y-84332143D02*
X136964285Y-84403571D01*
X137249999Y-84403571D01*
X137392856Y-84332143D01*
X137464285Y-84189286D01*
X137464285Y-83617857D01*
X137392856Y-83475000D01*
X137249999Y-83403571D01*
X136964285Y-83403571D01*
X136821428Y-83475000D01*
X136749999Y-83617857D01*
X136749999Y-83760714D01*
X137464285Y-83903571D01*
X135464285Y-84332143D02*
X135607142Y-84403571D01*
X135892856Y-84403571D01*
X136035714Y-84332143D01*
X136107142Y-84260714D01*
X136178571Y-84117857D01*
X136178571Y-83689286D01*
X136107142Y-83546429D01*
X136035714Y-83475000D01*
X135892856Y-83403571D01*
X135607142Y-83403571D01*
X135464285Y-83475000D01*
X135035714Y-83403571D02*
X134464285Y-83403571D01*
X134821428Y-82903571D02*
X134821428Y-84189286D01*
X134750000Y-84332143D01*
X134607142Y-84403571D01*
X134464285Y-84403571D01*
X132821428Y-82903571D02*
X132821428Y-84117857D01*
X132750000Y-84260714D01*
X132678571Y-84332143D01*
X132535714Y-84403571D01*
X132250000Y-84403571D01*
X132107142Y-84332143D01*
X132035714Y-84260714D01*
X131964285Y-84117857D01*
X131964285Y-82903571D01*
X131321428Y-84332143D02*
X131107142Y-84403571D01*
X130749999Y-84403571D01*
X130607142Y-84332143D01*
X130535713Y-84260714D01*
X130464285Y-84117857D01*
X130464285Y-83975000D01*
X130535713Y-83832143D01*
X130607142Y-83760714D01*
X130749999Y-83689286D01*
X131035713Y-83617857D01*
X131178571Y-83546429D01*
X131249999Y-83475000D01*
X131321428Y-83332143D01*
X131321428Y-83189286D01*
X131249999Y-83046429D01*
X131178571Y-82975000D01*
X131035713Y-82903571D01*
X130678571Y-82903571D01*
X130464285Y-82975000D01*
X129321428Y-83617857D02*
X129107142Y-83689286D01*
X129035714Y-83760714D01*
X128964285Y-83903571D01*
X128964285Y-84117857D01*
X129035714Y-84260714D01*
X129107142Y-84332143D01*
X129250000Y-84403571D01*
X129821428Y-84403571D01*
X129821428Y-82903571D01*
X129321428Y-82903571D01*
X129178571Y-82975000D01*
X129107142Y-83046429D01*
X129035714Y-83189286D01*
X129035714Y-83332143D01*
X129107142Y-83475000D01*
X129178571Y-83546429D01*
X129321428Y-83617857D01*
X129821428Y-83617857D01*
X142249999Y-86882143D02*
X142392856Y-86953571D01*
X142678570Y-86953571D01*
X142821428Y-86882143D01*
X142892856Y-86810714D01*
X142964285Y-86667857D01*
X142964285Y-86239286D01*
X142892856Y-86096429D01*
X142821428Y-86025000D01*
X142678570Y-85953571D01*
X142392856Y-85953571D01*
X142249999Y-86025000D01*
X141607142Y-86953571D02*
X141607142Y-85453571D01*
X140964285Y-86953571D02*
X140964285Y-86167857D01*
X141035714Y-86025000D01*
X141178571Y-85953571D01*
X141392856Y-85953571D01*
X141535714Y-86025000D01*
X141607142Y-86096429D01*
X139607142Y-86953571D02*
X139607142Y-86167857D01*
X139678571Y-86025000D01*
X139821428Y-85953571D01*
X140107142Y-85953571D01*
X140249999Y-86025000D01*
X139607142Y-86882143D02*
X139749999Y-86953571D01*
X140107142Y-86953571D01*
X140249999Y-86882143D01*
X140321428Y-86739286D01*
X140321428Y-86596429D01*
X140249999Y-86453571D01*
X140107142Y-86382143D01*
X139749999Y-86382143D01*
X139607142Y-86310714D01*
X138892856Y-86953571D02*
X138892856Y-85953571D01*
X138892856Y-86239286D02*
X138821428Y-86096429D01*
X138749999Y-86025000D01*
X138607142Y-85953571D01*
X138464285Y-85953571D01*
X137321428Y-85953571D02*
X137321428Y-87167857D01*
X137392857Y-87310714D01*
X137464285Y-87382143D01*
X137607142Y-87453571D01*
X137821428Y-87453571D01*
X137964285Y-87382143D01*
X137321428Y-86882143D02*
X137464285Y-86953571D01*
X137749999Y-86953571D01*
X137892857Y-86882143D01*
X137964285Y-86810714D01*
X138035714Y-86667857D01*
X138035714Y-86239286D01*
X137964285Y-86096429D01*
X137892857Y-86025000D01*
X137749999Y-85953571D01*
X137464285Y-85953571D01*
X137321428Y-86025000D01*
X136035714Y-86882143D02*
X136178571Y-86953571D01*
X136464285Y-86953571D01*
X136607142Y-86882143D01*
X136678571Y-86739286D01*
X136678571Y-86167857D01*
X136607142Y-86025000D01*
X136464285Y-85953571D01*
X136178571Y-85953571D01*
X136035714Y-86025000D01*
X135964285Y-86167857D01*
X135964285Y-86310714D01*
X136678571Y-86453571D01*
X135321428Y-86953571D02*
X135321428Y-85953571D01*
X135321428Y-86239286D02*
X135250000Y-86096429D01*
X135178571Y-86025000D01*
X135035714Y-85953571D01*
X134892857Y-85953571D01*
X133250000Y-86953571D02*
X133250000Y-85453571D01*
X132607143Y-86953571D02*
X132607143Y-86167857D01*
X132678572Y-86025000D01*
X132821429Y-85953571D01*
X133035714Y-85953571D01*
X133178572Y-86025000D01*
X133250000Y-86096429D01*
X131321429Y-86882143D02*
X131464286Y-86953571D01*
X131750000Y-86953571D01*
X131892857Y-86882143D01*
X131964286Y-86739286D01*
X131964286Y-86167857D01*
X131892857Y-86025000D01*
X131750000Y-85953571D01*
X131464286Y-85953571D01*
X131321429Y-86025000D01*
X131250000Y-86167857D01*
X131250000Y-86310714D01*
X131964286Y-86453571D01*
X130607143Y-86953571D02*
X130607143Y-85953571D01*
X130607143Y-86239286D02*
X130535715Y-86096429D01*
X130464286Y-86025000D01*
X130321429Y-85953571D01*
X130178572Y-85953571D01*
X129107144Y-86882143D02*
X129250001Y-86953571D01*
X129535715Y-86953571D01*
X129678572Y-86882143D01*
X129750001Y-86739286D01*
X129750001Y-86167857D01*
X129678572Y-86025000D01*
X129535715Y-85953571D01*
X129250001Y-85953571D01*
X129107144Y-86025000D01*
X129035715Y-86167857D01*
X129035715Y-86310714D01*
X129750001Y-86453571D01*
D12*
X132150000Y-90905000D02*
X132150000Y-91380000D01*
X132150000Y-91380000D02*
X140450000Y-91380000D01*
X140450000Y-91380000D02*
X140450000Y-90905000D01*
X132150000Y-88655000D02*
X132150000Y-88180000D01*
X132150000Y-88180000D02*
X140450000Y-88180000D01*
X140450000Y-88180000D02*
X140450000Y-88655000D01*
X134000000Y-91680000D02*
X136000000Y-91680000D01*
M02*
